<?xml version="1.0" encoding="UTF-8"?>
<svg width="72px" height="72px" viewBox="0 0 72 72" version="1.1" xmlns="http://www.w3.org/2000/svg" xmlns:xlink="http://www.w3.org/1999/xlink">
    <!-- Generator: Sketch 51.2 (57519) - http://www.bohemiancoding.com/sketch -->
    <title>All_companies</title>
    <desc>Created with Sketch.</desc>
    <defs></defs>
    <g id="All_companies" stroke="none" stroke-width="1" fill="none" fill-rule="evenodd">
        <g id="all-companies" fill-rule="nonzero">
            <g id="medal-copy" fill="#5C5E70">
                <circle id="Oval" cx="36" cy="36" r="36"></circle>
            </g>
            <g id="factory" transform="translate(13.500000, 13.218750)">
                <path d="M29.9049258,19.0931632 L23.3085938,23.0533208 L23.3085938,19.7622664 C23.3085451,19.4827175 23.1587328,19.2246836 22.916154,19.0863352 C22.673575,18.9479866 22.3755234,18.9505932 22.1353945,19.0931632 L15.5390625,23.0533208 L15.5390625,19.7622664 C15.5390138,19.4827175 15.3892015,19.2246836 15.1466227,19.0863352 C14.9040437,18.9479866 14.6059921,18.9505932 14.3658633,19.0931632 L7.76953125,23.0533208 L7.76953125,19.7622664 C7.76948257,19.4827175 7.61967031,19.2246836 7.37709144,19.0863352 C7.13451257,18.9479866 6.83646092,18.9505932 6.59633203,19.0931632 L0,23.0533208 L0,24.609375 L31.078125,24.609375 L31.078125,19.7622664 C31.0780763,19.4827175 30.928264,19.2246836 30.6856852,19.0863352 C30.4431062,18.9479866 30.1450546,18.9505932 29.9049258,19.0931632 Z" id="Shape" fill="#FF525D"></path>
                <path d="M38.953125,5.07914571 L34.3466616,12.5383329 C33.329179,14.1855702 31.5259471,15.1886033 29.5840471,15.1874992 C27.5306574,15.1874992 26.3751379,14.4410361 25.7271099,13.6012652 L25.6802646,13.6323678 C19.4342126,13.6323678 19.4342126,9.74453958 19.4342126,9.74453958 L19.4576352,9.61235342 C18.1043108,9.41064621 16.9695172,8.48922625 16.4985681,7.20967558 C15.9481115,5.39288764 16.6470486,3.43063319 18.22404,2.36544162 C19.4926642,1.64943302 21.0106094,1.51612748 22.3854722,1.99998577 C22.4010873,2.00776141 22.42451,2.01553708 22.4401251,2.02331274 L22.5572386,1.69673517 C23.2096162,1.4158641 23.8900826,1.20473902 24.5872055,1.06690699 C26.5000589,0.693675481 28.6315241,0.794759015 30.1852295,1.96110748 L30.3648036,1.7978187 C31.0034652,1.46626175 31.683441,1.22048377 32.3869628,1.06690699 C34.1041213,0.575331996 35.9531319,0.905702034 37.3916121,1.96110748 C38.328086,2.73642112 38.894641,3.86772147 38.953125,5.07914571 Z" id="Shape" fill="#B0D3F0"></path>
                <path d="M39.016744,5.76562496 C38.593528,5.76575619 38.2474432,5.43098108 38.2368627,5.0112297 C38.1862658,4.02720647 37.7206305,3.10972991 36.9539578,2.48342529 C35.5805866,1.33132834 33.6534998,1.53250041 32.6279558,1.75533716 C31.9923256,1.89118166 31.3783538,2.11244901 30.8030334,2.41301507 C30.4238974,2.60268688 29.9614895,2.45658475 29.7627322,2.08432222 C29.563975,1.71205969 29.7019159,1.2504507 30.0730643,1.04581875 C30.7734899,0.679411684 31.5210026,0.409469556 32.2949464,0.243451696 C34.2461014,-0.30564773 36.3438997,0.0856835635 37.9607847,1.30037879 C39.0654695,2.21425411 39.731749,3.5469882 39.7966254,4.97254276 C39.8018599,5.17789995 39.7245684,5.37689325 39.5817874,5.52566152 C39.4390065,5.6744298 39.2424569,5.76076047 39.0354612,5.76562496 L39.016744,5.76562496 Z" id="Shape" fill="#90BAE1"></path>
                <path d="M31.9818669,5.90624993 C31.557916,5.90642709 31.2107425,5.5714976 31.198448,5.15046008 C31.1209694,4.1383492 30.592998,3.21337077 29.7585242,2.6277877 C28.1689673,1.4368933 25.9495417,1.64549441 24.7744133,1.87511131 C24.1285447,2.00115761 23.4981875,2.19582903 22.894208,2.45576963 C22.4974493,2.62772069 22.0355135,2.44755411 21.8624453,2.05335629 C21.6893773,1.65915847 21.8707144,1.20020413 22.2674729,1.02825307 C22.974352,0.724503691 23.7117949,0.49645347 24.4673131,0.347964373 C26.9499676,-0.135398647 29.161559,0.232766745 30.7025439,1.38552139 C31.9156739,2.25635383 32.6725227,3.6211983 32.7652858,5.10531507 C32.7713993,5.31177369 32.6946691,5.51218101 32.5519919,5.66240479 C32.4093146,5.81262858 32.2123909,5.90034938 32.004586,5.90624993 L31.9818669,5.90624993 Z" id="Shape" fill="#90BAE1"></path>
                <path d="M20.6607416,10.546875 C18.8032746,10.546875 16.3908893,9.72987285 15.6920172,7.42762689 C15.03406,5.24772464 15.8644955,2.8873596 17.7329091,1.62675418 C19.1819464,0.776491433 20.9231529,0.60984267 22.5027297,1.17024045 C23.1417508,1.38341962 23.7605733,1.65475294 24.3516833,1.98094586 C24.7204259,2.18921525 24.8572846,2.65941489 24.6594286,3.03825241 C24.4615726,3.41708993 24.001869,3.56504604 23.6257232,3.37095145 C23.1156624,3.08904034 22.581837,2.85407591 22.0306236,2.66886482 C20.8875232,2.24830031 19.6211631,2.3534211 18.5602559,2.95694073 C17.2871796,3.84105189 16.7236142,5.46176278 17.1671557,6.96324223 C17.6214611,8.44691185 19.3326526,8.97268972 20.6607416,8.97268972 C21.0881793,8.97268972 21.4346862,9.32508315 21.4346862,9.75978236 C21.4346862,10.1944816 21.0881793,10.546875 20.6607416,10.546875 Z" id="Shape" fill="#90BAE1"></path>
                <path d="M25.790626,14.484375 C18.781885,14.484375 18.7031351,9.83382138 18.7031351,9.78684609 C18.7009605,9.35445053 19.0517729,9.00217195 19.4866965,9.00001 C19.9216202,8.99784804 20.2759584,9.34662132 20.278133,9.77901688 C20.278133,9.92464027 20.4356329,12.918532 25.790626,12.918532 C26.2255497,12.918532 26.578125,13.269058 26.578125,13.7014535 C26.578125,14.133849 26.2255497,14.484375 25.790626,14.484375 Z" id="Shape" fill="#90BAE1"></path>
                <path d="M29.6015625,16.0273354 C25.3190391,16.0273354 24.1875,12.9543629 24.1875,11.3297979 C24.1875,10.8974016 24.5337798,10.546875 24.9609375,10.546875 C25.3880952,10.546875 25.734375,10.8974016 25.734375,11.3297979 C25.7390156,11.6554938 25.8890625,14.4654041 29.6015625,14.4654041 C30.0287202,14.4654041 30.375,14.8159308 30.375,15.2483271 C30.375,15.6807235 30.0287202,16.03125 29.6015625,16.03125 L29.6015625,16.0273354 Z" id="Shape" fill="#90BAE1"></path>
                <path d="M36.8355469,8.15625 L39.66525,8.15625 C40.2040637,8.15668987 40.6406251,8.59360807 40.640625,9.13242188 L40.640625,12.9375 L35.859375,12.9375 L35.859375,9.13242188 C35.859375,8.59329705 36.296422,8.15625 36.8355469,8.15625 Z" id="Shape" fill="#E4C05C"></path>
                <polygon id="Shape" fill="#DAA121" points="42.75 29.109375 40.4296875 11.25 35.7890625 11.25 33.46875 29.109375"></polygon>
                <path d="M29.53125,28.40625 L44.3390836,28.40625 C44.7817627,28.40625 45.140625,28.7635809 45.140625,29.2043708 L45.140625,43.171875 L29.53125,43.171875 L29.53125,28.40625 Z" id="Shape" fill="#F0C419"></path>
                <path d="M35.0758928,33.1875 L31.1584822,33.1875 C30.725777,33.1875 30.375,32.8097402 30.375,32.34375 C30.375,31.8777598 30.725777,31.5 31.1584822,31.5 L35.0758928,31.5 C35.508598,31.5 35.859375,31.8777598 35.859375,32.34375 C35.859375,32.8097402 35.508598,33.1875 35.0758928,33.1875 Z" id="Shape" fill="#F3D55B"></path>
                <path d="M41.9665178,33.1875 L38.0491072,33.1875 C37.616402,33.1875 37.265625,32.8097402 37.265625,32.34375 C37.265625,31.8777598 37.616402,31.5 38.0491072,31.5 L41.9665178,31.5 C42.399223,31.5 42.75,31.8777598 42.75,32.34375 C42.75,32.8097402 42.399223,33.1875 41.9665178,33.1875 Z" id="Shape" fill="#F3D55B"></path>
                <rect id="Rectangle-path" fill="#FFD15C" x="0" y="22.921875" width="31.078125" height="20.25"></rect>
                <path d="M6.890625,26.859375 C6.890625,27.3253652 6.54784301,27.703125 6.12500001,27.703125 L0,27.703125 L0,26.015625 L6.12500001,26.015625 C6.54784301,26.015625 6.890625,26.3933848 6.890625,26.859375 Z" id="Shape" fill="#F4A14E"></path>
                <path d="M17.9242788,27.703125 L9.35697115,27.703125 C8.92682634,27.703125 8.578125,27.3253652 8.578125,26.859375 C8.578125,26.3933848 8.92682634,26.015625 9.35697115,26.015625 L17.9242788,26.015625 C18.3544237,26.015625 18.703125,26.3933848 18.703125,26.859375 C18.703125,27.3253652 18.3544237,27.703125 17.9242788,27.703125 Z" id="Shape" fill="#F4A14E"></path>
                <rect id="Rectangle-path" fill="#F4A14E" x="3.09375" y="32.203125" width="5.484375" height="4.78125" rx="1"></rect>
                <rect id="Rectangle-path" fill="#F4A14E" x="11.671875" y="32.203125" width="5.484375" height="4.78125" rx="1"></rect>
                <path d="M28.1247045,30.9291038 L28.1247045,43.453125 L20.2502955,43.453125 L20.2502955,30.9291038 C20.2383525,30.4820879 20.5899189,30.10913 21.0377364,30.09375 L27.3372636,30.09375 C27.7850811,30.10913 28.1366475,30.4820879 28.1247045,30.9291038 Z" id="Shape" fill="#59474E"></path>
                <path d="M25.734375,33.046875 C25.734375,33.5128652 25.383598,33.890625 24.9508928,33.890625 L20.25,33.890625 L20.25,32.203125 L24.9508928,32.203125 C25.383598,32.203125 25.734375,32.5808848 25.734375,33.046875 Z" id="Shape" fill="#7F5B53"></path>
                <path d="M25.734375,36.140625 C25.734375,36.6066152 25.383598,36.984375 24.9508928,36.984375 L20.25,36.984375 L20.25,35.296875 L24.9508928,35.296875 C25.383598,35.296875 25.734375,35.6746348 25.734375,36.140625 Z" id="Shape" fill="#7F5B53"></path>
                <path d="M25.734375,39.515625 C25.734375,39.9816152 25.383598,40.359375 24.9508928,40.359375 L20.25,40.359375 L20.25,38.671875 L24.9508928,38.671875 C25.383598,38.671875 25.734375,39.0496348 25.734375,39.515625 Z" id="Shape" fill="#7F5B53"></path>
                <path d="M36.65625,36.984375 L39.84375,36.984375 C40.2838519,36.984375 40.640625,37.335152 40.640625,37.7678572 L40.640625,42.46875 L35.859375,42.46875 L35.859375,37.7678572 C35.859375,37.335152 36.2161481,36.984375 36.65625,36.984375 Z" id="Shape" fill="#E57E25"></path>
                <path d="M45.140625,42.46875 L0,42.46875 L0,44.7890625 C0,45.2162202 0.348450796,45.5625 0.778286638,45.5625 L44.3623383,45.5625 C44.7921741,45.5625 45.140625,45.2162202 45.140625,44.7890625 L45.140625,42.46875 Z" id="Shape" fill="#FFDC8D"></path>
            </g>
        </g>
    </g>
</svg>