<svg xmlns="http://www.w3.org/2000/svg" xmlns:xlink="http://www.w3.org/1999/xlink" viewBox="0 0 438.62 231.9"><defs><style>.cls-1{fill:none;}.cls-2{fill:#fff;}.cls-3{clip-path:url(#clip-path);}.cls-4{fill:#cb001c;}.cls-5{clip-path:url(#clip-path-2);}.cls-6{fill:#180087;}.cls-7{fill:#ea0020;}.cls-8{fill:#ed3726;}.cls-9{fill:#f1f1f2;}.cls-10{fill:#ffd201;}</style><clipPath id="clip-path"><path class="cls-1" d="M22.08,108.1A46.62,46.62,0,0,1,42.26,74.8l3.15-2.15c.71.49,1.39,1,2.12,1.47a10.45,10.45,0,0,1,.95.68,46.53,46.53,0,0,1,20.17,33.3c1.52,15-4.93,30.11-18.68,43.64l-4.59,4.57c-.47-.48-.9-.93-1.39-1.42-1-1-2.12-2.12-3.22-3.18C27,138.21,20.57,123.13,22.08,108.1Z"/></clipPath><clipPath id="clip-path-2"><polygon class="cls-1" points="15.09 89.88 63.35 89.88 70.15 104.61 14.22 104.61 15.09 89.88"/></clipPath></defs><g id="Layer_2" data-name="Layer 2"><g id="Layer_1-2" data-name="Layer 1"><path class="cls-2" d="M166.08,148.55c-1.57-.09-4.06-.18-5.53-.18s-3,.09-4.6.18c-1.85-6.26-5.25-15.75-8.57-24.4-3.22-.1-8.2-.1-12.25-.1-3.78,0-7.28,0-11,.1a257.43,257.43,0,0,0-9.12,24.4c-1-.09-2.3-.18-3.32-.18-1.19,0-2.67.09-3.49.18l-.19-.18c10.22-20.91,20.91-43.2,30.39-64.57h1.48c8.29,21.46,21.92,54.9,26.52,64.57ZM136.51,95.69c-2.76,5.89-8.1,17.77-10.87,24.49,2.68.1,6.73.1,9.86.1,3.41,0,7.83,0,10.41-.1C144.06,115.12,139.37,102.69,136.51,95.69Z"/><path class="cls-2" d="M198.13,111.71l-.55.09a8.4,8.4,0,0,0-5.07-1.38c-6.54,0-9.85,6.26-9.85,13.54v3.87c0,5.53.18,15.47.64,20.72-1-.09-2.85-.18-4.33-.18s-3.4.09-4.32.18c.46-5.06.64-15.38.64-20.91v-3.77c0-5.53-.18-13.54-.64-18.88.92.09,2.85.18,4.32.18s2.95-.09,3.78-.18c-.28,2.39-.46,6.81-.46,9.48h.37c3.22-6.9,7.55-10.13,12.8-10.13A15.49,15.49,0,0,1,200,105l.19.46A35.38,35.38,0,0,0,198.13,111.71Z"/><path class="cls-2" d="M210.66,93.66a4.88,4.88,0,1,1,4.88-4.88A4.91,4.91,0,0,1,210.66,93.66Zm0,54.71c-1.48,0-3.41.09-4.33.18.46-5.06.64-15.38.64-20.91v-3.77c0-5.53-.18-13.63-.64-18.88.92.09,2.85.18,4.33.18s3.31-.09,4.33-.18c-.46,5.43-.65,13.35-.65,18.88v3.77c0,5.53.19,15.66.65,20.91C214,148.46,212.13,148.37,210.66,148.37Z"/><path class="cls-2" d="M237.09,149.38a27.59,27.59,0,0,1-11.51-2.58,44.9,44.9,0,0,1,1.66-7.73h1.29c1.29,4.88,5.52,7.09,9.94,7.09,4.88,0,9.12-2.49,9.12-8.29,0-5.44-3.22-7.09-9.85-9.4-5.44-1.93-10.13-4.23-10.13-12,0-9.12,7.92-12.53,14.82-12.53a29.12,29.12,0,0,1,11,2,57.74,57.74,0,0,0-1.93,7.55h-1.29c-1-4-2.95-6.54-8-6.54-4.24,0-8,2-8,7.19,0,4.88,3.5,6.81,8.75,8.47,7.46,2.4,11.79,5.44,11.79,12.07C254.68,144.22,246.67,149.38,237.09,149.38Z"/><path class="cls-2" d="M276.05,149c-6.91,0-9.21-4.14-9.21-11.33,0-6.72.55-18.32.55-29.1h-7.27v-3.32h7.37c0-1.84,0-5.71-.19-9.48A36.66,36.66,0,0,0,275,92.37l.55.28c-.37,3.68-.64,9.85-.64,12.61h11.23v3.32H274.86c-.37,7.92-.56,18-.56,25.79,0,6.54,1,10.5,6.36,10.5a13.88,13.88,0,0,0,5.34-1.11l.37.19.18,2.21A21,21,0,0,1,276.05,149Z"/><path class="cls-2" d="M314.74,149.75c-16.58,0-22.66-11.51-22.66-22.93,0-12.9,8.1-23,22.66-23,15,0,22.56,9.3,22.56,23C337.3,140.17,328.46,149.75,314.74,149.75Zm0-42.83c-10.78,0-14.1,10.78-14.1,19.9,0,8.65,3.32,19.8,14.1,19.8s14.09-10.78,14.09-19.8S325.42,106.92,314.74,106.92Z"/><path class="cls-2" d="M395.24,148.46c-1.94-.09-3.23-.09-4.52-.09-1.47,0-4.88.18-6.26.37-4-6.08-16.39-22.48-23.58-30.4-.28-.37-.83-.46-1.66-.46v2.86c0,8.19.28,20.44.74,27.81-1.2-.09-3-.18-4.51-.18s-3.32.09-4.7.18c.46-7.37.74-19.52.74-27.81v-9.21c0-8.29-.1-18.61-.46-26,3,.1,5.34.19,7.46.19,1.56,0,3.4-.09,5.25-.19s3.77-.09,5.15-.09c10.41,0,19,3.41,19,14.37,0,12.07-9.67,16.49-18.52,17.41,4.33,5.71,20.45,24.68,26.16,30.85ZM364.38,88.87a29.56,29.56,0,0,0-4.7.37c-.36,5.62-.46,16.58-.46,22.29v3.59h3.23c8.47,0,16.67-2.21,16.67-14.28C379.12,90.62,371.2,88.87,364.38,88.87Z"/><path class="cls-2" d="M438.34,148.55c-1.47-.09-4.24-.18-5.34-.18s-3.13.09-4.51.18c-3.6-6-7.83-12.25-12.07-18.33-4.24,5.81-9,12.9-12.34,18.33a28.85,28.85,0,0,0-2.95-.18c-1.1,0-2.67.09-3.5.18l-.18-.18c5.43-6.36,11.51-13.82,16.94-20.91-4.69-6.91-11-15.66-16.21-22.29l.28-.18c1.47.09,3.78.18,5.34.18,1.2,0,3.13-.09,4.24-.18,3.41,5.62,7.28,11.69,11,17.22,4.24-5.43,9.4-13,12-17.22a25.1,25.1,0,0,0,2.68.18c1,0,2.57-.09,3.59-.18l.27.18c-4.88,5.34-11.23,13.08-16.48,19.71,5.34,7.74,11.42,15.84,17.5,23.49Z"/><g class="cls-3"><g id="USA"><rect class="cls-4" x="29.58" y="86.25" width="29.96" height="1.13"/><rect class="cls-4" x="29.16" y="83.98" width="35.5" height="1.13"/><rect class="cls-4" x="29.16" y="81.71" width="35.5" height="1.13"/><rect class="cls-4" x="34.28" y="79.45" width="25.26" height="1.13"/><rect class="cls-4" x="34.28" y="77.18" width="25.26" height="1.13"/><rect class="cls-4" x="34.28" y="74.91" width="25.26" height="1.13"/><rect class="cls-2" x="34.28" y="73.78" width="25.26" height="1.13"/><rect class="cls-4" x="34.28" y="72.65" width="25.26" height="1.13"/><rect class="cls-2" x="34.28" y="72.65" width="11.53" height="7.93"/><polygon class="cls-2" points="35.32 73.52 35.42 73.82 35.74 73.82 35.48 74.01 35.58 74.31 35.32 74.12 35.07 74.31 35.17 74.01 34.91 73.82 35.22 73.82 35.32 73.52"/><polygon class="cls-2" points="35.32 74.85 35.42 75.15 35.74 75.15 35.48 75.33 35.58 75.63 35.32 75.45 35.07 75.63 35.17 75.33 34.91 75.15 35.22 75.15 35.32 74.85"/><polygon class="cls-2" points="35.32 76.17 35.42 76.47 35.74 76.47 35.48 76.66 35.58 76.96 35.32 76.77 35.07 76.96 35.17 76.66 34.91 76.47 35.22 76.47 35.32 76.17"/><polygon class="cls-2" points="35.32 77.49 35.42 77.8 35.74 77.8 35.48 77.98 35.58 78.28 35.32 78.09 35.07 78.28 35.17 77.98 34.91 77.8 35.22 77.8 35.32 77.49"/><polygon class="cls-2" points="35.32 78.82 35.42 79.12 35.74 79.12 35.48 79.3 35.58 79.6 35.32 79.42 35.07 79.6 35.17 79.3 34.91 79.12 35.22 79.12 35.32 78.82"/><polygon class="cls-2" points="36.24 74.22 36.34 74.52 36.66 74.52 36.4 74.71 36.5 75 36.24 74.82 35.99 75 36.09 74.71 35.83 74.52 36.15 74.52 36.24 74.22"/><polygon class="cls-2" points="36.24 75.54 36.34 75.84 36.66 75.84 36.4 76.03 36.5 76.33 36.24 76.14 35.99 76.33 36.09 76.03 35.83 75.84 36.15 75.84 36.24 75.54"/><polygon class="cls-2" points="36.24 76.87 36.34 77.17 36.66 77.17 36.4 77.35 36.5 77.65 36.24 77.47 35.99 77.65 36.09 77.35 35.83 77.17 36.15 77.17 36.24 76.87"/><polygon class="cls-2" points="36.24 78.19 36.34 78.49 36.66 78.49 36.4 78.68 36.5 78.98 36.24 78.79 35.99 78.98 36.09 78.68 35.83 78.49 36.15 78.49 36.24 78.19"/><polygon class="cls-2" points="37.18 73.52 37.27 73.82 37.59 73.82 37.34 74.01 37.43 74.31 37.18 74.12 36.92 74.31 37.02 74.01 36.77 73.82 37.08 73.82 37.18 73.52"/><polygon class="cls-2" points="37.18 74.85 37.27 75.15 37.59 75.15 37.34 75.33 37.43 75.63 37.18 75.45 36.92 75.63 37.02 75.33 36.77 75.15 37.08 75.15 37.18 74.85"/><polygon class="cls-2" points="37.18 76.17 37.27 76.47 37.59 76.47 37.34 76.66 37.43 76.96 37.18 76.77 36.92 76.96 37.02 76.66 36.77 76.47 37.08 76.47 37.18 76.17"/><polygon class="cls-2" points="37.18 77.49 37.27 77.8 37.59 77.8 37.34 77.98 37.43 78.28 37.18 78.09 36.92 78.28 37.02 77.98 36.77 77.8 37.08 77.8 37.18 77.49"/><polygon class="cls-2" points="37.18 78.82 37.27 79.12 37.59 79.12 37.34 79.3 37.43 79.6 37.18 79.42 36.92 79.6 37.02 79.3 36.77 79.12 37.08 79.12 37.18 78.82"/><polygon class="cls-2" points="38.1 74.22 38.2 74.52 38.51 74.52 38.26 74.71 38.35 75 38.1 74.82 37.84 75 37.94 74.71 37.69 74.52 38 74.52 38.1 74.22"/><polygon class="cls-2" points="38.1 75.54 38.2 75.84 38.51 75.84 38.26 76.03 38.35 76.33 38.1 76.14 37.84 76.33 37.94 76.03 37.69 75.84 38 75.84 38.1 75.54"/><polygon class="cls-2" points="38.1 76.87 38.2 77.17 38.51 77.17 38.26 77.35 38.35 77.65 38.1 77.47 37.84 77.65 37.94 77.35 37.69 77.17 38 77.17 38.1 76.87"/><polygon class="cls-2" points="38.1 78.19 38.2 78.49 38.51 78.49 38.26 78.68 38.35 78.98 38.1 78.79 37.84 78.98 37.94 78.68 37.69 78.49 38 78.49 38.1 78.19"/><polygon class="cls-2" points="39.03 73.52 39.13 73.82 39.45 73.82 39.19 74.01 39.29 74.31 39.03 74.12 38.78 74.31 38.88 74.01 38.62 73.82 38.94 73.82 39.03 73.52"/><polygon class="cls-2" points="39.03 74.85 39.13 75.15 39.45 75.15 39.19 75.33 39.29 75.63 39.03 75.45 38.78 75.63 38.88 75.33 38.62 75.15 38.94 75.15 39.03 74.85"/><polygon class="cls-2" points="39.03 76.17 39.13 76.47 39.45 76.47 39.19 76.66 39.29 76.96 39.03 76.77 38.78 76.96 38.88 76.66 38.62 76.47 38.94 76.47 39.03 76.17"/><polygon class="cls-2" points="39.03 77.49 39.13 77.8 39.45 77.8 39.19 77.98 39.29 78.28 39.03 78.09 38.78 78.28 38.88 77.98 38.62 77.8 38.94 77.8 39.03 77.49"/><polygon class="cls-2" points="39.03 78.82 39.13 79.12 39.45 79.12 39.19 79.3 39.29 79.6 39.03 79.42 38.78 79.6 38.88 79.3 38.62 79.12 38.94 79.12 39.03 78.82"/><polygon class="cls-2" points="39.96 74.22 40.05 74.52 40.37 74.52 40.11 74.71 40.21 75 39.96 74.82 39.7 75 39.8 74.71 39.54 74.52 39.86 74.52 39.96 74.22"/><polygon class="cls-2" points="39.96 75.54 40.05 75.84 40.37 75.84 40.11 76.03 40.21 76.33 39.96 76.14 39.7 76.33 39.8 76.03 39.54 75.84 39.86 75.84 39.96 75.54"/><polygon class="cls-2" points="39.96 76.87 40.05 77.17 40.37 77.17 40.11 77.35 40.21 77.65 39.96 77.47 39.7 77.65 39.8 77.35 39.54 77.17 39.86 77.17 39.96 76.87"/><polygon class="cls-2" points="39.96 78.19 40.05 78.49 40.37 78.49 40.11 78.68 40.21 78.98 39.96 78.79 39.7 78.98 39.8 78.68 39.54 78.49 39.86 78.49 39.96 78.19"/><polygon class="cls-2" points="40.89 73.52 40.99 73.82 41.3 73.82 41.05 74.01 41.15 74.31 40.89 74.12 40.64 74.31 40.73 74.01 40.48 73.82 40.79 73.82 40.89 73.52"/><polygon class="cls-2" points="40.89 74.85 40.99 75.15 41.3 75.15 41.05 75.33 41.15 75.63 40.89 75.45 40.64 75.63 40.73 75.33 40.48 75.15 40.79 75.15 40.89 74.85"/><polygon class="cls-2" points="40.89 76.17 40.99 76.47 41.3 76.47 41.05 76.66 41.15 76.96 40.89 76.77 40.64 76.96 40.73 76.66 40.48 76.47 40.79 76.47 40.89 76.17"/><polygon class="cls-2" points="40.89 77.49 40.99 77.8 41.3 77.8 41.05 77.98 41.15 78.28 40.89 78.09 40.64 78.28 40.73 77.98 40.48 77.8 40.79 77.8 40.89 77.49"/><polygon class="cls-2" points="40.89 78.82 40.99 79.12 41.3 79.12 41.05 79.3 41.15 79.6 40.89 79.42 40.64 79.6 40.73 79.3 40.48 79.12 40.79 79.12 40.89 78.82"/><polygon class="cls-2" points="41.81 74.22 41.91 74.52 42.23 74.52 41.97 74.71 42.07 75 41.81 74.82 41.56 75 41.66 74.71 41.4 74.52 41.72 74.52 41.81 74.22"/><polygon class="cls-2" points="41.81 75.54 41.91 75.84 42.23 75.84 41.97 76.03 42.07 76.33 41.81 76.14 41.56 76.33 41.66 76.03 41.4 75.84 41.72 75.84 41.81 75.54"/><polygon class="cls-2" points="41.81 76.87 41.91 77.17 42.23 77.17 41.97 77.35 42.07 77.65 41.81 77.47 41.56 77.65 41.66 77.35 41.4 77.17 41.72 77.17 41.81 76.87"/><polygon class="cls-2" points="41.81 78.19 41.91 78.49 42.23 78.49 41.97 78.68 42.07 78.98 41.81 78.79 41.56 78.98 41.66 78.68 41.4 78.49 41.72 78.49 41.81 78.19"/><polygon class="cls-2" points="42.75 73.52 42.84 73.82 43.16 73.82 42.91 74.01 43 74.31 42.75 74.12 42.49 74.31 42.59 74.01 42.34 73.82 42.65 73.82 42.75 73.52"/><polygon class="cls-2" points="42.75 74.85 42.84 75.15 43.16 75.15 42.91 75.33 43 75.63 42.75 75.45 42.49 75.63 42.59 75.33 42.34 75.15 42.65 75.15 42.75 74.85"/><polygon class="cls-2" points="42.75 76.17 42.84 76.47 43.16 76.47 42.91 76.66 43 76.96 42.75 76.77 42.49 76.96 42.59 76.66 42.34 76.47 42.65 76.47 42.75 76.17"/><polygon class="cls-2" points="42.75 77.49 42.84 77.8 43.16 77.8 42.91 77.98 43 78.28 42.75 78.09 42.49 78.28 42.59 77.98 42.34 77.8 42.65 77.8 42.75 77.49"/><polygon class="cls-2" points="42.75 78.82 42.84 79.12 43.16 79.12 42.91 79.3 43 79.6 42.75 79.42 42.49 79.6 42.59 79.3 42.34 79.12 42.65 79.12 42.75 78.82"/><polygon class="cls-2" points="43.67 74.22 43.77 74.52 44.08 74.52 43.83 74.71 43.92 75 43.67 74.82 43.41 75 43.51 74.71 43.26 74.52 43.57 74.52 43.67 74.22"/><polygon class="cls-2" points="43.67 75.54 43.77 75.84 44.08 75.84 43.83 76.03 43.92 76.33 43.67 76.14 43.41 76.33 43.51 76.03 43.26 75.84 43.57 75.84 43.67 75.54"/><polygon class="cls-2" points="43.67 76.87 43.77 77.17 44.08 77.17 43.83 77.35 43.92 77.65 43.67 77.47 43.41 77.65 43.51 77.35 43.26 77.17 43.57 77.17 43.67 76.87"/><polygon class="cls-2" points="43.67 78.19 43.77 78.49 44.08 78.49 43.83 78.68 43.92 78.98 43.67 78.79 43.41 78.98 43.51 78.68 43.26 78.49 43.57 78.49 43.67 78.19"/><polygon class="cls-2" points="44.6 73.52 44.7 73.82 45.01 73.82 44.76 74.01 44.86 74.31 44.6 74.12 44.35 74.31 44.44 74.01 44.19 73.82 44.5 73.82 44.6 73.52"/><polygon class="cls-2" points="44.6 74.85 44.7 75.15 45.01 75.15 44.76 75.33 44.86 75.63 44.6 75.45 44.35 75.63 44.44 75.33 44.19 75.15 44.5 75.15 44.6 74.85"/><polygon class="cls-2" points="44.6 76.17 44.7 76.47 45.01 76.47 44.76 76.66 44.86 76.96 44.6 76.77 44.35 76.96 44.44 76.66 44.19 76.47 44.5 76.47 44.6 76.17"/><polygon class="cls-2" points="44.6 77.49 44.7 77.8 45.01 77.8 44.76 77.98 44.86 78.28 44.6 78.09 44.35 78.28 44.44 77.98 44.19 77.8 44.5 77.8 44.6 77.49"/><polygon class="cls-2" points="44.6 78.82 44.7 79.12 45.01 79.12 44.76 79.3 44.86 79.6 44.6 79.42 44.35 79.6 44.44 79.3 44.19 79.12 44.5 79.12 44.6 78.82"/></g><g class="cls-5"><rect class="cls-6" x="1.17" y="89.88" width="91.47" height="14.73"/><polygon class="cls-2" points="31.68 98.91 32.07 100.1 33.24 99.66 32.55 100.7 33.63 101.34 32.38 101.45 32.55 102.7 31.68 101.79 30.82 102.7 31 101.45 29.74 101.34 30.82 100.7 30.13 99.66 31.3 100.1 31.68 98.91"/><polygon class="cls-2" points="54.21 101.06 54.4 101.63 54.95 101.42 54.63 101.91 55.14 102.22 54.54 102.27 54.63 102.86 54.21 102.43 53.8 102.86 53.88 102.27 53.29 102.22 53.8 101.91 53.47 101.42 54.03 101.63 54.21 101.06"/><polygon class="cls-2" points="50.89 95.8 51.07 96.37 51.63 96.16 51.3 96.65 51.81 96.96 51.22 97.01 51.3 97.6 50.89 97.17 50.48 97.6 50.56 97.01 49.97 96.96 50.48 96.65 50.15 96.16 50.71 96.37 50.89 95.8"/><polygon class="cls-2" points="54.21 92.2 54.4 92.77 54.95 92.56 54.63 93.05 55.14 93.36 54.54 93.41 54.63 94 54.21 93.57 53.8 94 53.88 93.41 53.29 93.36 53.8 93.05 53.47 92.56 54.03 92.77 54.21 92.2"/><polygon class="cls-2" points="57.17 94.91 57.35 95.48 57.91 95.27 57.58 95.77 58.09 96.07 57.49 96.12 57.58 96.72 57.17 96.28 56.76 96.72 56.84 96.12 56.24 96.07 56.76 95.77 56.42 95.27 56.98 95.48 57.17 94.91"/><polygon class="cls-2" points="55.54 97.58 55.69 97.93 56.07 97.96 55.78 98.21 55.87 98.58 55.54 98.38 55.22 98.58 55.31 98.21 55.02 97.96 55.4 97.93 55.54 97.58"/><polygon class="cls-2" points="30.6 89.88 30.6 92.09 25.06 92.09 25.06 94.31 30.6 94.31 30.6 96.53 32.81 96.53 32.81 94.31 38.35 94.31 38.35 92.09 32.81 92.09 32.81 89.88 30.6 89.88"/><polygon class="cls-2" points="25.06 89.88 25.06 90.62 36.86 96.53 38.35 96.53 38.35 95.78 26.55 89.88 25.06 89.88"/><polygon class="cls-2" points="36.86 89.88 25.06 95.78 25.06 96.53 26.55 96.53 38.35 90.62 38.35 89.88 36.86 89.88"/><polygon class="cls-7" points="31.04 89.88 31.04 92.54 25.06 92.54 25.06 93.87 31.04 93.87 31.04 96.53 32.37 96.53 32.37 93.87 38.35 93.87 38.35 92.54 32.37 92.54 32.37 89.88 31.04 89.88"/><path class="cls-7" d="M25.06,89.88v.5L28.5,92.1h1Zm12.3,0L32.93,92.1h1l4.43-2.22Z"/><path class="cls-7" d="M29.49,94.31l-4.43,2.22h1l4.43-2.22Zm4.43,0,4.43,2.22V96l-3.44-1.72Z"/></g><path class="cls-8" d="M45.34,135h.12l0-1.52.11-.09,1.38.16-.12-.41a.21.21,0,0,1,.06-.2l1.39-1.18-.29-.14c-.12-.05-.09-.12,0-.3l.21-.8-.81.17a.11.11,0,0,1-.14-.09l-.1-.37-.64.74c-.09.12-.27.12-.22-.16l.27-1.51-.36.2c-.1.06-.21.07-.26,0l-.52-1-.51,1c-.06.11-.16.1-.26,0l-.37-.2.28,1.51c.05.28-.13.28-.22.16l-.64-.74-.1.37a.12.12,0,0,1-.14.09l-.81-.17.21.8c0,.18.08.25,0,.3l-.29.14,1.39,1.18a.21.21,0,0,1,.06.2l-.12.41,1.38-.16.11.09,0,1.52Z"/><rect class="cls-8" x="18.19" y="124.34" width="22.45" height="14.73"/><rect class="cls-8" x="50.04" y="124.34" width="25.48" height="14.73"/><polygon class="cls-2" points="15.22 121.84 87.48 121.84 87.48 107.11 14.42 107.11 15.22 121.84"/><path class="cls-9" d="M46.83,114.49l.17,0-.18,0Z"/><path class="cls-10" d="M41.92,116.63l-.15-.48-.16.49H41.1l.41.29-.15.49.41-.3.41.3-.16-.49.41-.3Zm-.77-1.79.42.3-.16-.48.41-.3h-.51l-.16-.49-.16.49h-.51l.42.3-.16.48Zm7.2,3.54-.16-.48-.16.48h-.51l.41.3-.16.49.42-.3.41.3-.16-.49.41-.29Zm-4.69,0-.15-.49-.16.49h-.51l.41.3-.15.48.41-.3.41.3-.16-.48.41-.3ZM46,119l-.16-.48-.15.49h-.51l.41.3-.15.48.41-.3.41.3-.16-.49.41-.3Zm4-2.38-.16-.49-.15.49h-.51l.41.3-.16.48.41-.3.42.3-.16-.48.41-.3Zm1.13-2.29H50.7l-.16-.49-.16.49h-.51l.41.3-.16.49.42-.3.41.3-.16-.48Zm-1.74-1.6.41-.3.42.3-.16-.48.41-.3H50l-.16-.49-.15.49h-.51l.41.3Zm-1.25-3-.16.48h-.51l.41.3-.15.49.41-.3.41.3-.16-.49.41-.3h-.5Zm-6.9,3,.41-.3.41.3L42,112.3l.42-.3h-.51l-.16-.48-.16.48h-.51l.42.3Zm1.74-1.74.41-.3.41.3-.16-.49.41-.29h-.5l-.16-.49-.16.49H42.8l.41.29Zm2.37-.63.41-.3.42.3-.16-.49.41-.3H46l-.16-.48-.15.48h-.51l.41.3Z"/><polygon class="cls-8" points="34.28 156.31 59.53 156.31 64.37 141.58 25.59 141.58 34.28 156.31"/><path class="cls-10" d="M41.63,148.83l-.31.37-.45-.18.26.41-.31.38.47-.12.26.41,0-.49.48-.12-.46-.18Zm1.81-1H43l-.15-.46-.15.46h-.49l.4.29-.15.46.39-.28.39.28-.15-.46Zm-.8-1.78.08.48.22-.43.48.07-.34-.34.22-.43-.43.22-.35-.35.08.48-.44.22Zm-1-2.23-.31.37-.45-.18.25.41-.31.38.48-.12.26.41,0-.49.47-.12-.45-.18Zm-3.4,2.14-.46-1.41-.46,1.41H35.84l1.2.87-.46,1.41,1.2-.87,1.2.87-.46-1.41,1.2-.87Z"/></g><path class="cls-2" d="M77.77,109.94c-2.47-9.36-7.1-18.29-14.37-27.81a135.3,135.3,0,0,0-11.47-13C50.8,68,49.6,66.79,48.19,65.47c.6-.41,1.17-.82,1.72-1.21l2.59-1.77c1-.73,1.87-1.36,2.65-2,.24-.18.48-.37.7-.56.86.91,1.76,1.88,2.72,2.95A91.81,91.81,0,0,1,69.52,78.1a66.68,66.68,0,0,1,7.06,17.34A44.48,44.48,0,0,1,77.77,109.94Z"/><path class="cls-2" d="M40.45,46.92,39,47.84q-2.64,1.69-5.27,3.58c-.49.35-1,.69-1.42,1-2.53-2.15-5-4.41-7.36-6.83-1.08-1.11-2.17-2.25-3.21-3.39s-2-2.23-3-3.55a87.56,87.56,0,0,1-5.55-7.55,64.61,64.61,0,0,1-8-16.91A41.36,41.36,0,0,1,3.36,0a56.58,56.58,0,0,0,5.3,12.77A82.9,82.9,0,0,0,18.8,26.91a136.53,136.53,0,0,0,12.29,12.3C34.25,42,37.37,44.58,40.45,46.92Z"/><path class="cls-2" d="M61.07,48.49c1.48-1.42,2.91-2.86,4.26-4.28s2.74-3,4-4.52A79.93,79.93,0,0,0,82.17,19.26,52.25,52.25,0,0,0,85.54,7.73,39.17,39.17,0,0,0,86.08,1a57.25,57.25,0,0,1-7.47,16.46A97.81,97.81,0,0,1,64,34.75,151.09,151.09,0,0,1,46.54,49.14L43.8,51l-2,1.23c-1.68,1.09-3.37,2.24-5,3.41-3.44,2.52-6.54,5-9.46,7.53a120.89,120.89,0,0,0-8.72,8.47,93.85,93.85,0,0,0-7.72,9.52A68.87,68.87,0,0,0,4.67,91.89a56,56,0,0,0-2.34,5.84,52.2,52.2,0,0,0-1.59,6.13A41.43,41.43,0,0,0,0,110.17c0,1.12,0,2.16,0,3.17,0,.78.09,1.5.15,2.26l.08.81a65.86,65.86,0,0,0,2.31,11.91,53.39,53.39,0,0,0,4.69,11.06A42.11,42.11,0,0,0,11.1,145a58.45,58.45,0,0,1-2.33-6.25A64.37,64.37,0,0,1,6.49,127.5a76,76,0,0,1-.39-11.29c0-.4,0-.77.06-1.15,0-.56.06-1.12.1-1.65.07-.84.17-1.71.32-2.66a41.62,41.62,0,0,1,1.19-5.22c1.89-6.28,5.29-12.5,10.37-19a101.48,101.48,0,0,1,7.34-8.39c2.65-2.74,5.4-5.34,8.17-7.73,2.9-2.55,5.86-5,8.78-7.12C44.07,62,45.55,60.91,47,59.93l2.49-1.69c.95-.67,1.73-1.26,2.45-1.83A117.45,117.45,0,0,0,61.07,48.49Z"/><path class="cls-2" d="M90.26,117.63a42.2,42.2,0,0,1-.73,6.43,55,55,0,0,1-1.61,6.21,58.44,58.44,0,0,1-2.37,5.92A69.86,69.86,0,0,1,79.24,147a92.76,92.76,0,0,1-7.78,9.59c-2.79,3-5.73,5.84-8.77,8.53-1.56,1.36-3.16,2.68-4.78,3.95-1.45-1.18-2.95-2.3-4.48-3.42l-1.28-.9-.39-.3-1.26-1c-.5-.41-1-.84-1.5-1.28,2.19-1.71,4.34-3.49,6.42-5.32,2.83-2.46,5.54-5,8.13-7.7a98.5,98.5,0,0,0,7.28-8.32A58.89,58.89,0,0,0,81.07,122a40.8,40.8,0,0,0,1.17-5.12c.13-.87.24-1.74.3-2.61s.11-1.84.17-2.77a76.09,76.09,0,0,0-.39-11.18,62,62,0,0,0-2.25-11.08,56.35,56.35,0,0,0-4.52-10.68A41.31,41.31,0,0,1,82.91,88a54.24,54.24,0,0,1,4.77,11.21A66.58,66.58,0,0,1,90,111.3c.09,1,.2,2,.23,3.1S90.3,116.55,90.26,117.63Z"/><path class="cls-2" d="M40.69,181.2A151.27,151.27,0,0,0,26,193.56a97.09,97.09,0,0,0-14.49,17.19A54.31,54.31,0,0,0,3.13,231.9a37.88,37.88,0,0,1,.15-12,52,52,0,0,1,3.42-11.7,80.89,80.89,0,0,1,13-20.62c1.3-1.56,2.65-3.07,4-4.56s2.82-2.89,4.28-4.3,3.19-3,4.85-4.38c.37.35.72.7,1.09,1,1.22,1.14,2.46,2.25,3.67,3.3.64.55,1.28,1.08,2,1.7l.74.57Z"/><path class="cls-2" d="M58.46,188.56a135.24,135.24,0,0,1,12.29,12.31A83.34,83.34,0,0,1,80.89,215a56.73,56.73,0,0,1,5.3,12.79,41.44,41.44,0,0,0-1.75-14.25,65.28,65.28,0,0,0-8-16.92,88,88,0,0,0-5.56-7.53c-1.08-1.32-2.08-2.49-3-3.56s-2.12-2.29-3.21-3.4A110,110,0,0,0,50.4,170l-.87-.62h0l-1-.74v0l-1.35-1.1c-1.07-.9-2.17-1.85-3.25-2.84-2.59-2.34-4.53-4.18-6.28-6a136.94,136.94,0,0,1-11.48-13c-7.27-9.51-11.9-18.45-14.37-27.81a44.8,44.8,0,0,0,1.2,14.5A66.47,66.47,0,0,0,20,149.67,92.14,92.14,0,0,0,31,164.86c2.41,2.68,4.48,4.82,6.51,6.73,1.16,1.08,2.34,2.14,3.51,3.15.6.52,1.2,1,1.84,1.54l.61.48,1.44,1A164.48,164.48,0,0,1,58.46,188.56Z"/><path class="cls-2" d="M76.83,222.1H11.66a1.48,1.48,0,1,1,0-2.95H76.83a1.48,1.48,0,0,1,0,2.95Z"/><path class="cls-2" d="M66.89,207.37H21.6a1.48,1.48,0,1,1,0-3H66.89a1.48,1.48,0,0,1,0,3Z"/><path class="cls-2" d="M51.05,192.64H37.43a1.47,1.47,0,1,1,0-2.94H51.05a1.47,1.47,0,1,1,0,2.94Z"/><path class="cls-2" d="M11.66,0H76.83a1.48,1.48,0,0,1,0,3H11.66a1.48,1.48,0,1,1,0-2.95Z"/><path class="cls-2" d="M21.6,14.73H66.89a1.47,1.47,0,0,1,0,2.94H21.6a1.47,1.47,0,1,1,0-2.94Z"/><path class="cls-2" d="M37.43,29.46H51.05a1.47,1.47,0,1,1,0,2.94H37.43a1.47,1.47,0,0,1,0-2.94Z"/></g></g></svg>