<?xml version="1.0" encoding="UTF-8"?>
<svg xmlns="http://www.w3.org/2000/svg" xmlns:xlink="http://www.w3.org/1999/xlink" width="92pt" height="92pt" viewBox="0 0 92 92" version="1.1">
<g id="surface1">
<path style=" stroke:none;fill-rule:nonzero;fill:rgb(12.941176%,81.568627%,76.470588%);fill-opacity:1;" d="M 91.265625 46.09375 C 91.265625 71.039062 71.039062 91.265625 46.09375 91.265625 C 21.144531 91.265625 0.921875 71.039062 0.921875 46.09375 C 0.921875 21.144531 21.144531 0.921875 46.09375 0.921875 C 71.039062 0.921875 91.265625 21.144531 91.265625 46.09375 Z M 91.265625 46.09375 "/>
<path style=" stroke:none;fill-rule:nonzero;fill:rgb(39.607843%,39.607843%,39.607843%);fill-opacity:1;" d="M 62.375 33.867188 C 62.15625 34.003906 61.957031 34.167969 61.773438 34.351562 C 61.183594 34.941406 60.800781 35.742188 60.730469 36.617188 C 58.597656 35.878906 57.070312 33.847656 57.070312 31.464844 L 57.070312 30.554688 L 31.78125 30.554688 C 31.472656 30.554688 31.171875 30.527344 30.878906 30.480469 C 30.832031 30.472656 30.789062 30.472656 30.753906 30.464844 C 28.441406 30.042969 26.519531 28.261719 26.183594 25.886719 C 25.746094 22.773438 27.941406 20.078125 30.859375 19.6875 C 31.253906 20.714844 32.246094 21.453125 33.410156 21.453125 L 47.96875 21.453125 C 55.285156 21.453125 61.339844 26.839844 62.375 33.867188 Z M 62.375 33.867188 "/>
<path style=" stroke:none;fill-rule:nonzero;fill:rgb(99.607843%,82.352941%,59.607843%);fill-opacity:1;" d="M 35.074219 30.636719 L 56.882812 30.636719 L 56.882812 31.546875 C 56.882812 33.933594 58.410156 35.96875 60.535156 36.707031 C 60.519531 36.804688 60.519531 36.914062 60.519531 37.015625 L 60.519531 50.90625 C 58.917969 54.011719 56.367188 56.539062 53.25 58.09375 C 51.058594 59.1875 48.585938 59.800781 45.980469 59.800781 C 43.363281 59.800781 40.898438 59.179688 38.710938 58.085938 C 33.320312 55.40625 29.625 49.828125 29.625 43.394531 L 29.625 36.105469 C 29.625 34.144531 29.976562 32.285156 30.605469 30.542969 C 30.640625 30.554688 30.6875 30.554688 30.734375 30.5625 C 31.023438 30.609375 31.324219 30.636719 31.632812 30.636719 Z M 41.4375 51.597656 L 50.523438 51.597656 C 50.523438 49.082031 48.488281 47.039062 45.980469 47.039062 C 43.472656 47.039062 41.4375 49.082031 41.4375 51.597656 Z M 41.4375 51.597656 "/>
<path style=" stroke:none;fill-rule:nonzero;fill:rgb(99.607843%,82.352941%,59.607843%);fill-opacity:1;" d="M 53.359375 57.96875 L 53.359375 63.324219 L 46.09375 66.976562 L 38.824219 63.324219 L 38.824219 57.960938 C 41.011719 59.054688 43.476562 59.675781 46.09375 59.675781 C 48.699219 59.675781 51.171875 59.0625 53.359375 57.96875 Z M 53.359375 57.96875 "/>
<path style=" stroke:none;fill-rule:nonzero;fill:rgb(78.039216%,75.686275%,70.196078%);fill-opacity:1;" d="M 46.09375 59.660156 C 43.476562 59.660156 41.011719 59.046875 38.824219 57.960938 L 38.824219 60.675781 C 41.011719 61.761719 43.476562 62.375 46.09375 62.375 C 48.699219 62.375 51.171875 61.769531 53.359375 60.683594 L 53.359375 57.96875 C 51.171875 59.054688 48.699219 59.660156 46.09375 59.660156 Z M 46.09375 59.660156 "/>
<path style=" stroke:none;fill-rule:nonzero;fill:rgb(93.72549%,37.647059%,37.647059%);fill-opacity:1;" d="M 50.601562 51.519531 L 41.585938 51.519531 C 41.585938 48.980469 43.605469 46.921875 46.09375 46.921875 C 48.582031 46.921875 50.601562 48.980469 50.601562 51.519531 Z M 50.601562 51.519531 "/>
<path style=" stroke:none;fill-rule:nonzero;fill:rgb(100%,76.078431%,44.705882%);fill-opacity:1;" d="M 29.808594 43.425781 L 29.808594 44.34375 L 27.96875 44.34375 C 26.957031 44.34375 26.035156 43.929688 25.363281 43.269531 C 24.703125 42.597656 24.289062 41.675781 24.289062 40.664062 C 24.289062 38.628906 25.933594 36.984375 27.96875 36.984375 L 29.808594 36.984375 Z M 29.808594 43.425781 "/>
<path style=" stroke:none;fill-rule:nonzero;fill:rgb(82.745098%,89.411765%,95.686275%);fill-opacity:1;" d="M 67.078125 66.6875 L 57.074219 64.210938 C 57.074219 64.210938 57.074219 64.207031 57.074219 64.207031 L 53.375 63.296875 L 46.09375 66.902344 L 38.808594 63.296875 L 35.113281 64.207031 L 35.113281 64.210938 L 25.105469 66.6875 C 22.355469 67.371094 20.242188 69.5625 19.6875 72.3125 L 72.496094 72.3125 C 71.941406 69.5625 69.828125 67.371094 67.078125 66.6875 Z M 67.078125 66.6875 "/>
<path style=" stroke:none;fill-rule:nonzero;fill:rgb(93.72549%,37.647059%,37.647059%);fill-opacity:1;" d="M 64.308594 62.46875 C 62.800781 62.46875 61.582031 63.691406 61.582031 65.203125 C 61.582031 66.71875 62.800781 67.9375 64.308594 67.9375 C 65.816406 67.9375 67.035156 66.71875 67.035156 65.203125 C 67.035156 63.691406 65.816406 62.46875 64.308594 62.46875 Z M 71.574219 65.203125 C 71.574219 66.535156 71.222656 67.785156 70.59375 68.859375 C 69.332031 71.039062 66.988281 72.496094 64.308594 72.496094 C 64.035156 72.496094 63.761719 72.476562 63.480469 72.449219 C 60.28125 72.09375 57.621094 69.5625 57.128906 66.371094 C 57.023438 65.660156 57.011719 64.96875 57.09375 64.300781 C 57.386719 61.988281 58.746094 60.007812 60.675781 58.898438 L 60.675781 36.949219 C 60.675781 36.851562 60.675781 36.738281 60.691406 36.640625 C 60.765625 35.765625 61.144531 34.960938 61.738281 34.371094 C 61.917969 34.1875 62.117188 34.023438 62.335938 33.886719 C 62.910156 33.523438 63.582031 33.304688 64.308594 33.304688 C 66.316406 33.304688 67.941406 34.933594 67.941406 36.949219 L 67.941406 58.898438 C 70.113281 60.15625 71.574219 62.507812 71.574219 65.203125 Z M 71.574219 65.203125 "/>
<path style=" stroke:none;fill-rule:nonzero;fill:rgb(93.72549%,37.647059%,37.647059%);fill-opacity:1;" d="M 67.160156 65.136719 C 67.160156 66.660156 65.925781 67.894531 64.398438 67.894531 C 62.875 67.894531 61.640625 66.660156 61.640625 65.136719 C 61.640625 63.613281 62.875 62.375 64.398438 62.375 C 65.925781 62.375 67.160156 63.613281 67.160156 65.136719 Z M 67.160156 65.136719 "/>
<path style=" stroke:none;fill-rule:nonzero;fill:rgb(89.019608%,88.235294%,85.882353%);fill-opacity:1;" d="M 63.480469 40.664062 L 65.320312 40.664062 L 65.320312 63.480469 L 63.480469 63.480469 Z M 63.480469 40.664062 "/>
<path style=" stroke:none;fill-rule:nonzero;fill:rgb(89.019608%,88.235294%,85.882353%);fill-opacity:1;" d="M 67.160156 65.136719 C 67.160156 66.660156 65.925781 67.894531 64.398438 67.894531 C 62.875 67.894531 61.640625 66.660156 61.640625 65.136719 C 61.640625 63.613281 62.875 62.375 64.398438 62.375 C 65.925781 62.375 67.160156 63.613281 67.160156 65.136719 Z M 67.160156 65.136719 "/>
<path style=" stroke:none;fill-rule:nonzero;fill:rgb(23.137255%,40%,56.078431%);fill-opacity:1;" d="M 37.429688 44.160156 L 36.617188 42.511719 L 40.453125 40.570312 L 36.617188 38.632812 L 37.429688 36.984375 L 44.527344 40.570312 Z M 37.429688 44.160156 "/>
<path style=" stroke:none;fill-rule:nonzero;fill:rgb(23.137255%,40%,56.078431%);fill-opacity:1;" d="M 54.753906 44.160156 L 47.65625 40.570312 L 54.753906 36.984375 L 55.566406 38.632812 L 51.730469 40.570312 L 55.566406 42.511719 Z M 54.753906 44.160156 "/>
<path style=" stroke:none;fill-rule:nonzero;fill:rgb(78.039216%,75.686275%,70.196078%);fill-opacity:1;" d="M 45.164062 30.601562 L 46.988281 30.601562 L 46.988281 35.089844 L 45.164062 35.089844 Z M 45.164062 30.601562 "/>
<path style=" stroke:none;fill-rule:nonzero;fill:rgb(78.039216%,75.686275%,70.196078%);fill-opacity:1;" d="M 41.515625 30.601562 L 43.339844 30.601562 L 43.339844 35.089844 L 41.515625 35.089844 Z M 41.515625 30.601562 "/>
<path style=" stroke:none;fill-rule:nonzero;fill:rgb(78.039216%,75.686275%,70.196078%);fill-opacity:1;" d="M 37.871094 30.601562 L 39.695312 30.601562 L 39.695312 35.089844 L 37.871094 35.089844 Z M 37.871094 30.601562 "/>
<path style=" stroke:none;fill-rule:nonzero;fill:rgb(78.039216%,75.686275%,70.196078%);fill-opacity:1;" d="M 34.222656 30.601562 L 36.046875 30.601562 L 36.046875 35.089844 L 34.222656 35.089844 Z M 34.222656 30.601562 "/>
<path style=" stroke:none;fill-rule:nonzero;fill:rgb(78.039216%,75.686275%,70.196078%);fill-opacity:1;" d="M 48.808594 30.601562 L 50.632812 30.601562 L 50.632812 35.089844 L 48.808594 35.089844 Z M 48.808594 30.601562 "/>
<path style=" stroke:none;fill-rule:nonzero;fill:rgb(78.039216%,75.686275%,70.196078%);fill-opacity:1;" d="M 52.457031 30.601562 L 54.28125 30.601562 L 54.28125 35.089844 L 52.457031 35.089844 Z M 52.457031 30.601562 "/>
<path style=" stroke:none;fill-rule:nonzero;fill:rgb(23.137255%,40%,56.078431%);fill-opacity:1;" d="M 30.542969 67.894531 L 32.382812 67.894531 L 32.382812 69.734375 L 30.542969 69.734375 Z M 30.542969 67.894531 "/>
<path style=" stroke:none;fill-rule:nonzero;fill:rgb(23.137255%,40%,56.078431%);fill-opacity:1;" d="M 34.222656 67.894531 L 36.0625 67.894531 L 36.0625 69.734375 L 34.222656 69.734375 Z M 34.222656 67.894531 "/>
<path style=" stroke:none;fill-rule:nonzero;fill:rgb(23.137255%,40%,56.078431%);fill-opacity:1;" d="M 37.902344 67.894531 L 39.742188 67.894531 L 39.742188 69.734375 L 37.902344 69.734375 Z M 37.902344 67.894531 "/>
</g>
</svg>
