<?xml version="1.0" encoding="UTF-8"?>
<svg width="92px" height="92px" viewBox="0 0 92 92" version="1.1" xmlns="http://www.w3.org/2000/svg" xmlns:xlink="http://www.w3.org/1999/xlink">
    <!-- Generator: Sketch 51.2 (57519) - http://www.bohemiancoding.com/sketch -->
    <title>ic_All</title>
    <desc>Created with Sketch.</desc>
    <defs></defs>
    <g id="ic_All" stroke="none" stroke-width="1" fill="none" fill-rule="evenodd">
        <g id="001-injection" transform="translate(1.000000, 1.000000)" fill-rule="nonzero">
            <circle id="Oval" fill="#FAD24D" cx="45" cy="45" r="45"></circle>
            <ellipse id="Oval" fill="#EDB937" cx="44.885918" cy="72.6280664" rx="20.1789844" ry="1.82302734"></ellipse>
            <polygon id="Shape" fill="#EEF3F7" points="37.5164648 21.0100781 52.2696094 21.0100781 52.2696094 25.0820508 37.5164648 25.0820508"></polygon>
            <polygon id="Shape" fill="#D9DADA" points="37.5164648 21.0100781 52.2696094 21.0100781 52.2696094 25.0820508"></polygon>
            <path d="M37.8945703,25.0565625 L51.8911523,25.0565625 C55.7405859,25.0565625 58.8898828,28.2058594 58.8898828,32.055293 L58.8898828,69.9489844 C58.8898828,71.292832 57.7908984,72.3919922 56.446875,72.3919922 L33.3386719,72.3919922 C31.995,72.3919922 30.8956641,71.2930078 30.8956641,69.9489844 L30.8956641,32.0551172 C30.8960156,28.2058594 34.0453125,25.0565625 37.8945703,25.0565625 Z" id="Shape" fill="#FEFEFE"></path>
            <g id="Group" transform="translate(30.761719, 33.750000)" fill="#EEF3F7">
                <path d="M27.7314258,37.5291211 C27.2942578,38.197793 26.5392773,38.6418164 25.685332,38.6418164 L2.57712891,38.6418164 C1.72300781,38.6418164 0.968203125,38.197793 0.531035156,37.5291211 L27.7314258,37.5291211 Z" id="Shape"></path>
                <polygon id="Shape" points="0.134296875 0.028125 28.1283398 0.028125 28.1283398 36.1989844 0.134296875 36.1989844"></polygon>
            </g>
            <polygon id="SVGCleanerId_0" fill="#D9DADA" points="57.511582 33.778125 58.8898828 33.778125 58.8898828 69.9489844 57.511582 69.9489844"></polygon>
            <polygon id="SVGCleanerId_0_1_" fill="#D9DADA" points="57.511582 33.778125 58.8898828 33.778125 58.8898828 69.9489844 57.511582 69.9489844"></polygon>
            <path d="M36.5820117,14.2033008 L53.2042383,14.2033008 C53.8519922,14.2033008 54.3821484,14.7331055 54.3821484,15.3810352 L54.3821484,20.0664844 C54.3821484,20.7144141 53.8519922,21.2442188 53.2042383,21.2442188 L36.5820117,21.2442188 C35.9339062,21.2442188 35.4041016,20.7144141 35.4041016,20.0664844 L35.4041016,15.3810352 C35.4041016,14.7331055 35.9339062,14.2033008 36.5820117,14.2033008 Z" id="Shape" fill="#2093BB"></path>
            <polygon id="Shape" fill="#FFFFFF" points="38.3871094 40.7416992 58.8898828 40.7416992 58.8898828 66.2479102 38.3871094 66.2479102"></polygon>
            <polygon id="Shape" fill="#EEF3F7" points="57.511582 40.7416992 58.8898828 40.7416992 58.8898828 66.2479102 57.511582 66.2479102"></polygon>
            <polygon id="Shape" fill="#FFFFFF" points="33.6791602 40.7416992 30.8960156 40.7416992 30.8960156 66.2479102 33.6791602 66.2479102"></polygon>
            <path d="M54.9669727,37.9355273 L61.3258594,45.2098828 C61.7088867,45.6481055 61.6635352,46.3194141 61.2254883,46.7022656 L31.6200586,72.5823633 L23.8689844,63.7154297 L53.4744141,37.8356836 C53.9124609,37.4526563 54.5841211,37.4974805 54.9669727,37.9355273 Z" id="Shape" fill="#FEFEFE"></path>
            <polygon id="Shape" fill="#EEF3F7" points="36.4211719 55.3514062 41.5870312 61.2608203 12.9930469 86.2565625 7.82736328 80.3473242"></polygon>
            <polygon id="Shape" fill="#D9DADA" points="41.0167969 60.6086719 41.5870312 61.2609961 12.9930469 86.2565625 12.4229883 85.6044141"></polygon>
            <path d="M24.0194531,61.8129492 L33.525,72.6871289 C33.8368359,73.0437891 33.7999219,73.5906445 33.4434375,73.9023047 C33.0867773,74.2139648 32.5400977,74.1772266 32.2282617,73.8207422 L22.7227148,62.9465625 C22.4110547,62.5899023 22.447793,62.0430469 22.8042773,61.7313867 C23.1609375,61.4199023 23.7076172,61.4564648 24.0194531,61.8129492 Z" id="Shape" fill="#2093BB"></path>
            <polygon id="Shape" fill="#EEF3F7" points="56.859082 40.100625 59.4330469 43.0451367 62.4248437 40.4298633 59.8508789 37.4853516"></polygon>
            <polygon id="Shape" fill="#FFFFFF" points="76.7051367 24.590918 79.3940625 23.7575391 63.175957 37.9346484 62.4239648 37.0745508"></polygon>
            <path d="M58.6079297,38.5718555 L61.1818945,41.5163672 L64.1736914,38.9010938 C64.6029492,38.5258008 64.6472461,37.8675 64.2719531,37.4382422 L63.0624023,36.054668 C62.6869336,35.6254102 62.0288086,35.5811133 61.5995508,35.9564063 L58.6079297,38.5718555 Z" id="Shape" fill="#FF5B62"></path>
            <path d="M57.6249609,39.0225586 L60.60375,42.4302539 C60.7914844,42.6450586 61.1200195,42.6670313 61.3348242,42.4792969 L61.3351758,42.4789453 C61.5499805,42.2913867 61.5719531,41.9626758 61.3842188,41.7478711 L58.4054297,38.3401758 C58.2176953,38.1253711 57.8889844,38.1035742 57.6741797,38.2911328 L57.6738281,38.2914844 C57.4591992,38.4792187 57.4372266,38.8079297 57.6249609,39.0225586 Z" id="Shape" fill="#ED4C54"></path>
            <path d="M6.76248047,78.6280078 L14.5543359,87.5415234 C14.8014844,87.8243555 14.7723047,88.2571289 14.4898242,88.5042773 L14.4896484,88.5044531 C14.2068164,88.7516016 13.7736914,88.7227734 13.5267188,88.4399414 L5.73503906,79.5264258 C5.48771484,79.243418 5.51654297,78.8104687 5.799375,78.5633203 L5.79955078,78.5631445 C6.08203125,78.3159961 6.51515625,78.3451758 6.76248047,78.6280078 Z" id="Shape" fill="#2093BB"></path>
            <polygon id="Shape" fill="#0F7986" points="37.9286719 52.7966016 44.3204297 60.1083984 42.1999805 61.9620117 35.8082227 54.6503906"></polygon>
            <path d="M54.5257617,38.867168 L60.3435937,45.5222461 C60.5012695,45.7027734 60.4828125,45.9796289 60.3021094,46.1374805 L44.3204297,60.1083984 L37.9288477,52.7966016 L53.9105273,38.8258594 C54.0912305,38.6680078 54.3680859,38.6864648 54.5257617,38.867168 Z" id="Shape" fill="#2093BB"></path>
            <path d="M59.7353906,44.8266797 L60.3432422,45.5220703 C60.5010938,45.7027734 60.4828125,45.9796289 60.3021094,46.1374805 L44.3202539,60.1083984 L43.4251758,59.0844727 L59.7353906,44.8266797 Z" id="Shape" fill="#107FA5"></path>
            <path d="M53.1692578,39.4737891 L55.6586719,42.3217969 L55.0578516,42.8470313 L52.5684375,39.999375 L53.1692578,39.4737891 Z M38.6289844,52.1845313 L40.0855078,53.8507617 L39.4846875,54.3759961 L38.0281641,52.7097656 L38.6289844,52.1845313 Z M40.7318555,50.3463867 L43.2212695,53.1943945 L42.6204492,53.7196289 L40.1310352,50.8716211 L40.7318555,50.3463867 Z M42.7747852,48.5604492 L44.2313086,50.2265039 L43.6304883,50.7517383 L42.1739648,49.0855078 L42.7747852,48.5604492 Z M44.8774805,46.7221289 L47.3672461,49.5701367 L46.76625,50.0953711 L44.2768359,47.2477148 L44.8774805,46.7221289 Z M46.9204102,44.9363672 L48.3771094,46.6025977 L47.7762891,47.127832 L46.3195898,45.4616016 L46.9204102,44.9363672 Z M49.023457,43.0980469 L51.5128711,45.9460547 L50.9120508,46.4712891 L48.4226367,43.6232813 L49.023457,43.0980469 Z M51.0662109,41.3124609 L52.5229102,42.9785156 L51.9220898,43.50375 L50.4653906,41.8376953 L51.0662109,41.3124609 Z" id="Shape" fill="#FEFEFE"></path>
            <circle id="Oval" fill="#FF5B62" cx="52.2718945" cy="60.9016992" r="3.60667969"></circle>
            <polygon id="Shape" fill="#FEFEFE" points="51.5847656 58.3715039 52.9591992 58.3715039 52.9591992 60.2149219 54.802793 60.2149219 54.802793 61.5893555 52.9591992 61.5893555 52.9591992 63.4329492 51.5847656 63.4329492 51.5847656 61.5893555 49.7411719 61.5893555 49.7411719 60.2149219 51.5847656 60.2149219"></polygon>
        </g>
    </g>
</svg>