<?xml version="1.0" encoding="UTF-8"?>
<svg width="54px" height="54px" viewBox="0 0 54 54" version="1.1" xmlns="http://www.w3.org/2000/svg" xmlns:xlink="http://www.w3.org/1999/xlink">
    <title>ic_Anxiety</title>
    <g id="Page-1" stroke="none" stroke-width="1" fill="none" fill-rule="evenodd">
        <g id="Home-Page" transform="translate(-41.000000, -2076.000000)">
            <g id="Group-3-Copy-18" transform="translate(16.000000, 2068.000000)">
                <g id="ic_Anxiety" transform="translate(25.000000, 8.000000)">
                    <circle id="Oval" stroke-opacity="0.3" stroke="#95D6A4" fill-opacity="0.1" fill="#95D6A4" cx="27" cy="27" r="26.5"></circle>
                    <g id="depressed" transform="translate(16.000000, 10.000000)" fill-rule="nonzero">
                        <path d="M0,4.38766016 L0,15.3604297 C0,16.0201094 0.534769531,16.5548789 1.19444922,16.5548789 L20.7559375,16.5548789 C21.4156172,16.5548789 21.9503867,16.0201094 21.9503867,15.3604297 L21.9503867,4.38766016 C21.9503867,1.96442969 19.9860234,9.43689571e-16 17.562793,9.43689571e-16 C16.8170508,9.43689571e-16 16.0940195,0.256460938 15.514957,0.726351563 L15.2742344,0.921652344 C15.2011875,0.980953125 15.0977266,0.984738281 15.0204961,0.931015625 L14.5185312,0.581917969 C13.9738672,0.203070313 13.3263398,9.43689571e-16 12.6628086,9.43689571e-16 L4.38766016,9.43689571e-16 C1.96442969,9.43689571e-16 0,1.96442969 0,4.38766016 L0,4.38766016 Z" id="Path" fill="#E49542"></path>
                        <path d="M17.562793,0 C17.1921133,0 16.8271445,0.063484375 16.4825625,0.184875 C18.2908711,0.726816406 19.6089688,2.40291016 19.6089688,4.38759375 L19.6089688,15.3604297 C19.6089688,16.0201094 19.0741992,16.5548789 18.4145195,16.5548789 L20.7560039,16.5548789 C21.4156836,16.5548789 21.9504531,16.0201094 21.9504531,15.3604297 L21.9504531,4.38766016 C21.9504531,1.96442969 19.9860234,0 17.562793,0 Z" id="Path" fill="#E27D47"></path>
                        <path d="M14.1064141,23.0906484 L12.8202578,23.0906484 L9.13026172,23.0906484 L7.84410547,23.0906484 C5.28467578,23.0906484 3.20987891,25.1654453 3.20987891,27.724875 L3.20987891,33.4097813 C3.20987891,33.7357695 3.47410938,34 3.80009766,34 L18.1504219,34 C18.4764102,34 18.7406406,33.7357695 18.7406406,33.4097813 L18.7406406,27.724875 C18.7406406,25.1654453 16.6658438,23.0906484 14.1064141,23.0906484 L14.1064141,23.0906484 Z" id="Path" fill="#95D6A4"></path>
                        <path d="M14.1064141,23.0906484 L11.8483359,23.0906484 C14.4077656,23.0906484 16.4825625,25.1654453 16.4825625,27.724875 L16.4825625,33.4097813 C16.4825625,33.7357695 16.218332,34 15.8923438,34 L18.1504219,34 C18.4764102,34 18.7406406,33.7357695 18.7406406,33.4097813 L18.7406406,27.724875 C18.7406406,25.1654453 16.6658438,23.0906484 14.1064141,23.0906484 Z" id="Path" fill="#78C2A4"></path>
                        <path d="M12.2668281,19.6734492 L9.78894531,19.5276875 C9.15629297,19.5276875 9.12853516,22.4917305 9.12853516,22.4917305 L9.12853516,24.3062813 C9.12853516,25.3252188 9.9545625,26.1513125 10.9735664,26.1513125 C11.9925039,26.1513125 12.8185977,25.3252852 12.8185977,24.3062813 L12.8185977,22.4917969 C12.8185313,22.4917969 12.8994805,19.6734492 12.2668281,19.6734492 Z" id="Path" fill="#EAAC9D"></path>
                        <path d="M10.9752266,23.0906484 C6.05810938,23.0906484 2.07194141,19.1045469 2.07194141,14.1874297 L2.07194141,8.80248047 C2.07194141,8.6731875 2.1770625,8.56886328 2.30635547,8.56859766 C6.42699609,8.56102734 10.0688477,7.97080859 13.317375,5.87164063 C13.4144609,5.80895313 13.5441523,5.82894141 13.6136797,5.92124609 C15.0806602,7.86874219 17.0814141,8.40769531 19.6450938,8.55604687 C19.7758477,8.56361719 19.8784453,8.67099609 19.8784453,8.80194922 L19.8784453,14.1874961 C19.8784453,19.1044805 15.8923438,23.0906484 10.9752266,23.0906484 Z" id="Path" fill="#FFCBBE"></path>
                        <path d="M19.6451602,8.55598047 C18.8907852,8.51235156 18.1855508,8.43439062 17.5279297,8.29712891 L17.5279297,14.1873633 C17.5279297,18.706043 14.1615313,22.4380742 9.79996875,23.0132852 C10.1845938,23.0640195 10.5767891,23.090582 10.9752266,23.090582 C15.8923438,23.090582 19.8784453,19.1044805 19.8784453,14.1873633 L19.8784453,8.80181641 C19.8784453,8.67092969 19.7758477,8.56355078 19.6451602,8.55598047 L19.6451602,8.55598047 Z" id="Path" fill="#EAAC9D"></path>
                        <circle id="Oval" fill="#F6F9F9" cx="7.08382031" cy="13.5845937" r="1.99437891"></circle>
                        <path d="M5.10969531,13.8688789 L8.69749219,12.412457 C8.17142188,11.6871016 7.20116016,11.3845547 6.33362891,11.736707 C5.46609766,12.088793 4.98126563,12.9820898 5.10969531,13.8688789 L5.10969531,13.8688789 Z" id="Path" fill="#365E7D"></path>
                        <path d="M7.28317188,14.7751914 C6.99975,14.7751914 6.77011719,14.5454922 6.77011719,14.2621367 L6.77011719,14.232918 C6.77011719,13.9494961 6.99981641,13.7198633 7.28317188,13.7198633 C7.56659375,13.7198633 7.79622658,13.9495625 7.79622658,14.232918 L7.79622658,14.2621367 C7.79629297,14.5454922 7.56659375,14.7751914 7.28317188,14.7751914 Z" id="Path" fill="#365E7D"></path>
                        <circle id="Oval" fill="#F6F9F9" cx="14.8105859" cy="13.5845937" r="1.99437891"></circle>
                        <path d="M16.7847109,13.8688789 L13.1969141,12.412457 C13.7229844,11.6871016 14.6932461,11.3845547 15.5607773,11.736707 C16.4283086,12.0888594 16.9130742,12.9820898 16.7847109,13.8688789 L16.7847109,13.8688789 Z" id="Path" fill="#365E7D"></path>
                        <path d="M14.6112344,14.7751914 C14.3278125,14.7751914 14.0981797,14.5454922 14.0981797,14.2621367 L14.0981797,14.232918 C14.0981797,13.9494961 14.3278789,13.7198633 14.6112344,13.7198633 C14.8945898,13.7198633 15.1242891,13.9495625 15.1242891,14.232918 L15.1242891,14.2621367 C15.1242891,14.5454922 14.8945898,14.7751914 14.6112344,14.7751914 Z" id="Path" fill="#365E7D"></path>
                        <g id="Group" transform="translate(3.974357, 9.791185)" fill="#2B4D66">
                            <path d="M0.51331136,1.62683817 C0.370869954,1.62683817 0.22909261,1.56786942 0.127690266,1.45245536 C-0.05937614,1.23962333 -0.0384581712,0.91536161 0.17437386,0.72836161 L0.857893391,0.127717078 C1.07079183,-0.0594157342 1.39498714,-0.0384313592 1.58198714,0.174400672 C1.76905355,0.387232703 1.74813558,0.711494422 1.53530355,0.898494422 L0.851784016,1.49913895 C0.754366048,1.58480302 0.633573079,1.62683817 0.51331136,1.62683817 Z" id="Path"></path>
                            <path d="M13.4323153,1.62683817 C13.3119871,1.62683817 13.1912606,1.58480302 13.0937762,1.49913895 L12.4103231,0.898494422 C12.197491,0.711428016 12.1765731,0.387232703 12.3636395,0.174400672 C12.5507723,-0.0383649529 12.8749676,-0.0592829217 13.0877332,0.127717078 L13.7711864,0.72836161 C13.9840184,0.915428016 14.0049364,1.23962333 13.81787,1.45245536 C13.716534,1.56786942 13.5747567,1.62683817 13.4323153,1.62683817 Z" id="Path"></path>
                        </g>
                        <path d="M14.0317734,19.3153203 C13.4536406,19.3153203 13.1357539,19.0307031 12.9254453,18.8424414 C12.7462148,18.6819375 12.6810703,18.6312031 12.5036328,18.6312031 C12.3261953,18.6312031 12.2610508,18.6820039 12.0818203,18.8424414 C11.8715117,19.0307031 11.553625,19.3153203 10.9754922,19.3153203 C10.397293,19.3153203 10.0794063,19.0307695 9.86909766,18.8424414 C9.68980078,18.6819375 9.62458984,18.6312031 9.44708594,18.6312031 C9.26958203,18.6312031 9.20437109,18.6820039 9.02507422,18.8424414 C8.81476563,19.0307695 8.49687891,19.3153203 7.91867969,19.3153203 C7.63525781,19.3153203 7.405625,19.0856211 7.405625,18.8022656 C7.405625,18.5189102 7.63532422,18.2892109 7.91867969,18.2892109 C8.09618359,18.2892109 8.16139453,18.2384102 8.34069141,18.0779727 C8.551,17.8896445 8.86888672,17.6050938 9.44708594,17.6050938 C10.0252852,17.6050938 10.3431719,17.8896445 10.5534805,18.0779727 C10.7327773,18.2384102 10.7979883,18.2892109 10.9754922,18.2892109 C11.1529297,18.2892109 11.2180742,18.2384102 11.3973047,18.0779727 C11.6076133,17.8897109 11.9255,17.6050938 12.5036328,17.6050938 C13.0817656,17.6050938 13.3996523,17.8897109 13.6099609,18.0779727 C13.7891914,18.2384102 13.8543359,18.2892109 14.0317734,18.2892109 C14.3151953,18.2892109 14.5448281,18.5189102 14.5448281,18.8022656 C14.5448281,19.0856211 14.3151953,19.3153203 14.0317734,19.3153203 Z" id="Path" fill="#DA4A54"></path>
                    </g>
                </g>
            </g>
        </g>
    </g>
</svg>