<?xml version="1.0" encoding="UTF-8"?>
<svg width="54px" height="54px" viewBox="0 0 54 54" version="1.1" xmlns="http://www.w3.org/2000/svg" xmlns:xlink="http://www.w3.org/1999/xlink">
    <title>ic_Arthritis</title>
    <g id="Page-1" stroke="none" stroke-width="1" fill="none" fill-rule="evenodd">
        <g id="Home-Page" transform="translate(-41.000000, -1946.000000)">
            <g id="Group-3-Copy-13" transform="translate(16.000000, 1938.000000)">
                <g id="ic_Arthritis" transform="translate(25.000000, 8.000000)">
                    <circle id="Oval" stroke-opacity="0.3" stroke="#31CCB6" fill-opacity="0.1" fill="#22D2C5" cx="27" cy="27" r="26.5"></circle>
                    <g id="Group" transform="translate(15.003604, 12.195760)" fill-rule="nonzero">
                        <g id="Shape" transform="translate(11.910219, 14.902120) scale(-1, 1) rotate(-180.000000) translate(-11.910219, -14.902120) ">
                            <path d="M13.6867592,29.4230242 C13.2452606,28.2025518 12.1421189,24.9726948 12.1535209,24.9611379 C12.165101,24.949581 12.5485395,25.5335099 13.0072747,26.2576426 C13.4660099,26.9817754 13.8609395,27.5833438 13.884224,27.6009834 C13.9075085,27.6125403 14.1279554,27.1396186 14.3777348,26.5438287 C14.6275141,25.9480387 14.847961,25.463256 14.8655,25.463256 C14.883039,25.463256 15.5102089,25.8954242 16.2592446,26.4209603 C17.0082803,26.9464963 17.6354502,27.3671076 17.6411957,27.3552466 C17.6526868,27.3494681 17.5541056,26.8005141 17.4204464,26.1347742 C17.2867872,25.4748129 17.188206,24.9143019 17.2054426,24.9024409 C17.2229816,24.8848013 17.9953018,24.9842517 18.9242633,25.1244555 C19.8535271,25.2646593 20.6140538,25.369584 20.6140538,25.3522486 C20.6140538,25.3349133 20.091513,24.8148515 19.4468041,24.1901692 C18.8081431,23.5651827 18.3028388,23.0338682 18.3318689,23.0104502 C18.3551534,22.9812538 18.9414998,22.7358212 19.6267298,22.4557177 C20.3119599,22.1753102 20.8868153,21.9359601 20.8986087,21.9301817 C20.9100998,21.9186248 20.2771843,21.5856028 19.4876275,21.1884094 C18.7038163,20.7969946 18.0591074,20.4584982 18.0648529,20.4408587 C18.0648529,20.4232192 18.6164238,19.9268796 19.2844172,19.3310896 C19.9581562,18.741078 20.4749515,18.2447384 20.434128,18.227403 C20.3993524,18.2158461 19.5281487,17.9996099 18.5003036,17.7483988 C17.4782041,17.5032703 16.6768539,17.2928126 16.7234229,17.2928126 C16.8570821,17.2812557 22.2805599,17.631613 22.6349683,17.6723664 L22.9428077,17.7073413 L21.125406,18.9338962 C20.126591,19.611193 19.2847196,20.183565 19.2614351,20.206983 C19.2324051,20.230401 20.2602501,20.5983979 21.5378745,21.0305661 C22.8154989,21.4627344 23.8430416,21.8307313 23.8200594,21.8480667 C23.7967749,21.8714847 22.9258736,22.1868671 21.8804895,22.5487814 C20.8351055,22.9167783 19.9756952,23.2263823 19.9756952,23.2437177 C19.9756952,23.2613572 20.7247308,24.1664471 21.6307102,25.2527982 C22.5424351,26.3391494 23.2739317,27.2442393 23.2624406,27.2561003 C23.2509496,27.2676573 22.0836999,26.9641358 20.6727187,26.572721 C19.2617375,26.1813061 18.0887423,25.8720062 18.0654577,25.8835631 C18.0421732,25.8951201 18.1582934,26.4148777 18.3324737,27.0398641 C18.8725535,29.0313052 18.9768802,29.4342769 18.9596436,29.4342769 C18.9481526,29.4342769 18.1235178,28.7858725 17.1247028,27.9975684 C15.3535677,26.6016133 15.3069986,26.5666384 15.243193,26.7010637 C15.2026719,26.7770961 14.8890869,27.4954504 14.5464719,28.2953114 C14.2038569,29.101255 13.9020654,29.7785517 13.8787809,29.8019697 C13.855194,29.825996 13.7681038,29.6565958 13.6867592,29.4230242 Z" fill="#ED4C54"></path>
                            <path d="M0,28.9966344 C0,28.9789948 0.661945516,28.1730513 1.46904126,27.20379 C3.47816231,24.7744023 5.47004678,22.3389319 6.32945708,21.2583593 C7.11326832,20.2653759 7.34550868,19.8450687 7.57200352,18.9865107 C7.76372276,18.2739349 7.78700728,18.0345848 7.80424388,16.6739087 C7.82178287,15.2955931 7.87984296,15.056243 8.27447014,14.6182964 C8.7679809,14.0574812 9.66216677,13.8239097 10.4229959,14.0459243 C10.8759856,14.174267 11.9328606,14.7116642 12.5424916,15.114636 C13.4194409,15.6985649 14.4820615,16.8490874 15.4633375,18.2800175 C15.9163272,18.9457573 16.0499863,19.2669182 16.142822,19.9034616 C16.2299122,20.4873906 16.1543131,21.0247877 15.9105817,21.5387668 C15.5622211,22.2863175 14.9988568,22.6366749 13.8373526,22.8294931 C12.2403977,23.0980396 11.9095761,23.3608076 8.13506542,27.4373616 L6.66058105,29.0258308 L3.32726656,29.0258308 C1.4980713,29.0258308 0,29.0142739 0,28.9966344 Z" fill="#A5A5A5"></path>
                            <path d="M16.2477535,16.0373653 C15.7599883,15.8621867 15.3069986,15.5875576 14.4185583,14.9160393 C13.570639,14.2737174 12.5488419,13.7305419 11.4396523,13.3449055 C11.0099471,13.1931447 10.5106908,12.9945481 10.3362082,12.9069587 C9.30836309,12.3872011 8.70447767,11.5812575 8.78582228,10.8513463 C8.88470588,10.0338458 9.70903821,9.21604113 11.3059931,8.36934418 C12.2582391,7.86114352 12.5313029,7.51078613 12.6879442,6.59383521 C12.8445855,5.66532734 13.0248137,3.30588943 13.1001104,1.12163019 L13.1409339,0 L15.6378202,0 L18.128961,0 L18.0941854,0.835140053 C18.0709009,1.29072629 18.0476163,3.21799596 18.0476163,5.11029072 C18.0476163,9.19262317 18.0010473,8.80698676 18.825682,11.826386 C18.9185177,12.1767434 18.9360567,12.3695616 18.9127722,13.1405303 C18.8952332,13.7363203 18.8489666,14.1627101 18.7848586,14.3962817 C18.3729948,15.8737436 17.4555244,16.463451 16.2477535,16.0373653 Z" fill="#A5A5A5"></path>
                            <path d="M8.74530119,8.90613302 C8.35611714,8.52080075 8.38514717,8.19355723 8.9137359,7.06645271 C9.11120071,6.63428445 9.30866548,6.13794484 9.34344108,5.96854462 C9.38396217,5.76994795 9.40724669,4.6662614 9.40724669,2.83235954 L9.40724669,0 L9.9297875,0 L10.4523283,0 L10.4465828,0.805943606 C10.4408373,1.24389032 10.4232983,2.19581616 10.4000138,2.91994889 C10.3824748,3.64408163 10.3824748,4.6835968 10.4057593,5.23255083 L10.4523283,6.23131264 L10.7716588,6.89705249 C10.9458391,7.26504936 11.0909893,7.60354569 11.0909893,7.65616011 C11.0909893,7.72033149 10.87024,7.88395325 10.4928494,8.10566375 C10.1617255,8.29848197 9.70903821,8.60200336 9.48828891,8.78326463 C9.26753961,8.9642218 9.05858374,9.11020696 9.01806265,9.11020696 C8.97754155,9.11081229 8.85567582,9.01714036 8.74530119,8.90613302 Z" fill="#A5A5A5"></path>
                        </g>
                    </g>
                </g>
            </g>
        </g>
    </g>
</svg>