<?xml version="1.0" encoding="UTF-8"?>
<svg width="92px" height="92px" viewBox="0 0 92 92" version="1.1" xmlns="http://www.w3.org/2000/svg" xmlns:xlink="http://www.w3.org/1999/xlink">
    <!-- Generator: Sketch 51.2 (57519) - http://www.bohemiancoding.com/sketch -->
    <title>ic_brain</title>
    <desc>Created with Sketch.</desc>
    <defs></defs>
    <g id="ic_brain" stroke="none" stroke-width="1" fill="none" fill-rule="evenodd">
        <g id="101-brain" transform="translate(1.000000, 1.000000)" fill-rule="nonzero">
            <circle id="Oval" fill="#FF5B62" cx="45" cy="45" r="45"></circle>
            <path d="M64.9949414,75.5915625 L61.4898633,60.5691211 C61.4898633,60.5691211 73.4844727,49.0289062 72.1397461,34.2358594 C70.7941406,19.4428125 55.888418,10.1408203 40.7589258,14.1742969 C25.629082,18.2068945 23.1233203,30.3273633 23.0524805,32.315625 C22.9811133,34.3044141 24.8447461,39.3892383 23.4991406,42.8639062 C22.1544141,46.3383984 17.33625,51.7733789 17.7839648,53.3984766 C18.2329102,55.0226953 22.3787109,55.3032422 22.3787109,55.3032422 C22.3787109,55.3032422 22.4274023,56.8749023 21.8763281,57.2087109 C21.3249023,57.5419922 21.6360352,58.8483984 22.5432422,59.5750781 C23.4499219,60.3019336 24.9575977,60.7951758 24.9575977,60.7951758 C24.9575977,60.7951758 23.2196484,61.1875195 23.445,62.4200977 C23.6694727,63.6535547 24.2857617,64.269668 25.5742383,64.3252148 C26.8635937,64.3809375 27.2002148,63.766582 27.423457,64.4385937 C27.6475781,65.1102539 27.7883789,65.1663281 27.7883789,65.1663281 C27.7883789,65.1663281 26.5006055,68.5007227 27.6215625,70.9655273 C28.7432227,73.4315625 30.4794141,73.4331445 32.497207,72.9279492 C34.5148242,72.4225781 38.4368555,71.3021484 38.4368555,71.3021484 L39.5107031,76.7701758 C40.633418,84.7284961 35.2139062,88.8196289 35.0996484,88.9048828 C38.2855078,89.6201367 41.5982812,90 44.9998242,90 C55.0216406,90 64.276875,86.7225586 71.7556641,81.1831641 C71.0344336,80.8356445 65.251582,75.8483789 64.9949414,75.5915625 Z" id="Shape" fill="#FED298"></path>
            <g id="Group" transform="translate(27.949219, 13.183594)" fill="#E8B57F">
                <path d="M0.0420117188,58.4736328 C1.15857422,60.2419922 2.73972656,60.1969922 4.5478125,59.7443555 C6.56542969,59.2389844 10.4874609,58.1185547 10.4874609,58.1185547 L11.5613086,63.586582 C11.9445117,66.3024023 11.565,68.5673437 10.8954492,70.3768359 L10.8961523,70.3757813 C14.6425781,65.0304492 11.8794727,60.9449414 12.3728906,58.9166016 C12.8661328,56.8880859 20.7061523,54.9694336 22.3507617,53.7082031 C23.9957227,52.4473242 25.1738086,48.9665039 25.1738086,48.9665039 C25.1738086,48.9665039 23.5291992,51.4882617 21.7750781,53.0231836 C20.020957,54.5581055 6.39738281,58.5597656 3.79318359,59.4369141 C1.32029297,60.2695898 0.153632812,58.6404492 0.0420117188,58.4736328 Z" id="Shape"></path>
                <path d="M9.08912109,2.23769531 C18.5120508,-1.21464844 29.6722266,0.647753906 36.4415625,7.57072266 C44.5086914,15.8203125 46.3884961,30.8320312 32.3013867,46.7168555 L37.0457227,62.4079687 L33.5406445,47.3855273 C33.5406445,47.3855273 45.5352539,35.8453125 44.1905273,21.0522656 C42.8449219,6.25921875 27.9391992,-3.04277344 12.809707,0.990703125 C11.4725391,1.34683594 10.235918,1.76765625 9.08912109,2.23769531 Z" id="Shape"></path>
                <path d="M18.3164062,4.97109375 C19.0003711,4.62199219 19.7643164,4.43408203 20.5532227,4.43408203 C21.5013867,4.43408203 22.4105273,4.70548828 23.1885352,5.19837891 C23.6446875,5.0990625 24.1117383,5.04878906 24.5824805,5.04878906 C25.9498828,5.04861328 27.2605078,5.47259766 28.3563281,6.24392578 C28.4294531,6.24076172 28.5025781,6.23917969 28.5758789,6.23917969 C30.5796094,6.23917969 32.2955859,7.42447266 33.0945117,9.12603516 C35.0161523,9.59871094 36.4809375,11.1986719 36.8041992,13.1637305 C38.3693555,14.2535742 39.3336914,16.0679883 39.3336914,18.0302344 C39.3336914,18.8769727 39.1552734,19.7080664 38.8114453,20.4730664 C38.8861523,20.885625 38.9235938,21.3048633 38.9235938,21.7249805 C38.9235938,24.8660156 36.8300391,27.572168 33.9213867,28.3867383 C33.4571484,30.2104688 31.9881445,31.745918 29.9596289,31.7455664 C29.7864844,31.7455664 29.6316211,31.7376563 29.4885352,31.7227148 C29.5192969,31.9011328 29.5361719,32.1004687 29.5361719,32.3451563 C29.5361719,34.3750781 27.8977148,36.0515039 25.8474023,36.0515039 C24.4520508,36.0515039 23.1925781,35.2633008 22.5662695,34.0386328 L19.5996094,29.1462891 L19.5823828,29.1155273 C19.5324609,29.0264063 19.4442187,28.8629297 19.3508789,28.7103516 C18.3533203,29.3043164 17.2016016,29.5282617 16.044082,29.5282617 C13.2697266,29.5282617 10.8564258,27.9174023 9.68572266,25.5568359 C9.66867187,25.5570117 9.65179687,25.5570117 9.63509766,25.5570117 C6.96796875,25.5568359 4.71919922,23.7541992 4.01449219,21.2886914 C2.67925781,20.1724805 1.895625,18.5074805 1.895625,16.7371875 C1.895625,14.2906641 3.38185547,12.1552734 5.52585937,11.266875 C5.75367187,8.72085937 7.87060547,6.68302734 10.5025781,6.68267578 C10.5554883,6.68267578 10.6085742,6.68355469 10.6613086,6.68513672 C11.9524219,5.29488281 13.7708789,4.46748047 15.7296094,4.46748047 C16.6238086,4.46765625 17.5000781,4.64044922 18.3164062,4.97109375 Z" id="Shape"></path>
            </g>
            <path d="M55.355625,45.5283984 C55.355625,46.4058984 54.6572461,47.1181641 53.795918,47.1181641 C53.1734766,47.1181641 52.6359375,46.7460352 52.3859766,46.2083203 L49.3903125,41.2674609 C48.8401172,40.2880078 48.0501562,38.8826367 46.3018359,40.0180078 C45.6447656,40.4446289 44.8259766,40.5952734 43.9925977,40.5952734 C41.5056445,40.5952734 39.444082,38.7372656 39.07125,36.3086719 C38.6159766,36.5115234 38.1130664,36.6241992 37.5837891,36.6241992 C35.6626758,36.6240234 34.0815234,35.1397266 33.8839453,33.2346094 C32.7441797,32.5861523 31.9732031,31.3453125 31.9732031,29.9206055 C31.9732031,27.8259961 33.639082,26.1277734 35.6943164,26.1277734 L35.8460156,26.1311133 C35.6770898,25.758457 35.5828711,25.3439648 35.5828711,24.9067969 C35.5828711,23.2920703 36.8669531,21.9828516 38.4510937,21.9828516 C38.8283203,21.9826758 39.1883203,22.057207 39.5180859,22.192207 C40.357793,20.7411328 41.9058984,19.7676562 43.6779492,19.7676562 C44.703457,19.7676562 45.6533789,20.0937305 46.4349023,20.6491992 C46.9511719,20.0861719 47.6861133,19.7339062 48.5020898,19.7339062 C49.3708008,19.7339062 50.1479297,20.1332812 50.6668359,20.7616992 C51.2349609,20.4964453 51.8661914,20.3487891 52.5313477,20.3487891 C53.7595313,20.3486133 54.8724023,20.8520508 55.6820508,21.6675 C55.9485352,21.5838281 56.2311914,21.5390039 56.5242188,21.5390039 C58.0630078,21.5388281 59.3180859,22.7736914 59.3894531,24.3237305 C59.5430859,24.2973633 59.7007617,24.2834766 59.8619531,24.2834766 C61.4241211,24.283125 62.6904492,25.5742383 62.6904492,27.1664648 C62.6904492,27.3243164 62.677793,27.4791797 62.6540625,27.63 C64.1088281,28.1452148 65.1531445,29.5549805 65.1531445,31.2133008 C65.1531445,32.013457 64.9098633,32.7557812 64.4950195,33.3676758 C64.6560352,33.8508984 64.7430469,34.3692773 64.7430469,34.9080469 C64.7430469,37.5560156 62.6370117,39.7031836 60.0391406,39.7031836 L59.8603711,39.6993164 C59.8603711,39.8047852 59.8777734,39.9132422 59.8777734,40.0206445 C60.0553125,41.5079297 59.058457,42.8120508 57.9083203,42.8120508 C56.8429102,42.811875 56.6390039,42.0769336 55.8133594,42.4917773 C55.3018359,42.748418 54.9500977,43.2857812 54.9500977,43.9061133 C54.9499219,44.5549219 55.355625,44.7999609 55.355625,45.5283984 Z" id="Shape" fill="#21D0C3"></path>
            <g id="Group" transform="translate(31.640625, 19.335938)" fill="#FEFEFE">
                <path d="M23.9783203,26.1926367 C23.9783203,26.7020508 23.7744141,27.1652344 23.4451758,27.500625 C23.1148828,27.8370703 22.6587305,28.0455469 22.1551172,28.0455469 C21.7972266,28.0455469 21.4627148,27.9399023 21.1805859,27.7579687 C20.8926563,27.572168 20.6586914,27.3055078 20.510332,26.990332 L17.5201172,22.0600195 C17.2589063,21.5941992 16.9396875,21.0273047 16.5063867,20.7305859 C16.1045508,20.4556641 15.5663086,20.4071484 14.8042969,20.9021484 C14.4483398,21.1333008 14.0510742,21.2893945 13.6325391,21.3866016 C13.2198047,21.4825781 12.7865039,21.5224805 12.3519727,21.5224805 C11.051543,21.5224805 9.86150391,21.0399609 8.94498047,20.2417383 C8.09455078,19.5011719 7.47966797,18.4874414 7.22988281,17.3339648 C7.07660156,17.3874023 6.91927734,17.4315234 6.75878906,17.465625 C6.49371094,17.5216992 6.22054688,17.5514062 5.94263672,17.5514062 C4.91976563,17.5514062 3.98583984,17.1574805 3.27972656,16.5104297 C2.59892578,15.8867578 2.13011719,15.0268359 1.99792969,14.0582812 C1.42910156,13.7088281 0.952207031,13.2175195 0.615410156,12.6335742 C0.268242188,12.0313477 0.0687304687,11.3305078 0.0687304687,10.5848437 C0.0687304687,9.46652344 0.514335937,8.45279297 1.2346875,7.71890625 C1.90582031,7.03476562 2.8153125,6.59337891 3.82535156,6.53537109 C3.79652344,6.44273437 3.77173828,6.34869141 3.75117188,6.25271484 C3.70388672,6.03175781 3.67875,5.80324219 3.67875,5.57085937 C3.67875,4.69283203 4.02890625,3.89601562 4.59509766,3.31910156 C5.16181641,2.74130859 5.94509766,2.38359375 6.81011719,2.38359375 C7.01244141,2.38359375 7.21107422,2.40345703 7.40443359,2.44142578 C7.52660156,2.46550781 7.64683594,2.49662109 7.76478516,2.53546875 C8.20652344,1.84201172 8.80716797,1.26193359 9.51416016,0.850078125 C10.2582422,0.416425781 11.1197461,0.168398437 12.0371484,0.168398437 C12.56625,0.168398437 13.0786523,0.251894531 13.5616992,0.406230469 C13.8684375,0.467578125 14.482793,0.794003906 14.7608789,0.973652344 C15.014707,0.734414062 15.3082617,0.537714844 15.6301172,0.394980469 C16.0078711,0.2278125 16.4244727,0.135 16.8616406,0.135 C17.3267578,0.135 17.769375,0.240292969 18.1662891,0.42890625 C18.5171484,0.595546875 18.8323242,0.827050781 19.0959961,1.10759766 C19.3447266,1.00441406 19.6064648,0.921269531 19.8783984,0.861152344 C20.2078125,0.788378906 20.5470703,0.749882812 20.8908984,0.749882812 C21.5282812,0.749882812 22.1373633,0.878378906 22.6935352,1.11111328 C23.2219336,1.33224609 23.7030469,1.648125 24.1156055,2.03765625 C24.2149219,2.01199219 24.3156445,1.99125 24.4170703,1.97595703 C24.5696484,1.95275391 24.725918,1.94044922 24.8837695,1.94044922 C25.7218945,1.94044922 26.4835547,2.27601562 27.0458789,2.82287109 C27.545625,3.30855469 27.8878711,3.96175781 27.9857812,4.6940625 C28.0638281,4.68808594 28.1425781,4.68492187 28.2215039,4.68492187 C29.0752734,4.68492187 29.8488867,5.03806641 30.40875,5.60865234 C30.9673828,6.17783203 31.3131445,6.96427734 31.3131445,7.83105469 C31.3131445,7.91490234 31.3094531,8.00033203 31.3025977,8.0859375 L31.2994336,8.12337891 C32.0030859,8.41675781 32.6061914,8.90982422 33.04125,9.53314453 C33.5035547,10.1960156 33.7756641,11.0058398 33.7756641,11.8782422 C33.7756641,12.2948437 33.7125586,12.6998437 33.5956641,13.0828711 C33.4880859,13.4353125 33.3344531,13.7670117 33.1423242,14.0709375 C33.2091211,14.2897852 33.2618555,14.5161914 33.2989453,14.7478711 C33.3427148,15.0198047 33.3653906,15.2957813 33.3653906,15.5728125 C33.3653906,16.9676367 32.8095703,18.2320313 31.9116797,19.1473242 C31.034707,20.0413477 29.8307812,20.6029688 28.4990625,20.6300391 L28.500293,20.6727539 C28.5140039,20.7943945 28.5210352,20.9142773 28.5210352,21.0311719 C28.5210352,21.7204102 28.29375,22.3558594 27.9316406,22.8357422 C27.5605664,23.3279297 27.0448242,23.6598047 26.4805664,23.7273047 L26.2680469,23.7401367 C25.7394727,23.7401367 25.4077734,23.5826367 25.1201953,23.4464063 C24.8524805,23.3193164 24.6360937,23.2171875 24.2898047,23.3912109 C24.0746484,23.4991406 23.8927148,23.668418 23.7658008,23.8763672 C23.643457,24.0769336 23.5726172,24.3154688 23.5726172,24.5712305 C23.5726172,24.8326172 23.657168,25.0273828 23.7440039,25.2268945 C23.8593164,25.4914453 23.9783203,25.7649609 23.9783203,26.1926367 Z M23.0709375,27.1328906 C23.3063086,26.8933008 23.4520313,26.5603711 23.4520313,26.1928125 C23.4520313,25.870957 23.3558789,25.65 23.2630664,25.4360742 C23.1532031,25.1840039 23.0465039,24.9380859 23.0465039,24.5708789 C23.0465039,24.2165039 23.1461719,23.8844531 23.3179102,23.6025 C23.4952734,23.3119336 23.7512109,23.0749805 24.0553125,22.9224023 C24.6309961,22.6332422 24.9493359,22.7842383 25.3443164,22.9714453 C25.5814453,23.0837695 25.8551367,23.2136719 26.2680469,23.2136719 C26.7713086,23.2136719 27.2123438,22.9160742 27.5120508,22.5189844 C27.8085938,22.1262891 27.9947461,21.6024609 27.9947461,21.0311719 C27.9947461,20.9304492 27.9891211,20.8284961 27.9775195,20.7275977 C27.9754102,20.7138867 27.9740039,20.6998242 27.9740039,20.6854102 C27.9740039,20.6390039 27.9701367,20.5908398 27.9662695,20.5435547 C27.9650391,20.5277344 27.952207,20.364082 27.9574805,20.364082 L27.9574805,20.3588086 C27.9601172,20.2143164 28.0801758,20.0991797 28.2248438,20.1018164 L28.3818164,20.1051563 C29.6323242,20.0578711 30.6485156,19.685918 31.5372656,18.7792383 C32.3412891,17.9597461 32.8389258,16.8257813 32.8389258,15.5728125 C32.8389258,15.3163477 32.8187109,15.0681445 32.7807422,14.8299609 C32.741543,14.5858008 32.6824805,14.3462109 32.6054883,14.1157617 C32.6056641,14.1157617 32.6211328,13.9095703 32.6374805,13.8856641 C32.8340039,13.595625 32.9895703,13.2742969 33.0941602,12.9309961 C33.1948828,12.6010547 33.249375,12.2475586 33.249375,11.8785938 C33.249375,11.1151758 33.0129492,10.4092383 32.6116406,9.83355469 C32.199082,9.24222656 31.6114453,8.78537109 30.9260742,8.54261719 L30.92625,8.54191406 C30.8095312,8.50078125 30.735,8.38142578 30.7545117,8.2546875 C30.7640039,8.1928125 30.7724414,8.12267578 30.7785937,8.04515625 C30.784043,7.97660156 30.7870312,7.90488281 30.7870312,7.83123047 C30.7870312,7.10613281 30.4991016,6.45011719 30.0346875,5.97673828 C29.5709766,5.50388672 28.9295508,5.21121094 28.2216797,5.21121094 C28.1487305,5.21121094 28.0764844,5.214375 28.0063477,5.22035156 L28.005293,5.22035156 C27.932168,5.22632813 27.8611523,5.23564453 27.793125,5.24742188 L27.793125,5.24724609 C27.7825781,5.24882812 27.7713281,5.25023438 27.7602539,5.25058594 C27.6157617,5.25673828 27.4928906,5.14441406 27.4867383,4.99992188 C27.4543945,4.29257813 27.1506445,3.65677734 26.6799023,3.19939453 C26.2132031,2.74552734 25.5803906,2.46691406 24.8835938,2.46691406 C24.7510547,2.46691406 24.6211523,2.47693359 24.495293,2.49626953 C24.3657422,2.51595703 24.2398828,2.5453125 24.1196484,2.58310547 L24.1196484,2.58292969 C24.0292969,2.61087891 23.9266406,2.58890625 23.8554492,2.51753906 C23.4673242,2.12642578 23.0048438,1.81142578 22.4920898,1.59697266 C21.9991992,1.39078125 21.4581445,1.276875 20.8908984,1.276875 C20.5790625,1.276875 20.2779492,1.31044922 19.9916016,1.37373047 C19.697168,1.43894531 19.4106445,1.53755859 19.1371289,1.66517578 L19.1371289,1.665 C19.0314844,1.71421875 18.9014063,1.68820313 18.8237109,1.59433594 C18.583418,1.30341797 18.2824805,1.06646484 17.942168,0.904746094 C17.6148633,0.749179688 17.2485352,0.66234375 16.8618164,0.66234375 C16.4990039,0.66234375 16.1539453,0.739160156 15.8419336,0.877324219 C15.5170898,1.02111328 15.2265234,1.231875 14.9878125,1.49220703 L14.9876367,1.49203125 C14.8995703,1.58800781 14.7512109,1.60576172 14.6424023,1.52841797 C14.2667578,1.26158203 13.8492773,1.05011719 13.4026172,0.907207031 L13.4026172,0.90703125 C12.9738867,0.769921875 12.5149219,0.695917969 12.0373242,0.695917969 C11.2144922,0.695917969 10.4431641,0.917753906 9.77748047,1.30552734 C9.08701172,1.70806641 8.50869141,2.29042969 8.10439453,2.98916016 L8.10421875,2.98916016 C8.03970703,3.10095703 7.9003125,3.15052734 7.77779297,3.10025391 C7.62837891,3.03890625 7.46947266,2.99109375 7.30423828,2.95857422 C7.14550781,2.92746094 6.98044922,2.91128906 6.81046875,2.91128906 C6.09152344,2.91128906 5.44042969,3.20871094 4.96951172,3.68841797 C4.49753906,4.16953125 4.20521484,4.83591797 4.20521484,5.57208984 C4.20521484,5.77019531 4.22595703,5.96232422 4.26515625,6.14513672 C4.30541016,6.33375 4.36605469,6.51621094 4.44410156,6.68882813 C4.44392578,6.68882813 4.46695313,6.79201172 4.46677734,6.80203125 C4.46414063,6.94652344 4.34408203,7.06166016 4.19941406,7.05902344 L4.06880859,7.05585937 L4.05298828,7.0565625 C3.09849609,7.0565625 2.23417969,7.45119141 1.60875,8.08857422 C0.982617188,8.72683594 0.59484375,9.6103125 0.59484375,10.5866016 C0.59484375,11.240332 0.7678125,11.8515234 1.06945313,12.3742969 C1.38058594,12.9141211 1.82970703,13.3623633 2.36724609,13.6694531 C2.44089844,13.7095313 2.4946875,13.7840625 2.50365234,13.8738867 C2.59611328,14.765625 3.01376953,15.5585742 3.63287109,16.1258203 C4.24423828,16.6862109 5.05423828,17.0272266 5.94228516,17.0272266 C6.18609375,17.0272266 6.42304688,17.0019141 6.64945313,16.9539258 C6.87744141,16.9057617 7.09716797,16.8343945 7.30441406,16.7435156 C7.33060547,16.7292773 7.35943359,16.7194336 7.39054688,16.7146875 C7.53398438,16.6930664 7.66828125,16.7920313 7.68972656,16.9356445 C7.86796875,18.0952734 8.45244141,19.1183203 9.28951172,19.8472852 C10.1132227,20.5648242 11.1830273,20.9983008 12.3514453,20.9983008 C12.7504688,20.9983008 13.144043,20.9624414 13.5126563,20.8768359 C13.8758203,20.7924609 14.2173633,20.6592188 14.5177734,20.4641016 C15.5033789,19.8239062 16.2344531,19.9103906 16.801875,20.2988672 C17.3376563,20.6655469 17.6895703,21.2915039 17.9780273,21.8051367 L17.9773242,21.8054883 L20.9582227,26.7213867 C20.9677148,26.7347461 20.9761523,26.7489844 20.9831836,26.7642773 C21.0888281,26.9917383 21.256875,27.1842188 21.4639453,27.3179883 C21.6632813,27.4466602 21.9007617,27.521543 22.1544141,27.521543 C22.5124805,27.5192578 22.8366211,27.3714258 23.0709375,27.1328906 Z" id="Shape"></path>
                <path d="M32.5149609,13.9139648 C32.6223633,13.8169336 32.788125,13.8253711 32.8849805,13.9325977 C32.9820117,14.04 32.9735742,14.2057617 32.8663477,14.3026172 C32.5673437,14.5729687 32.2196484,14.7895312 31.8396094,14.9366602 C31.4713477,15.0788672 31.0730273,15.1572656 30.6588867,15.1572656 C29.7400781,15.1572656 28.9079297,14.7772266 28.3057031,14.1635742 C27.8460352,13.695293 27.5204883,13.0904297 27.3925195,12.4147266 C27.3649219,12.4449609 27.3369727,12.4744922 27.3083203,12.5038477 C26.7558398,13.0670508 25.9924219,13.415625 25.1491992,13.415625 L25.1491992,13.4145703 C24.8356055,13.4143945 24.5330859,13.3664062 24.2499023,13.2776367 C23.9559961,13.1857031 23.6807227,13.0492969 23.4318164,12.8766797 C23.3126367,12.7944141 23.2827539,12.6309375 23.3650195,12.5117578 C23.4472852,12.3925781 23.6107617,12.3626953 23.7299414,12.4449609 C23.9352539,12.587168 24.1632422,12.7001953 24.4063477,12.7763086 C24.6420703,12.8503125 24.8923828,12.8905664 25.149375,12.8905664 L25.149375,12.8895117 C25.8465234,12.8895117 26.4779297,12.6014062 26.9342578,12.1361133 C27.3918164,11.6695898 27.675,11.0239453 27.675,10.3099219 C27.675,10.1647266 27.7929492,10.0467773 27.9381445,10.0467773 C28.0833398,10.0467773 28.2012891,10.1647266 28.2012891,10.3099219 C28.2012891,10.8263672 28.0768359,11.3138086 27.8571094,11.7427148 L27.8586914,11.7724219 C27.8586914,12.5632617 28.1728125,13.2788672 28.6799414,13.7958398 C29.1860156,14.3117578 29.8861523,14.6313281 30.6588867,14.6313281 C31.0092188,14.6313281 31.3435547,14.5662891 31.6506445,14.4478125 C31.9710937,14.3233594 32.2639453,14.1408984 32.5149609,13.9139648 Z M2.7534375,14.7202734 C2.83376953,14.8406836 2.80160156,15.0038086 2.68136719,15.0841406 C2.56095703,15.1644727 2.39783203,15.1323047 2.3175,15.0120703 C1.93394531,14.4386719 1.81494141,13.7610352 1.93166016,13.1299805 C2.04925781,12.4968164 2.40416016,11.9091797 2.96701172,11.5182422 C3.08619141,11.435625 3.25037109,11.4649805 3.33298828,11.5841602 C3.41560547,11.7033398 3.38625,11.8675195 3.26707031,11.9501367 C2.82111328,12.2600391 2.54039063,12.7244531 2.44757813,13.2247266 C2.35441406,13.726582 2.44916016,14.2653516 2.7534375,14.7202734 Z M27.5605664,22.5474609 C27.6679687,22.4504297 27.8337305,22.4588672 27.9305859,22.5660938 C28.0276172,22.6734961 28.0191797,22.8392578 27.9119531,22.9361133 C27.6644531,23.1602344 27.3763477,23.3400586 27.0611719,23.4620508 C26.7554883,23.5803516 26.4251953,23.6452148 26.0818945,23.6452148 C25.3200586,23.6452148 24.6304687,23.3303906 24.13125,22.8215039 C23.6332617,22.3136719 23.3247656,21.6126562 23.3247656,20.8399219 C23.3247656,20.6947266 23.4427148,20.5767773 23.5879102,20.5767773 C23.7331055,20.5767773 23.8510547,20.6947266 23.8510547,20.8399219 C23.8510547,21.4708008 24.1011914,22.0415625 24.5054883,22.453418 C24.9087305,22.8642187 25.465957,23.11875 26.0818945,23.11875 C26.3615625,23.11875 26.6282227,23.0670703 26.872207,22.9725 C27.1272656,22.8738867 27.3605273,22.7285156 27.5605664,22.5474609 Z M25.6394531,16.4098828 C25.7319141,16.2980859 25.8978516,16.2826172 26.0094727,16.3750781 C26.0574609,16.4149805 26.0875195,16.4685938 26.0991211,16.5251953 L26.109668,16.4327344 C26.1277734,16.2892969 26.259082,16.1876953 26.4026953,16.2058008 C26.5461328,16.2239063 26.6477344,16.3552148 26.6298047,16.4988281 C26.5292578,17.2826367 26.7503906,18.0342773 27.1886133,18.6148828 C27.6257812,19.1942578 28.2795117,19.6040039 29.0446875,19.7057813 C29.3913281,19.7516602 29.7314648,19.7310938 30.0519141,19.6539258 C30.3844922,19.5735938 30.6977344,19.4310352 30.9763477,19.2385547 C31.0955273,19.1562891 31.2590039,19.1863477 31.3412695,19.3053516 C31.4235352,19.4245313 31.3934766,19.5880078 31.2744727,19.6702734 C30.9441797,19.8987891 30.5720508,20.0677148 30.1756641,20.1636914 C29.7935156,20.2559766 29.3886914,20.2805859 28.9770117,20.225918 C28.0650586,20.1044531 27.2879297,19.618418 26.7695508,18.9314648 C26.2966992,18.3048047 26.0383008,17.5097461 26.0878711,16.6705664 C26.0778516,16.6969336 26.0634375,16.7220703 26.0444531,16.7449219 C25.7647852,17.0825977 25.4237695,17.3708789 25.0359961,17.5902539 C24.6614063,17.8022461 24.2433984,17.9499023 23.7963867,18.0159961 C23.1797461,18.1066992 22.5755859,18.0330469 22.0276758,17.8275586 C21.4602539,17.6146875 20.9538281,17.2596094 20.5560352,16.7999414 C20.4612891,16.6904297 20.473418,16.5248438 20.5827539,16.4300977 C20.6922656,16.3353516 20.8578516,16.3474805 20.9525977,16.4568164 C21.2932617,16.8505664 21.7262109,17.1541406 22.2106641,17.3358984 C22.6768359,17.5108008 23.1924023,17.5733789 23.7199219,17.4956836 C24.1025977,17.4392578 24.459082,17.3135742 24.7768945,17.13375 C25.1068359,16.9472461 25.3988086,16.7002734 25.6394531,16.4098828 Z M17.3522461,10.2854883 C17.2756055,10.162793 17.3128711,10.00125 17.4355664,9.92460938 C17.5582617,9.84796875 17.7198047,9.88523438 17.7964453,10.0079297 L17.838457,10.0764844 C17.8702734,10.025332 17.9194922,9.98472656 17.9811914,9.96503906 C18.493418,9.79927734 18.8919141,9.43611328 19.1211328,8.98453125 C19.3514062,8.53101563 19.4120508,7.98732422 19.2483984,7.46226563 C19.1747461,7.22548828 19.0608398,7.0115625 18.9175781,6.82716797 C18.7681641,6.63486328 18.5881641,6.47507813 18.3890039,6.35414063 C18.2652539,6.27943359 18.2258789,6.11824219 18.3007617,5.99449219 C18.3754687,5.87074219 18.5366602,5.83154297 18.6604102,5.90625 C18.9170508,6.06199219 19.1464453,6.26431641 19.3329492,6.50443359 C19.4166211,6.6121875 19.492207,6.72785156 19.5586523,6.85089844 C19.6447852,6.65630859 19.7551758,6.47455078 19.8854297,6.30931641 C20.2823437,5.80623047 20.8680469,5.45695313 21.5470898,5.38154297 C21.8545312,5.34761719 22.1554687,5.37275391 22.438125,5.44763672 C22.732207,5.52550781 23.0069531,5.65734375 23.2488281,5.83242188 C23.3664258,5.91732422 23.3922656,6.08185547 23.3073633,6.19945313 C23.2224609,6.31705078 23.0579297,6.34289063 22.940332,6.25798828 C22.7492578,6.11982422 22.53375,6.01611328 22.3043555,5.95511719 C22.0826953,5.89658203 21.8462695,5.87707031 21.6043945,5.90361328 C21.0698437,5.96302734 20.6087695,6.23794922 20.2964062,6.63398438 C19.9829883,7.03125 19.818457,7.55138672 19.8768164,8.09964844 C19.8813867,8.14183594 19.8755859,8.18244141 19.8615234,8.21970703 C19.8404297,8.57214844 19.7462109,8.91316406 19.5899414,9.22130859 C19.2991992,9.79365234 18.7933008,10.2540234 18.1415039,10.4649609 C18.1079297,10.4756836 18.0738281,10.4791992 18.0407812,10.4767383 C18.1267383,10.6797656 18.1931836,10.8924609 18.237832,11.1118359 C18.3155273,11.4925781 18.327832,11.8940625 18.264375,12.3009961 L18.2612109,12.3208594 L18.2608594,12.3229688 L18.2612109,12.3229688 C18.1168945,13.2136523 17.6329687,13.9638867 16.966582,14.4567773 C16.2989648,14.9503711 15.4473047,15.1869727 14.5683984,15.0503906 L14.5682227,15.0512695 L14.5494141,15.0482813 C14.4059766,15.0266602 14.3070117,14.8927148 14.328457,14.7491016 C14.3499023,14.6054883 14.4840234,14.5066992 14.6276367,14.5281445 L14.6464453,14.5311328 L14.6462695,14.5320117 L14.6473242,14.5321875 C15.3822656,14.6466211 16.0950586,14.4486914 16.6542187,14.0354297 C17.2146094,13.6211133 17.621543,12.9895313 17.7433594,12.2389453 L17.7437109,12.2389453 L17.7463477,12.2210156 C17.7999609,11.8775391 17.7895898,11.5381055 17.7238477,11.2166016 C17.6559961,10.8826172 17.5283789,10.5670898 17.3522461,10.2854883 Z M12.719707,9.14994141 C12.719707,9.00474609 12.8376562,8.88679687 12.9828516,8.88679687 C13.1280469,8.88679687 13.2459961,9.00474609 13.2459961,9.14994141 C13.2459961,9.55300781 13.1702344,9.95748047 13.0215234,10.3422656 C12.8766797,10.717207 12.6625781,11.0721094 12.3829102,11.3855273 L12.3753516,11.3936133 L12.3394922,11.4329883 L12.3310547,11.4419531 C11.7191602,12.0986719 10.9059961,12.4516406 10.0780664,12.491543 C9.68677734,12.5107031 9.29267578,12.4597266 8.91457031,12.3382617 C9.03796875,12.5834766 9.13359375,12.8439844 9.19828125,13.1150391 C9.29548828,13.5223242 9.32291016,13.9543945 9.26912109,14.3947266 L9.26701172,14.41125 L9.26279297,14.435332 C9.135,15.3929883 8.64298828,16.2116016 7.94794922,16.7630273 C7.24517578,17.3204297 6.33410156,17.6066016 5.38119141,17.4900586 L5.37328125,17.4890039 L5.36642578,17.488125 C5.22246094,17.4710742 5.11927734,17.340293 5.13632813,17.1961523 C5.15337891,17.0521875 5.28416016,16.9490039 5.42830078,16.9660547 L5.43585938,16.9669336 L5.44517578,16.9679883 C6.25306641,17.0667773 7.025625,16.8245508 7.62134766,16.3520508 C8.21478516,15.8814844 8.63490234,15.1825781 8.74388672,14.3655469 L8.74529297,14.3474414 L8.74740234,14.330918 C8.79328125,13.9543945 8.76990234,13.5845508 8.68693359,13.2365039 C8.60080078,12.874043 8.45033203,12.5351367 8.24853516,12.2350781 C8.20388672,12.168457 8.19404297,12.0888281 8.21425781,12.0171094 C8.04955078,11.9165625 7.86251953,11.7836719 7.72242188,11.650957 L7.68304688,11.6152734 C7.57564453,11.5177148 7.56773438,11.3516016 7.66546875,11.2441992 C7.76302734,11.1367969 7.92914063,11.1288867 8.03654297,11.2266211 L8.07697266,11.2633594 L8.07960938,11.2656445 C8.64527344,11.7699609 9.35595703,12.0014648 10.053457,11.9673633 C10.7479688,11.9337891 11.4310547,11.6368945 11.9460938,11.0849414 L11.9510156,11.0794922 L11.9879297,11.0388867 L11.9902148,11.03625 C12.2289258,10.7687109 12.410332,10.4684766 12.5323242,10.1533008 C12.65625,9.83162109 12.7195313,9.49148438 12.719707,9.14994141 Z" id="Shape"></path>
            </g>
        </g>
    </g>
</svg>