<?xml version="1.0" encoding="UTF-8"?>
<svg width="72px" height="72px" viewBox="0 0 72 72" version="1.1" xmlns="http://www.w3.org/2000/svg" xmlns:xlink="http://www.w3.org/1999/xlink">
    <!-- Generator: Sketch 51.2 (57519) - http://www.bohemiancoding.com/sketch -->
    <title>cardio</title>
    <desc>Created with Sketch.</desc>
    <defs></defs>
    <g id="cardio" stroke="none" stroke-width="1" fill="none" fill-rule="evenodd">
        <g fill-rule="nonzero">
            <circle id="Oval" fill="#21D0C3" cx="35.9998594" cy="35.9998594" r="35.9998594"></circle>
            <path d="M28.9627031,10.555875 C34.1322187,10.555875 38.3229844,13.5482344 38.3229844,18.91125 C38.3229844,13.5482344 42.5140313,10.555875 47.6836875,10.555875 C52.8533438,10.555875 57.0439687,14.9034375 57.0439687,20.2665938 C57.0439687,27.2077031 42.9830156,40.0277813 38.323125,45.3455156 C33.663375,40.0279218 19.6025625,27.2077031 19.6025625,20.2665938 C19.6022813,14.9035782 23.7934687,10.555875 28.9627031,10.555875 Z" id="Shape" fill="#FF5B62"></path>
            <path d="M16.3290938,26.6291718 C16.1481094,26.6291718 16.0007344,26.4822187 16.0007344,26.3008125 C16.0007344,26.1198282 16.1479687,25.9725938 16.3290938,25.9725938 L27.9029531,25.9725938 L30.0007969,20.8892813 C30.0692813,20.7220782 30.2608125,20.6420625 30.4280156,20.7109687 C30.5136562,20.746125 30.5762344,20.813625 30.607875,20.8935 L30.6088594,20.8932187 L33.8034375,28.9569375 L36.6100313,24.204375 C36.7021406,24.0484218 36.903375,23.9969531 37.0590469,24.0887813 C37.1098125,24.118875 37.1498906,24.1607813 37.1771718,24.2087344 L38.8272656,26.7388594 L41.1861094,24.2305313 C41.3097187,24.0990469 41.5171406,24.0925782 41.6490469,24.2166094 C41.6739375,24.2402344 41.6943282,24.2665313 41.7100782,24.2950782 L41.7103594,24.2947969 L42.6522656,25.9749844 L59.2382813,25.9749844 C59.4195469,25.9749844 59.5665,26.1219375 59.5665,26.3033438 C59.5665,26.48475 59.4195469,26.6315625 59.2382813,26.6315625 L42.4603125,26.6315625 L42.4603125,26.631 C42.3459844,26.631 42.2341875,26.5705313 42.1744218,26.4635156 L41.3566875,25.0046718 L39.0189375,27.4906406 L39.0186562,27.4903594 C39.0009375,27.5090625 38.98125,27.5259375 38.9584687,27.5405625 C38.806875,27.6388594 38.6038125,27.5959687 38.505375,27.4440938 L36.9054844,24.9908906 L34.0319531,29.8565156 C33.9965156,29.9219062 33.9388594,29.9754844 33.8644687,30.0047344 C33.696,30.0711094 33.5051718,29.9885625 33.4387969,29.8199531 L30.2963906,21.8871562 L28.4339531,26.4006562 C28.3914844,26.5334062 28.2674531,26.6288906 28.1210625,26.6288906 L16.3286718,26.6288906 L16.3290938,26.6291718 Z M37.1770313,24.2083125 C37.2331406,24.3073125 37.2365156,24.4324687 37.1742187,24.5375156 L37.1770313,24.2083125 Z" id="Shape" fill="#FEFEFE"></path>
            <path d="M35.6608125,42.6715313 C39.9519844,43.9167656 47.8657969,45.219375 47.8657969,45.219375 C47.8657969,45.219375 47.4186094,48.0640782 45.0232031,48.6120938 C42.6276562,49.1599687 36.2195156,47.9023594 36.2195156,47.9023594 C36.2195156,47.9023594 35.0512031,49.051125 37.1122031,49.4340469 C39.1733438,49.8173906 49.2620625,49.5992813 49.2620625,49.5992813 C49.2620625,49.5992813 59.6195156,44.6920313 61.4029218,44.0343282 C63.1863282,43.3770469 64.2448125,45.0189844 64.2448125,45.0189844 C64.2448125,45.0189844 52.326,54.4559062 51.2112656,55.2777187 C50.0963906,56.0988282 31.5485156,57.6964687 31.5485156,57.6964687 L26.05275,58.2551718 L23.8798125,60.5794218 L22.9044375,61.9935469 L12.9916406,53.8446094 L20.8996875,48.2291718 C24.017625,42.99975 31.3699218,41.4268594 35.6615156,42.6719531 L35.6608125,42.6715313 Z" id="Shape" fill="#FED298"></path>
            <path d="M62.6232656,46.3013438 C59.3249062,48.9105 52.0689375,54.6449062 51.2107031,55.2771562 C50.0958282,56.0982656 31.5479531,57.6959062 31.5479531,57.6959062 L26.0521875,58.2546094 L23.87925,60.5788594 L22.903875,61.9929844 L21.9972656,61.2475313 C24.2670938,59.03775 25.9133906,57.6032344 25.5099375,57.8292187 C25.106625,58.0552031 49.0231406,55.7926875 50.8547813,54.84375 C52.6868438,53.8946718 61.3981406,46.8749531 61.7805,46.3966875 C62.1631406,45.9185625 62.6225625,46.3012031 62.6225625,46.3012031 L62.6228438,46.3012031 L62.6232656,46.3013438 Z" id="Shape" fill="#F0BA7D"></path>
            <g id="Group" transform="translate(10.968750, 44.859375)" fill="#FFFFFF">
                <path d="M33.696,0.135703125 L33.4764844,1.19545313 L35.9433282,1.34184375 C36.1240313,1.1356875 36.2556562,0.890718752 36.1736718,0.47925 L33.6962813,0.135703125 L33.696,0.135703125 Z" id="Shape"></path>
                <path d="M51.3804375,0.937265624 L51.6833438,1.25732813 L53.0070469,0.311625 C53.0947969,0.12290625 52.6824844,0.065671875 52.6824844,0.065671875 L51.3804375,0.937265624 Z" id="Shape"></path>
                <polygon id="Shape" points="2.81601562 5.63723438 12.6423282 18.1033594 10.4747344 20.3575782 0.0106875 7.3940625 2.8164375 5.63751562"></polygon>
            </g>
            <path d="M6.18342187,56.1787031 L10.9787344,52.2531562 L22.6715625,66.357 L20.4432187,68.4735469 C14.6695782,65.7026718 9.74939064,61.4370938 6.18370313,56.1788438 L6.18342187,56.1787031 Z" id="Shape" fill="#0F7986"></path>
        </g>
    </g>
</svg>