<?xml version="1.0" encoding="UTF-8"?>
<svg width="20px" height="21px" viewBox="0 0 20 21" version="1.1" xmlns="http://www.w3.org/2000/svg" xmlns:xlink="http://www.w3.org/1999/xlink">
    <title>ic_dietary</title>
    <g id="Page-1" stroke="none" stroke-width="1" fill="none" fill-rule="evenodd">
        <g id="Home-Page" transform="translate(-69.000000, -363.000000)" fill="#FFF" fill-rule="nonzero">
            <g id="Option-1-Copy" transform="translate(16.000000, 342.000000)">
                <g id="ic_dietary" transform="translate(53.000000, 21.000000)">
                    <path d="M4.92653061,15.7795918 C5.88979592,15.7795918 6.81428571,15.5040816 7.60612245,14.9897959 C7.58163265,14.7530612 7.56734694,14.5142857 7.56734694,14.2755102 C7.56734694,14.2204082 7.56734694,14.1673469 7.56938776,14.1122449 C7.57755102,13.7285714 7.62040816,13.3530612 7.69387755,12.9836735 C7.77959184,12.5571429 7.91020408,12.1387755 8.08163265,11.7326531 C8.41020408,10.955102 8.87959184,10.2571429 9.48163265,9.65714286 C9.51020408,9.62857143 9.54285714,9.59795918 9.57142857,9.56938776 L5.43877551,5.44081633 L8.4,2.47959184 C9.05510204,1.8244898 9.9244898,1.46530612 10.8510204,1.46530612 C11.777551,1.46530612 12.6469388,1.8244898 13.3020408,2.47959184 C13.9571429,3.13469388 14.3163265,4.00408163 14.3163265,4.93061224 C14.3163265,5.85714286 13.9571429,6.72653061 13.3020408,7.38163265 L12.8081633,7.8755102 C13.1857143,7.8 13.5714286,7.75918367 13.9632653,7.75102041 C14.0102041,7.75102041 14.055102,7.74897959 14.1020408,7.74897959 C14.3591837,7.74897959 14.6163265,7.76326531 14.8693878,7.79387755 C15.4632653,6.96326531 15.7836735,5.97142857 15.7836735,4.93265306 C15.7836735,3.61428571 15.2714286,2.37959184 14.3408163,1.44693878 C13.4102041,0.514285714 12.1714286,0 10.855102,0 C9.53673469,0 8.30204082,0.512244898 7.36938776,1.44285714 L1.44285714,7.36734694 C0.512244898,8.29795918 0,9.53469388 0,10.8530612 C0,12.1714286 0.512244898,13.4061224 1.44285714,14.3387755 C2.37346939,15.2673469 3.6122449,15.7795918 4.92653061,15.7795918 Z" id="Path"></path>
                    <path d="M14.3693878,8.38163265 C14.2795918,8.37755102 14.1897959,8.3755102 14.0979592,8.3755102 C13.822449,8.3755102 13.5530612,8.39387755 13.2857143,8.43265306 C12.7918367,8.5 12.3204082,8.62857143 11.8714286,8.81020408 C11.177551,9.09183673 10.5469388,9.50408163 10.0142857,10.0163265 C9.42040816,10.5857143 8.94489796,11.277551 8.63061224,12.0510204 C8.44897959,12.4979592 8.31836735,12.9714286 8.25306122,13.4653061 C8.21836735,13.7306122 8.19591837,14 8.19591837,14.277551 C8.19591837,14.3653061 8.19795918,14.4510204 8.20204082,14.5387755 C8.25918367,15.8408163 8.73673469,17.0346939 9.50408163,17.9836735 L17.8020408,9.68571429 C16.8571429,8.91836735 15.6673469,8.43877551 14.3693878,8.38163265 Z" id="Path"></path>
                    <path d="M18.6897959,10.5714286 L10.3918367,18.8693878 C11.4040816,19.6877551 12.6938776,20.1795918 14.0979592,20.1795918 C17.3591837,20.1795918 20,17.5387755 20,14.277551 C20,12.8734694 19.5081633,11.5836735 18.6897959,10.5714286 Z" id="Path"></path>
                </g>
            </g>
        </g>
    </g>
</svg>