<?xml version="1.0" encoding="UTF-8"?>
<svg width="54px" height="54px" viewBox="0 0 54 54" version="1.1" xmlns="http://www.w3.org/2000/svg" xmlns:xlink="http://www.w3.org/1999/xlink">
    <title>ic_Depression</title>
    <g id="Page-1" stroke="none" stroke-width="1" fill="none" fill-rule="evenodd">
        <g id="Home-Page" transform="translate(-281.000000, -1816.000000)">
            <g id="Group-3-Copy-12" transform="translate(256.000000, 1808.000000)">
                <g id="ic_Depression" transform="translate(25.000000, 8.000000)">
                    <circle id="Oval" stroke-opacity="0.3" stroke="#FB7B76" fill-opacity="0.1" fill="#FB7B76" cx="27" cy="27" r="26.5"></circle>
                    <g id="depression" transform="translate(12.000000, 12.000000)" fill-rule="nonzero">
                        <path d="M20.2822461,10.9934079 C19.6253548,10.6572037 18.9679462,11.6554717 18.9679462,11.6554717 L18.9270844,11.6502993 C19.0113791,10.1014576 19.0113791,8.54917765 18.9270844,7.00033597 C18.6203627,0.348664332 10.9616301,0.0176324597 10.9616301,0.0176324597 L9.73060528,0.0176324597 C9.73060528,0.0176324597 2.0687692,0.348664332 1.76463367,7.00033597 C1.68033903,8.54917765 1.68033903,10.1014576 1.76463367,11.6502993 L1.72377192,11.6554717 C1.72377192,11.6554717 1.06688055,10.6572037 0.40947195,10.9934079 C-0.241729807,11.3192674 0.0789573167,14.3140713 0.0789573167,14.3140713 C0.0789573167,14.3140713 0.404816814,16.6209497 2.34445668,17.6243901 C2.26169871,19.5485128 2.11687227,21.2967749 4.21685569,23.2933108 C4.46633522,23.5286086 4.70288674,23.7772467 4.92547078,24.0381325 L4.92547078,28.9622316 C4.92546368,29.5315423 5.38546941,29.9938596 5.95477301,29.9967062 L14.7374623,29.9967062 C15.3065637,29.9935761 15.7662559,29.5313416 15.7662473,28.9622316 L15.7662473,24.0381325 C15.9889706,23.7773722 16.2255152,23.5287414 16.4748624,23.2933108 C18.5748458,21.2967749 18.4305366,19.5485128 18.3472614,17.6243901 C20.2869013,16.6209497 20.6127608,14.3140713 20.6127608,14.3140713 C20.6127608,14.3140713 20.9334479,11.3192674 20.2822461,10.9934079 Z" id="Shape" fill="#35495E"></path>
                        <path d="M2.37549092,16.6416392 C2.37549092,16.9778434 2.36514617,17.3037029 2.34445668,17.6243901 C0.404816814,16.6209497 0.0789573167,14.3140713 0.0789573167,14.3140713 C0.0789573167,14.3140713 -0.241729807,11.3192674 0.40947195,10.9934079 C1.06688055,10.6572037 1.72377192,11.6554717 1.72377192,11.6554717 L1.76463367,11.6502993 C1.9301496,14.2157962 2.37549092,15.0278588 2.37549092,16.6416392 Z" id="Shape" fill="#F2BD7F"></path>
                        <path d="M18.9270844,11.6502993 C18.7615685,14.2157962 18.3162272,15.0278588 18.3162272,16.6416392 C18.3162272,16.9778434 18.3270892,17.3037029 18.3472614,17.6243901 C18.4305366,19.5485128 18.5748458,21.2967749 16.4748624,23.2933108 C16.2255152,23.5287414 15.9889706,23.7773722 15.7662473,24.0381325 C13.997813,26.0915646 13.7583321,27.9484465 11.57197,27.9484465 L9.12026525,27.9484465 C6.93235151,27.9484465 6.69442233,26.0915646 4.92547078,24.0381325 C4.70274747,23.7773722 4.46620293,23.5287414 4.21685569,23.2933108 C2.11687227,21.2967749 2.26169871,19.5485128 2.34445668,17.6243901 C2.36514617,17.3037029 2.37549092,16.9778434 2.37549092,16.6416392 C2.37549092,15.0278588 1.9301496,14.2157962 1.76463367,11.6502993 C1.68033903,10.1014576 1.68033903,8.54917765 1.76463367,7.00033597 C2.0687692,0.348664332 9.73060528,0.0176324597 9.73060528,0.0176324597 L10.9616301,0.0176324597 C10.9616301,0.0176324597 18.6219144,0.348664332 18.9270844,7.00033597 C19.0113791,8.54917765 19.0113791,10.1014576 18.9270844,11.6502993 Z" id="Shape" fill="#FED298"></path>
                        <path d="M20.6127608,14.3140713 C20.6127608,14.3140713 20.2869013,16.6209497 18.3472614,17.6243901 C18.3270892,17.3037029 18.3162272,16.9778434 18.3162272,16.6416392 C18.3162272,15.0278588 18.7615685,14.2157962 18.9270844,11.6502993 L18.9679462,11.6554717 C18.9679462,11.6554717 19.6253548,10.6572037 20.2822461,10.9934079 C20.9334479,11.3192674 20.6127608,14.3140713 20.6127608,14.3140713 Z" id="Shape" fill="#F2BD7F"></path>
                        <path d="M15.7662473,24.0381325 L15.7662473,28.9622316 C15.7662473,29.5315423 15.3062487,29.9938596 14.7369451,29.9967062 L5.95477301,29.9967062 C5.38546941,29.9938596 4.92547078,29.5315423 4.92547078,28.9622316 L4.92547078,24.0381325 C6.69442233,26.0915646 6.93235151,27.9484465 9.12026525,27.9484465 L11.57197,27.9484465 C13.7583321,27.9484465 13.997813,26.0915646 15.7662473,24.0381325 Z" id="Shape" fill="#F2BD7F"></path>
                        <path d="M25.0858289,13.9830395 L26.6375408,13.9830395 C28.3965424,13.9773199 29.8537963,12.6166877 29.9799885,10.8622092 C30.1061807,9.10773065 28.8586486,7.55255463 27.1185715,7.29516122 C28.1212204,5.83898843 28.2124408,3.94052064 27.3540253,2.3949247 C26.4956098,0.849328762 24.8357392,-0.0765927023 23.0696446,0.00497942573 C21.30355,0.086551558 19.7360969,1.16153619 19.0238078,2.77967963 C17.7676718,1.75802161 15.9369307,1.87482211 14.8208134,3.04782886 C13.7046961,4.22083564 13.6789791,6.05511864 14.7617725,7.25895463 L14.741083,7.25895463 C12.8842782,7.25895463 11.3790406,8.76419229 11.3790406,10.620997 C11.3790406,12.4778018 12.8842782,13.9830395 14.741083,13.9830395 L25.0858289,13.9830395 Z" id="Shape" fill="#FB7B76"></path>
                        <path d="M29.99959,10.620997 C30.001373,11.5132137 29.6477336,12.3694026 29.01684,13.0002962 C28.3859463,13.6311899 27.5297574,13.9848293 26.6375408,13.9830499 L14.741083,13.9830499 C13.7583566,13.9854794 12.8240086,13.5567718 12.1849487,12.8102066 C11.5458889,12.0636413 11.2664293,11.0743493 11.4204195,10.1037598 C11.6738543,11.7414194 13.0839296,12.9494277 14.741083,12.9485649 L26.6375408,12.9485649 C28.2959917,12.9529451 29.708046,11.7432412 29.9582043,10.1037598 C29.9850323,10.2748807 29.9988648,10.4477874 29.99959,10.620997 Z" id="Shape" fill="#DF4D60"></path>
                        <path d="M24.309973,8.2934292 C24.0243107,8.2934292 23.7927357,8.06185414 23.7927357,7.77619192 C23.7927357,6.63354285 22.8664356,5.70724274 21.7237865,5.70724274 C21.4381243,5.70724274 21.2065492,5.47566768 21.2065492,5.19000541 C21.2065492,4.90434319 21.4381243,4.67276813 21.7237865,4.67276813 C23.437051,4.67447883 24.8254996,6.06292737 24.8272103,7.77619192 C24.8272103,8.06185414 24.5956352,8.2934292 24.309973,8.2934292 Z" id="Shape" fill="#FF5364"></path>
                        <path d="M17.0686508,10.3623784 C16.7829886,10.3623784 16.5514135,10.1308034 16.5514135,9.8451411 C16.5514135,8.70249203 17.4777136,7.77619192 18.6203627,7.77619192 C18.906025,7.77619192 19.1376,8.00776698 19.1376,8.2934292 C19.1376,8.57909147 18.906025,8.81066653 18.6203627,8.81066653 C18.0490382,8.81066653 17.5858881,9.27381656 17.5858881,9.8451411 C17.5858881,10.1308034 17.3543131,10.3623784 17.0686508,10.3623784 Z" id="Shape" fill="#FF5364"></path>
                        <path d="M27.0461583,16.9364645 L22.2410238,21.7415989 L22.3444712,20.8985021 L22.6858479,18.1830063 C22.7035776,18.0363307 22.6577376,17.8890742 22.5598894,17.7783773 C22.4620412,17.6676803 22.3215257,17.6041103 22.1737829,17.6037006 L20.3944866,17.6037006 C20.2259656,17.6036289 20.0680451,17.5214645 19.9712665,17.3835034 C19.8744878,17.2455424 19.8509864,17.069084 19.9082836,16.9106026 L21.5996495,12.2554669 C21.6726613,12.0498823 21.867691,11.9129465 22.0858526,11.9140832 L25.1168631,11.9140832 C25.2863486,11.9137598 25.4451087,11.9969795 25.5412588,12.1365523 C25.637409,12.2761252 25.6585953,12.4541179 25.5978938,12.6123607 L24.573764,15.3537183 C24.5130625,15.5119611 24.5342488,15.6899538 24.630399,15.8295266 C24.7265492,15.9690994 24.8853092,16.0523191 25.0547947,16.0519887 L26.6840922,16.0519887 C26.8932857,16.0528658 27.0813539,16.1796672 27.1606063,16.3732694 C27.2398586,16.5668715 27.1946889,16.7891505 27.0461583,16.9364645 Z" id="Shape" fill="#F29C1F"></path>
                        <path d="M26.3116813,16.9364645 L22.3444712,20.8985021 L22.6858479,18.1830063 C22.7035776,18.0363307 22.6577376,17.8890742 22.5598894,17.7783773 C22.4620412,17.6676803 22.3215257,17.6041103 22.1737829,17.6037006 L20.3944866,17.6037006 C20.2259656,17.6036289 20.0680451,17.5214645 19.9712665,17.3835034 C19.8744878,17.2455424 19.8509864,17.069084 19.9082836,16.9106026 L21.5996495,12.2554669 C21.6726613,12.0498823 21.867691,11.9129465 22.0858526,11.9140832 L24.3772138,11.9140832 C24.5470443,11.9135379 24.7063255,11.9963915 24.8033706,12.1357648 C24.9004157,12.2751382 24.9228588,12.4532715 24.8634169,12.6123607 L23.8341147,15.3537183 C23.7746728,15.5128075 23.7971158,15.6909408 23.8941609,15.8303142 C23.9912061,15.9696875 24.1504872,16.052541 24.3203177,16.0519887 L25.9444428,16.0519887 C26.1545783,16.0507666 26.3445672,16.1768 26.4251482,16.370875 C26.5057291,16.5649501 26.4608835,16.7884878 26.3116813,16.9364645 Z" id="Shape" fill="#F0C419"></path>
                    </g>
                </g>
            </g>
        </g>
    </g>
</svg>