<?xml version="1.0" encoding="UTF-8"?>
<svg width="54px" height="54px" viewBox="0 0 54 54" version="1.1" xmlns="http://www.w3.org/2000/svg" xmlns:xlink="http://www.w3.org/1999/xlink">
    <title>ic_Epilepsy</title>
    <g id="Page-1" stroke="none" stroke-width="1" fill="none" fill-rule="evenodd">
        <g id="Home-Page" transform="translate(-161.000000, -1816.000000)">
            <g id="Group-3-Copy-10" transform="translate(136.000000, 1808.000000)">
                <g id="ic_Epilepsy" transform="translate(25.000000, 8.000000)">
                    <circle id="Oval" stroke-opacity="0.3" stroke="#31CCB6" fill-opacity="0.1" fill="#22D2C5" cx="27" cy="27" r="26.5"></circle>
                    <g id="Group-8" transform="translate(13.652824, 9.938116)" fill-rule="nonzero">
                        <path d="M21.5753007,28.4813416 L19.9744806,21.6203748 C19.9744806,21.6203748 25.4525928,16.3497913 24.8384366,9.59359222 C24.2238791,2.83739316 17.4162194,-1.41096158 10.5063608,0.431185667 C3.59634175,2.27293149 2.45192402,7.80852535 2.41957048,8.71659333 C2.38697602,9.62490217 3.23812418,11.9472151 2.62356663,13.5341464 C2.00941054,15.1209973 -0.191114898,17.6032317 0.0133629217,18.3454374 C0.218402843,19.0872416 2.11185012,19.2153715 2.11185012,19.2153715 C2.11185012,19.2153715 2.13408817,19.9331714 1.88240463,20.0856267 C1.63056043,20.2378411 1.77265939,20.8344957 2.18699398,21.1663809 C2.60108772,21.4983464 3.28966515,21.7236172 3.28966515,21.7236172 C3.28966515,21.7236172 2.49591847,21.9028063 2.59883982,22.4657426 C2.70135978,23.0290803 2.98282791,23.3104682 3.57129381,23.3358372 C4.16016117,23.3612866 4.31390086,23.0807015 4.41585884,23.387619 C4.5182182,23.694376 4.58252395,23.7199859 4.58252395,23.7199859 C4.58252395,23.7199859 3.99437917,25.2428523 4.50633649,26.3685642 C5.01861499,27.4948383 5.81155878,27.4955608 6.73311405,27.2648308 C7.65458911,27.0340205 9.44583766,26.522304 9.44583766,26.522304 L9.93627944,29.0196314 C10.4490396,32.6543117 7.97386999,34.5227914 7.92168677,34.5617281 C9.37671495,34.8883949 10.8897067,35.061884 12.4432407,35.061884 C17.0203496,35.061884 21.2473493,33.565029 24.6630208,31.0351072 C24.3336244,30.8763899 21.6925122,28.5986334 21.5753007,28.4813416 Z" id="Shape" fill="#FED298"></path>
                        <g id="Group" transform="translate(4.675169, 0.000000)" fill="#E8B57F">
                            <path d="M1.42609207e-15,26.6844733 C0.509950288,27.4921087 1.23208549,27.4715566 2.05786457,27.2648308 C2.9793396,27.0340205 4.77058813,26.522304 4.77058813,26.522304 L5.26102995,29.0196314 C5.43604437,30.2599859 5.26271587,31.2944175 4.95692231,32.1208388 L4.95724342,32.1203572 C6.66829043,29.6790665 5.40634011,27.8131558 5.63169122,26.8867836 C5.85696207,25.9603311 9.43761268,25.0840547 10.1887297,24.5080325 C10.9400072,23.9321708 11.4780561,22.3424297 11.4780561,22.3424297 C11.4780561,22.3424297 10.7269392,23.4941531 9.92580663,24.1951741 C9.12467407,24.8961952 2.90259015,26.7238114 1.7132146,27.1244179 C0.583809589,27.5047129 0.0509789724,26.7606608 1.42609207e-15,26.6844733 Z" id="Shape"></path>
                            <path d="M4.13194606,1.00070508 C8.4355347,-0.576030379 13.5325489,0.274555784 16.6242028,3.43637602 C20.3085775,7.20408334 21.1671116,14.060153 14.7333244,21.3149826 L16.9001315,28.4813416 L15.2993114,21.6203747 C15.2993114,21.6203747 20.7774235,16.3497913 20.1632673,9.59359222 C19.5487098,2.83739316 12.7410501,-1.41096158 5.83119161,0.431185666 C5.22048763,0.593836686 4.65570484,0.786031426 4.13194606,1.00070508 Z" id="Shape"></path>
                            <path d="M8.34618102,2.24908779 C8.6585577,2.08964805 9.00746257,2.00382675 9.36776756,2.00382675 C9.80080781,2.00382675 10.2160255,2.12778192 10.571353,2.35289222 C10.7796843,2.30753298 10.9929932,2.28457237 11.207988,2.28457237 C11.8325004,2.28449208 12.4310819,2.4781319 12.931559,2.83040864 C12.9649562,2.82896357 12.9983534,2.82824103 13.031831,2.82824103 C13.9469637,2.82824103 14.7306751,3.36958152 15.0955561,4.1467098 C15.9731972,4.36258768 16.6421859,5.09331305 16.7898242,5.99078382 C17.5046538,6.48853126 17.94508,7.31720045 17.94508,8.21338672 C17.94508,8.60010441 17.8635939,8.97967692 17.7065626,9.32906352 C17.7406823,9.51748503 17.7577824,9.70895721 17.7577824,9.90083086 C17.7577824,11.3353872 16.8016257,12.5713262 15.4732019,12.9433522 C15.2611775,13.7762764 14.5902622,14.4775383 13.6638097,14.4773778 C13.5847321,14.4773778 13.5140038,14.4737651 13.4486544,14.4669411 C13.4627036,14.5484272 13.4704107,14.6394668 13.4704107,14.7512191 C13.4704107,15.6783139 12.7221036,16.4439619 11.7856961,16.4439619 C11.1484188,16.4439619 10.5731994,16.0839781 10.2871552,15.5246544 L8.9322385,13.2902501 L8.92437085,13.2762007 C8.9015708,13.2354979 8.86126935,13.1608358 8.81863967,13.0911512 C8.36304018,13.3624235 7.83703358,13.4647026 7.30837758,13.4647026 C6.04128924,13.4647026 4.93909975,12.7289997 4.40442265,11.6508948 C4.39663531,11.6509751 4.38892825,11.6509751 4.38130148,11.6509751 C3.16318502,11.6508948 2.13613937,10.8276045 1.81428944,9.70157129 C1.20446854,9.19178159 0.846572069,8.43135194 0.846572069,7.62283345 C0.846572069,6.50547075 1.52535508,5.53020683 2.50455276,5.1244624 C2.60859803,3.96166014 3.57543231,3.03095269 4.77749238,3.03079213 C4.80165723,3.03079213 4.82590233,3.03119354 4.8499869,3.03191608 C5.43965707,2.39696695 6.27017274,2.01908031 7.16475337,2.01908031 C7.57314714,2.01916058 7.97335213,2.09807764 8.34618102,2.24908779 Z" id="Shape"></path>
                        </g>
                        <path d="M17.1728851,14.7510586 C17.1728851,15.1518255 16.8539253,15.4771276 16.4605443,15.4771276 C16.1762663,15.4771276 15.9307643,15.307171 15.8166036,15.0615887 L14.4484403,12.8050266 C14.1971582,12.3576962 13.8363715,11.7158428 13.0378883,12.2343832 C12.7377948,12.4292273 12.3638419,12.4980288 11.9832257,12.4980288 C10.8473981,12.4980288 9.90585261,11.6494497 9.73557483,10.5402757 C9.52764488,10.632921 9.29795847,10.6843817 9.05622987,10.6843817 C8.17882953,10.6843014 7.45669431,10.0064015 7.36645752,9.13630682 C6.84591008,8.84014705 6.49379388,8.27343754 6.49379388,7.62275319 C6.49379388,6.66611471 7.25462492,5.89051175 8.19328027,5.89051175 L8.26256351,5.89203712 C8.18541262,5.7218396 8.1423816,5.53253498 8.1423816,5.33287407 C8.1423816,4.595405 8.72884048,3.99746587 9.45234048,3.99746587 C9.62462529,3.99738555 9.78904251,4.03142505 9.93965125,4.09308151 C10.3231577,3.43035485 11.0301999,2.98575402 11.8395212,2.98575402 C12.3078855,2.98575402 12.7417285,3.13467685 13.0986616,3.38836749 C13.3344494,3.13122472 13.6701078,2.9703399 14.0427761,2.9703399 C14.439529,2.9703399 14.7944551,3.15274026 15.0314471,3.43974787 C15.290918,3.31860252 15.5792101,3.25116583 15.8829967,3.25116583 C16.4439259,3.2510855 16.9521902,3.48101271 17.3219684,3.85344021 C17.4436758,3.81522605 17.5727689,3.79475417 17.7065988,3.79475417 C18.409386,3.7946739 18.9825984,4.35865385 19.0151929,5.0665792 C19.0853592,5.0545369 19.157372,5.04819467 19.2309905,5.04819467 C19.9444553,5.04803408 20.5228057,5.63770423 20.5228057,6.36489716 C20.5228057,6.43699029 20.5170254,6.50771864 20.5061873,6.57660044 C21.1705999,6.81190648 21.6475543,7.45576695 21.6475543,8.21314586 C21.6475543,8.57858882 21.5364442,8.91761907 21.3469791,9.19708017 C21.4205173,9.41777495 21.4602568,9.6545261 21.4602568,9.90059 C21.4602568,11.1099557 20.4984,12.0905985 19.3119146,12.0905985 L19.230268,12.0888323 C19.230268,12.1370014 19.2382158,12.1865353 19.2382158,12.2355875 C19.3193005,12.9148522 18.8640221,13.5104632 18.338738,13.5104632 C17.8521498,13.5103829 17.7590228,13.1747245 17.381939,13.3641896 C17.1483188,13.4814012 16.9876749,13.7268228 16.9876749,14.0101374 C16.9875946,14.3064577 17.1728851,14.4183706 17.1728851,14.7510586 Z" id="Shape" fill="#21D0C3"></path>
                        <g id="Group" transform="translate(6.373291, 2.850238)" fill="#FEFEFE">
                            <path d="M10.9198564,11.9009006 C10.9198564,12.1335574 10.8267295,12.3451001 10.6763616,12.4982778 C10.525512,12.6519373 10.3171806,12.7471516 10.0871732,12.7471516 C9.92371933,12.7471516 9.7709429,12.6989021 9.64209055,12.6158104 C9.51058892,12.5309526 9.40373377,12.4091649 9.33597589,12.2652196 L7.97030144,10.0134744 C7.85100259,9.80072752 7.70521076,9.54181858 7.50731602,9.40630277 C7.32379169,9.28074202 7.07796871,9.25858417 6.72994689,9.48465785 C6.56737611,9.5902285 6.38593919,9.66151877 6.19478813,9.70591468 C6.00628636,9.74974854 5.80839156,9.76797253 5.60993487,9.76797253 C5.01600977,9.76797253 4.47250166,9.54759882 4.05391211,9.18303897 C3.66550853,8.84481157 3.38468264,8.38182615 3.27060214,7.85501664 C3.20059637,7.87942232 3.12874411,7.89957308 3.05544679,7.91514779 C2.93438176,7.94075771 2.80962377,7.95432533 2.68269818,7.95432533 C2.21553811,7.95432533 1.78900066,7.77441372 1.46650849,7.47889626 C1.15557689,7.19405622 0.941465211,6.80131742 0.881093263,6.35896448 C0.621301208,6.19936417 0.403496559,5.97497639 0.249676542,5.70828013 C0.0911198955,5.43323453 -4.75364022e-17,5.11315078 -4.75364022e-17,4.77259517 C-4.75364022e-17,4.26184209 0.20351448,3.79885669 0.532509486,3.46367998 C0.839025575,3.15122303 1.25440385,2.94963532 1.71570334,2.9231423 C1.70253711,2.88083377 1.69121737,2.83788299 1.6818244,2.79404909 C1.66022858,2.69313481 1.64874828,2.58876841 1.64874828,2.48263581 C1.64874828,2.08162799 1.80866971,1.71771038 2.06725754,1.45422536 C2.32608622,1.19033893 2.68382212,1.02696538 3.07888909,1.02696538 C3.17129349,1.02696538 3.26201198,1.03603722 3.35032201,1.0533781 C3.40611789,1.06437672 3.46103067,1.0785866 3.5148998,1.09632889 C3.71664807,0.779617012 3.99097114,0.514686914 4.31386473,0.326586551 C4.65369779,0.128531236 5.04715911,0.0152535508 5.46615005,0.0152535508 C5.70779842,0.0152535508 5.94181996,0.0533874278 6.16243453,0.123874889 C6.30252634,0.151893253 6.58311141,0.300976642 6.71011726,0.383024689 C6.82604425,0.273761096 6.96011496,0.18392571 7.10711103,0.118736851 C7.27963671,0.0423888148 7.46990471,-3.08986615e-16 7.66956562,-3.08986615e-16 C7.88199136,-3.08986615e-16 8.08414107,0.0480888259 8.26541751,0.134231247 C8.42566002,0.210338437 8.56960541,0.316069629 8.69002818,0.444199457 C8.80362701,0.39707401 8.92316661,0.359100698 9.04736264,0.331644307 C9.19781084,0.298407623 9.35275478,0.280825898 9.50978607,0.280825898 C9.80088807,0.280825898 10.0790647,0.339511928 10.3330765,0.445805092 C10.5744037,0.546799652 10.7941351,0.691066133 10.9825566,0.868970704 C11.0279158,0.857249554 11.0739173,0.847776297 11.1202399,0.840791773 C11.1899245,0.830194575 11.2612952,0.824574846 11.3333882,0.824574846 C11.7161721,0.824574846 12.0640333,0.977832888 12.3208549,1.22758971 C12.5490962,1.44940845 12.705405,1.74773579 12.750122,2.08218996 C12.7857671,2.07946038 12.8217334,2.07801531 12.8577799,2.07801531 C13.2477088,2.07801531 13.6010293,2.23930154 13.8567269,2.49989641 C14.1118626,2.75984903 14.269777,3.11903001 14.269777,3.51489979 C14.269777,3.55319423 14.2680911,3.59221121 14.2649602,3.63130847 L14.2635151,3.64840851 C14.5848833,3.7823989 14.8603303,4.00758949 15.0590279,4.29226891 C15.2701692,4.59501174 15.3944455,4.9648702 15.3944455,5.36330903 C15.3944455,5.55357697 15.3656243,5.73854637 15.3122368,5.91348053 C15.2631043,6.07444562 15.192938,6.22593747 15.10519,6.36474477 C15.1356971,6.46469571 15.1597816,6.56809867 15.176721,6.67391018 C15.1967112,6.79810621 15.2070676,6.92414868 15.2070676,7.05067287 C15.2070676,7.68770933 14.9532164,8.26517664 14.5431368,8.68320422 C14.1426106,9.09151772 13.5927602,9.34801818 12.984545,9.36038161 L12.985107,9.37989006 C12.9913689,9.4354451 12.9945802,9.49019729 12.9945802,9.54358476 C12.9945802,9.85836992 12.8907758,10.1485888 12.7253952,10.3677582 C12.5559202,10.5925474 12.3203733,10.7441195 12.0626685,10.7749477 L11.9656078,10.7808083 C11.7242003,10.7808083 11.5727084,10.7088758 11.4413673,10.6466573 C11.3190981,10.5886135 11.2202711,10.5419698 11.0621159,10.6214488 C10.9638509,10.6707419 10.8807591,10.7480533 10.8227957,10.8430267 C10.7669195,10.9346283 10.734566,11.0435708 10.734566,11.1603809 C10.734566,11.27976 10.7731815,11.3687122 10.8128407,11.4598321 C10.8655056,11.5806563 10.9198564,11.7055748 10.9198564,11.9009006 Z M10.5054416,12.3303282 C10.612939,12.220904 10.6794926,12.0688502 10.6794926,11.9009809 C10.6794926,11.7539848 10.6355784,11.6530705 10.5931896,11.5553676 C10.5430135,11.4402434 10.4942824,11.327929 10.4942824,11.1602203 C10.4942824,10.9983721 10.5398022,10.8467197 10.6182376,10.7179476 C10.6992419,10.5852417 10.8161323,10.4770218 10.9550199,10.4073371 C11.217943,10.2752735 11.3633333,10.3442356 11.5437267,10.4297357 C11.6520269,10.4810359 11.7770257,10.5403642 11.9656078,10.5403642 C12.1954547,10.5403642 12.3968819,10.404447 12.5337624,10.2230903 C12.6691979,10.0437407 12.7542164,9.80450073 12.7542164,9.54358476 C12.7542164,9.49758327 12.7516473,9.4510198 12.7463487,9.40493805 C12.7453854,9.39867604 12.7447431,9.39225349 12.7447431,9.38567041 C12.7447431,9.36447594 12.7429769,9.34247869 12.7412107,9.32088294 C12.7406487,9.31365755 12.7347881,9.23891514 12.7371966,9.23891514 L12.7371966,9.23650671 C12.7384009,9.170515 12.7932333,9.11793044 12.8593053,9.11913462 L12.930997,9.12065999 C13.502122,9.09906419 13.9662314,8.9291878 14.3721364,8.51509401 C14.7393456,8.14082007 14.9666235,7.62292187 14.9666235,7.05067287 C14.9666235,6.9335417 14.957391,6.82018367 14.9400502,6.71140176 C14.9221473,6.59989029 14.8951726,6.49046611 14.8600092,6.38521666 C14.8600895,6.38521666 14.8671542,6.29104601 14.8746205,6.28012773 C14.9643756,6.14766266 15.035425,6.00090744 15.0831928,5.84411701 C15.1291942,5.693428 15.1540816,5.53198118 15.1540816,5.36346961 C15.1540816,5.01480554 15.0461025,4.69239364 14.862819,4.42947059 C14.6743975,4.15940246 14.4060153,3.95074993 14.0929964,3.83988071 L14.0930767,3.83955958 C14.0397696,3.82077363 14.0057301,3.76626225 14.0146414,3.70837904 C14.0189765,3.68011983 14.0228301,3.64808737 14.02564,3.61268308 C14.0281287,3.58137316 14.0294935,3.54861817 14.0294935,3.51498008 C14.0294935,3.18381746 13.8979918,2.88420561 13.6858872,2.66800659 C13.4741037,2.45204843 13.1811552,2.31837916 12.8578602,2.31837916 C12.8245433,2.31837916 12.7915474,2.31982423 12.759515,2.32255381 L12.7590333,2.32255381 C12.725636,2.3252834 12.6932021,2.32953833 12.6621331,2.33491722 L12.6621331,2.33483693 C12.6573162,2.33555947 12.6521781,2.33620173 12.6471204,2.33636229 C12.5811287,2.33917215 12.5250117,2.28787205 12.5222018,2.22188038 C12.5074299,1.89882623 12.3687029,1.60844679 12.1537081,1.39955342 C11.9405598,1.1922657 11.6515452,1.06501897 11.333308,1.06501897 C11.2727755,1.06501897 11.2134471,1.06959503 11.1559654,1.07842604 C11.0967977,1.0874176 11.0393158,1.10082468 10.984403,1.11808528 L10.984403,1.11800499 C10.9431382,1.13076981 10.8962536,1.12073457 10.8637395,1.08814014 C10.6864771,0.909513033 10.4752556,0.765647965 10.2410734,0.667704118 C10.0159632,0.57353351 9.7688556,0.521510873 9.50978607,0.521510873 C9.3673661,0.521510873 9.22984332,0.536844709 9.0990642,0.565746173 C8.9645921,0.595530736 8.83373266,0.640568848 8.7088141,0.698853469 L8.7088141,0.69877319 C8.66056473,0.721252107 8.60115616,0.709370394 8.56567156,0.666499888 C8.45592632,0.533633435 8.3184838,0.425413502 8.16305814,0.351554205 C8.01357332,0.280504771 7.84626601,0.240845539 7.66964589,0.240845539 C7.50394416,0.240845539 7.34635088,0.275928706 7.20385064,0.339030237 C7.05548973,0.404700786 6.92278386,0.500958721 6.81376114,0.619856132 L6.81368087,0.619775853 C6.77345962,0.663609741 6.70570174,0.671718211 6.65600727,0.636394198 C6.48444498,0.51452635 6.29377558,0.417947293 6.08977948,0.352678151 L6.08977948,0.352597869 C5.89397204,0.289978029 5.68435612,0.256179371 5.46623034,0.256179371 C5.09043103,0.256179371 4.7381543,0.357495061 4.43412694,0.534596811 C4.11877984,0.718442245 3.85465257,0.984415999 3.67000432,1.30353634 L3.66992404,1.30353634 C3.6404606,1.35459559 3.5767971,1.37723507 3.52084065,1.35427447 C3.45260108,1.3262561 3.38002629,1.30441944 3.30456135,1.2895673 C3.23206685,1.27535741 3.1566822,1.26797148 3.07904965,1.26797148 C2.7506969,1.26797148 2.45333294,1.40380836 2.23825788,1.62289753 C2.02270112,1.84262894 1.8891924,2.14697742 1.8891924,2.48319778 C1.8891924,2.57367543 1.89866566,2.66142349 1.91656852,2.74491661 C1.93495306,2.83105903 1.9626503,2.91439158 1.99829544,2.99322836 C1.99821515,2.99322836 2.00873208,3.0403538 2.00865179,3.04492987 C2.00744757,3.11092154 1.95261506,3.16350615 1.88654311,3.16230192 L1.82689369,3.16085685 L1.81966832,3.16117798 C1.3837379,3.16117798 0.988992064,3.34141073 0.703349255,3.6325127 C0.417385319,3.92401608 0.240283566,4.32751264 0.240283566,4.77339803 C0.240283566,5.07196619 0.319280903,5.35110616 0.457044553,5.5898644 C0.599143419,5.83640996 0.804263533,6.04112864 1.04976542,6.18138104 C1.08340352,6.1996853 1.10796976,6.2337248 1.11206413,6.27474884 C1.15429238,6.68201863 1.34504205,7.04417005 1.62779471,7.30323953 C1.90701497,7.55917805 2.27695372,7.71492489 2.68253761,7.71492489 C2.79388853,7.71492489 2.90210846,7.70336431 3.00551148,7.68144732 C3.10963704,7.65945012 3.20998934,7.62685566 3.30464164,7.58534996 C3.31660364,7.57884709 3.32976985,7.57435136 3.34397974,7.57218374 C3.40948973,7.56230906 3.47082506,7.60750775 3.48061944,7.67309801 C3.56202524,8.20271733 3.82896238,8.66995768 4.21126453,9.00288656 C4.58746528,9.33059703 5.07606056,9.52857204 5.609694,9.52857204 C5.7919338,9.52857204 5.97168487,9.51219454 6.14003588,9.47309727 C6.30589815,9.43456198 6.46188579,9.37370837 6.59908745,9.28459555 C7.04922778,8.99220904 7.38311999,9.0317077 7.64226979,9.20913061 C7.88696886,9.37659852 8.04769309,9.66248216 8.17943558,9.89706574 L8.17911451,9.89722628 L9.54053409,12.1423884 C9.54486922,12.1484898 9.54872275,12.1549927 9.55193408,12.1619771 C9.60018346,12.2658619 9.6769329,12.3537705 9.77150489,12.414865 C9.86254453,12.4736313 9.97100532,12.5078314 10.086852,12.5078314 C10.2503861,12.5067877 10.3984259,12.4392707 10.5054416,12.3303282 Z" id="Shape"></path>
                            <path d="M14.818664,6.29305304 C14.8677162,6.24873752 14.943422,6.25259105 14.9876573,6.301563 C15.0319729,6.35061517 15.0281194,6.42632096 14.9791475,6.47055627 C14.842588,6.59402972 14.6837905,6.69293696 14.5102212,6.76013291 C14.3420308,6.82508091 14.160112,6.86088658 13.970968,6.86088658 C13.5513348,6.86088658 13.1712806,6.68731726 12.8962349,6.40705332 C12.686298,6.19318248 12.5376159,5.91693266 12.4791707,5.60832923 C12.4665665,5.62213768 12.4538017,5.63562505 12.4407157,5.64903216 C12.1883899,5.90625513 11.8397258,6.06545405 11.4546138,6.06545405 L11.4546138,6.06497233 C11.311391,6.06489206 11.1732259,6.04297513 11.0438919,6.00243281 C10.9096607,5.96044539 10.7839393,5.89814668 10.6702602,5.81930994 C10.6158291,5.78173803 10.6021812,5.70707589 10.6397531,5.65264477 C10.677325,5.59821369 10.7519871,5.58456578 10.8064182,5.62213768 C10.9001874,5.68708572 11.004313,5.73870691 11.1153428,5.77346899 C11.2230007,5.80726763 11.337322,5.82565216 11.4546941,5.82565216 L11.4546941,5.8251705 C11.7730919,5.8251705 12.0614643,5.69358854 12.2698759,5.4810825 C12.4788496,5.26801445 12.6081837,4.97313924 12.6081837,4.6470344 C12.6081837,4.5807216 12.6620528,4.52685245 12.7283656,4.52685245 C12.7946784,4.52685245 12.8485476,4.5807216 12.8485476,4.6470344 C12.8485476,4.88290246 12.7917079,5.10552402 12.6913557,5.3014117 L12.6920782,5.31497936 C12.6920782,5.67616739 12.8355419,6.0029948 13.067155,6.23910364 C13.2982864,6.47473087 13.618049,6.6206833 13.970968,6.6206833 C14.1309697,6.6206833 14.2836658,6.59097904 14.4239182,6.53686905 C14.570272,6.4800295 14.7040215,6.39669692 14.818664,6.29305304 Z M1.22614464,6.66130588 C1.26283344,6.71629899 1.24814186,6.79080054 1.19322908,6.82748933 C1.13823601,6.86417818 1.06373446,6.84948659 1.02704566,6.79457375 C0.851870671,6.53269439 0.797519864,6.22320792 0.85082701,5.93499606 C0.904535562,5.64582084 1.06662461,5.37743863 1.32368708,5.19889181 C1.37811818,5.16115933 1.45310141,5.17456642 1.49083388,5.22899751 C1.52856636,5.28342856 1.51515928,5.35841181 1.46072819,5.39614429 C1.25705315,5.53768121 1.12884304,5.74978583 1.08645423,5.97826799 C1.04390485,6.20747262 1.08717676,6.45353652 1.22614464,6.66130588 Z M12.5559202,10.2360959 C12.6049724,10.1917804 12.6806782,10.1956339 12.7249135,10.2446058 C12.7692291,10.2936581 12.7653756,10.3693638 12.7164036,10.4135991 C12.6033668,10.5159585 12.4717849,10.5980868 12.3278395,10.6538024 C12.1882293,10.7078321 12.0373797,10.737456 11.8805893,10.737456 C11.5326478,10.737456 11.2177021,10.5936713 10.9897017,10.3612553 C10.7622632,10.1293211 10.6213685,9.8091571 10.6213685,9.45623811 C10.6213685,9.38992533 10.6752376,9.33605614 10.7415505,9.33605614 C10.8078633,9.33605614 10.8617324,9.38992533 10.8617324,9.45623811 C10.8617324,9.74436964 10.9759734,10.0050448 11.1606217,10.1931452 C11.3447883,10.3807638 11.5992817,10.497012 11.8805893,10.497012 C12.0083177,10.497012 12.1301053,10.4734091 12.2415365,10.4302175 C12.3580254,10.3851794 12.4645594,10.3187863 12.5559202,10.2360959 Z M11.6785199,7.43297499 C11.7207482,7.38191574 11.7965342,7.37485099 11.8475132,7.41707921 C11.8694301,7.43530321 11.8831583,7.45978915 11.8884569,7.48563988 L11.8932738,7.44341166 C11.9015428,7.37790167 11.9615134,7.33149874 12.0271036,7.33976778 C12.0926136,7.34803682 12.1390166,7.40800732 12.1308278,7.47359763 C12.0849066,7.8315744 12.1859012,8.17485952 12.3860438,8.44003047 C12.5857048,8.70463943 12.884273,8.89177643 13.2337398,8.93825964 C13.3920556,8.95921324 13.547401,8.94982022 13.6937548,8.91457648 C13.8456481,8.87788769 13.9887103,8.81277915 14.1159571,8.72487052 C14.1703881,8.68729861 14.2450502,8.70102682 14.2826221,8.75537762 C14.3201941,8.80980868 14.3064659,8.88447077 14.2521151,8.92204267 C14.1012655,9.02640913 13.9313088,9.10355991 13.7502732,9.14739383 C13.5757405,9.18954184 13.3908514,9.20078124 13.2028313,9.17581363 C12.7863291,9.12033886 12.4314031,8.89835957 12.1946519,8.58461806 C11.9786937,8.29841335 11.8606794,7.93529854 11.8833189,7.55203298 C11.8787428,7.56407529 11.8721597,7.57555555 11.8634893,7.58599222 C11.7357609,7.74021369 11.5800141,7.87187586 11.4029123,7.9720676 C11.2318317,8.06888754 11.0409214,8.13632423 10.8367648,8.16651026 C10.555136,8.20793569 10.2792073,8.17429759 10.0289688,8.08044812 C9.76981899,7.98322679 9.538527,7.82105746 9.35684923,7.61112042 C9.3135773,7.56110487 9.31911673,7.48547935 9.36905201,7.44220747 C9.41906761,7.39893554 9.49469314,7.40447498 9.53796507,7.45441026 C9.69355126,7.63424159 9.8912854,7.77288836 10.1125422,7.85589976 C10.3254496,7.93578021 10.5609163,7.96436054 10.8018421,7.928876 C10.9766158,7.90310548 11.1394273,7.845704 11.2845769,7.76357566 C11.4352659,7.67839664 11.5686141,7.5656006 11.6785199,7.43297499 Z M7.89363227,4.63587522 C7.85862938,4.5798385 7.87564913,4.50605947 7.93168583,4.47105658 C7.98772259,4.4360537 8.06150162,4.45307345 8.09650445,4.50911018 L8.11569182,4.54042011 C8.13022282,4.51705807 8.1527018,4.49851297 8.18088068,4.48952141 C8.41482201,4.41381562 8.59682097,4.24795333 8.70150844,4.04170927 C8.80667769,3.83458211 8.83437491,3.58627036 8.7596325,3.34646848 C8.72599445,3.23832883 8.67397176,3.14062583 8.60854209,3.05641017 C8.54030255,2.96858183 8.45809394,2.89560563 8.36713457,2.84037172 C8.31061615,2.80625193 8.29263301,2.73263348 8.32683311,2.67611506 C8.36095288,2.61959664 8.43457138,2.60169379 8.49108979,2.63581358 C8.60830123,2.70694329 8.71306903,2.7993477 8.79824811,2.9090127 C8.83646227,2.95822547 8.87098343,3.01105093 8.90132994,3.06724822 C8.94066813,2.97837621 8.99108508,2.89536478 9.05057397,2.81989985 C9.23185035,2.59013321 9.49934946,2.43061318 9.80947819,2.39617227 C9.94989118,2.38067787 10.0873337,2.39215818 10.2164269,2.42635824 C10.3507384,2.4619231 10.476219,2.52213448 10.5866868,2.6020952 C10.6403953,2.64087134 10.6521968,2.71601514 10.6134206,2.7697237 C10.5746445,2.82343225 10.4995007,2.83523368 10.4457921,2.79645755 C10.3585257,2.73335602 10.2601002,2.68598973 10.1553324,2.65813193 C10.054097,2.63139807 9.94611792,2.62248679 9.8356501,2.63460935 C9.59151302,2.66174461 9.38093372,2.78730542 9.2382729,2.96818042 C9.09513035,3.14961739 9.01998654,3.38717138 9.04664011,3.63757045 C9.04872747,3.6568381 9.04607813,3.67538321 9.03965558,3.69240295 C9.03002181,3.85336806 8.98699069,4.00911484 8.91562014,4.14984891 C8.782834,4.4112466 8.55178281,4.62150474 8.25409773,4.71784296 C8.23876394,4.72274017 8.22318923,4.7243458 8.20809624,4.72322187 C8.24735405,4.81594738 8.27770062,4.91308841 8.29809218,5.01328015 C8.33357673,5.18717064 8.33919648,5.37053439 8.31021475,5.55638686 L8.30876965,5.56545872 L8.30860912,5.56642212 L8.30876965,5.56642212 C8.24285827,5.97321016 8.02184236,6.31585314 7.71749387,6.54096338 C7.41258339,6.76639486 7.02361791,6.87445426 6.62220862,6.81207522 L6.62212841,6.81247661 L6.61353824,6.81111184 C6.54802826,6.80123721 6.50282956,6.74006236 6.51262392,6.67447216 C6.52241828,6.60888185 6.58367334,6.56376348 6.64926365,6.57355784 L6.65785376,6.57492262 L6.6577735,6.57532407 L6.65825522,6.57540434 C6.9939136,6.62766783 7.3194565,6.53727045 7.57483304,6.34852787 C7.83077157,6.15930351 8.01662405,5.87085085 8.07225936,5.52804736 L8.0724199,5.52804736 L8.07362419,5.51985861 C8.09811009,5.36298791 8.09337344,5.20796366 8.06334812,5.06112817 C8.0323593,4.90859265 7.97407465,4.76448671 7.89363227,4.63587522 Z M5.77788446,4.11725449 C5.77788446,4.05094168 5.83175359,3.99707256 5.89806643,3.99707256 C5.9643792,3.99707256 6.01824834,4.05094168 6.01824834,4.11725449 C6.01824834,4.30134076 5.98364685,4.48606929 5.91572838,4.66180624 C5.84957619,4.83304741 5.75179288,4.99513649 5.62406448,5.13827899 L5.62061236,5.14197198 L5.60423485,5.15995511 L5.60038132,5.16404947 C5.32092023,5.46398247 4.94953639,5.62518839 4.57140889,5.6434124 C4.3927015,5.6521631 4.2127096,5.62888139 4.04002335,5.5734066 C4.09638121,5.68539982 4.14005453,5.80437749 4.16959825,5.92817212 C4.21399411,6.11418514 4.22651808,6.31151789 4.20195183,6.51262396 L4.20098845,6.52017043 L4.19906169,6.53116902 C4.14069678,6.96854452 3.91598789,7.34241712 3.59855348,7.5942612 C3.27758665,7.84883501 2.86148585,7.97953386 2.42627796,7.92630698 L2.42266527,7.92582526 L2.41953428,7.92542386 C2.35378345,7.91763654 2.306658,7.85790684 2.31444535,7.79207567 C2.32223269,7.72632488 2.38196238,7.67919943 2.44779349,7.68698681 L2.45124561,7.6873882 L2.45550055,7.68786987 C2.82447592,7.73298824 3.17731463,7.62235988 3.44938981,7.40656228 C3.72042132,7.19164779 3.91229493,6.87244717 3.96206968,6.49929715 L3.96271193,6.4910281 L3.96367531,6.48348164 C3.98462888,6.31151789 3.97395139,6.14260489 3.93605836,5.98364683 C3.89672025,5.81810569 3.82799899,5.6633223 3.73583544,5.52628116 C3.71544385,5.49585434 3.71094806,5.45948666 3.72018047,5.42673169 C3.64495638,5.38081046 3.5595365,5.3201174 3.49555187,5.25950458 L3.47756873,5.24320736 C3.42851652,5.19865093 3.42490384,5.12278463 3.46954055,5.07373239 C3.51409697,5.02468021 3.58996332,5.0210675 3.63901553,5.06570422 L3.65748036,5.08248313 L3.65868458,5.08352677 C3.91703156,5.31385539 4.24161106,5.41958658 4.56016942,5.40401193 C4.87736303,5.3886781 5.18933827,5.25308203 5.42456409,5.00099705 L5.42681195,4.99850832 L5.44367116,4.9799632 L5.44471479,4.97875898 C5.55373757,4.85656999 5.63658841,4.71944863 5.69230404,4.57550327 C5.74890273,4.42858748 5.77780419,4.27324211 5.77788446,4.11725449 Z" id="Shape"></path>
                        </g>
                    </g>
                </g>
            </g>
        </g>
    </g>
</svg>