<?xml version="1.0" encoding="UTF-8"?>
<svg width="92px" height="92px" viewBox="0 0 92 92" version="1.1" xmlns="http://www.w3.org/2000/svg" xmlns:xlink="http://www.w3.org/1999/xlink">
    <!-- Generator: Sketch 51.2 (57519) - http://www.bohemiancoding.com/sketch -->
    <title>ic_heart_disease</title>
    <desc>Created with Sketch.</desc>
    <defs></defs>
    <g id="ic_heart_disease" stroke="none" stroke-width="1" fill="none" fill-rule="evenodd">
        <g id="101-heart" transform="translate(1.000000, 1.000000)" fill-rule="nonzero">
            <circle id="Oval" fill="#0F7986" cx="45" cy="44.9998242" r="44.9998242"></circle>
            <g id="Group" transform="translate(28.300781, 4.042969)" fill="#FED298">
                <path d="M27.4608984,15.8841211 L29.4435352,14.0450977 C30.2115234,13.6659375 31.1387695,14.6995312 31.0640625,15.2775 L29.6017383,17.7667383 C29.3695313,18.1629492 27.3756445,16.8354492 27.4600195,15.8832422 L27.4608984,15.8841211 Z" id="Shape"></path>
                <path d="M15.6032227,34.6151953 C12.5333789,28.6308984 11.5511133,22.7763281 15.3425391,17.2042383 L22.6049414,10.2796875 L20.2155469,6.14302734 L12.8046094,8.8425 L11.3554687,0.682910156 C10.7180859,-0.445605469 6.45328125,-0.221484375 6.10330078,1.79613281 C6.10330078,1.79613281 6.18046875,8.57548828 6.02296875,11.4129492 C5.86634766,14.249707 -3.70107422,19.99125 1.89703125,35.8525195 C4.14193359,45.4076367 15.6025195,34.6167773 15.6025195,34.6167773 L15.6032227,34.6151953 Z" id="Shape"></path>
            </g>
            <g id="Group" transform="translate(34.453125, 10.019531)" fill="#E8B57F">
                <path d="M13.4089453,0.715957031 C14.0414063,-0.177890625 15.2892773,-0.168925781 16.1970117,0.736347656 C17.1047461,1.64162109 17.3271094,3.09990234 16.6946484,3.99445312 C16.0621875,4.88830078 14.8134375,4.87933594 13.906582,3.9740625 C12.9997266,3.06878906 12.7773633,1.61050781 13.4098242,0.716660156 L13.4089453,0.715957031 Z" id="Shape"></path>
                <path d="M27.2606836,24.549082 C28.2121875,19.7126367 25.0734375,6.77847656 13.1030859,7.41585938 C1.13255859,8.05394531 0.0170507813,21.879668 0.0170507813,21.879668 L6.70148438,24.4225195 C6.70148438,24.4225195 9.02267578,17.7553125 14.4135352,17.4378516 C19.8052734,17.1212695 18.2181445,21.789668 18.2181445,21.789668 L27.2606836,24.549082 Z" id="Shape"></path>
            </g>
            <path d="M49.9883203,17.8338867 L51.6234375,15.1344141 C52.1082422,14.4272461 53.8910156,15.1783594 53.8293164,15.8837695 L53.0952539,18.9850781 C52.9864453,19.4463281 50.1350977,18.760957 49.9890234,17.8345898 L49.9883203,17.8338867 Z" id="Shape" fill="#FED298"></path>
            <path d="M57.0283594,31.764375 C70.1015625,35.0323242 77.9167969,57.2009766 75.0751172,73.400625 C72.2336133,89.6002734 60.1541016,93.1522852 49.4964844,87.4682227 C38.8388672,81.7841602 22.7819531,76.3841602 21.6446484,62.3167383 C19.6692188,37.8754102 32.1291211,25.5404883 57.0283594,31.764375 Z" id="Shape" fill="#FF5B62"></path>
            <path d="M74.4700781,55.6973438 C75.7715625,61.6338281 76.045957,67.8652734 75.0749414,73.3997461 C72.2334375,89.5986914 60.1539258,93.1514063 49.4963086,87.4673437 C38.8386914,81.7832812 22.7817773,76.3841602 21.6451758,62.3158594 C21.2197852,57.0434766 21.466582,52.3344727 22.3637695,48.2540625 C25.8946875,44.0208984 29.1519141,41.6485547 29.1519141,41.6485547 C15.7964062,58.9199414 27.9260156,74.8117969 43.1611523,82.0741992 C49.0870898,84.899707 56.1888281,87.9328125 61.768125,87.0802734 C74.2468359,85.1730469 74.3248828,69.9410742 74.4700781,55.6973438 Z" id="Shape" fill="#ED4C54"></path>
            <g id="Group" transform="translate(14.238281, 29.882812)" fill="#FF878E">
                <path d="M45.2053125,3.96896484 C45.2053125,3.96896484 49.0308398,-2.01304688 55.0284961,0.812285156 C61.0261523,3.63761719 57.9367969,15.9183984 56.9527734,16.4485547 C55.9696289,16.9787109 57.3099609,14.4082617 53.6484375,10.8789258 C49.9860352,7.35046875 43.4552344,7.89837891 45.2047852,3.96808594 L45.2053125,3.96896484 Z" id="Shape"></path>
                <path d="M12.1419141,0.555820313 C-2.16685547,4.19712891 -1.06505859,21.0178125 2.09566406,28.6846875 C5.25726563,36.3522656 8.78572266,36.1003711 8.75636719,35.8910156 C7.88607422,29.8504688 5.48683594,17.5927148 15.5445117,12.7975781 C20.5117383,10.4299805 24.373125,7.51376953 23.9832422,4.85964844 C23.5214648,1.71193359 17.8683398,-0.901582031 12.1419141,0.555820313 Z" id="Shape"></path>
            </g>
            <path d="M41.0421094,31.3284375 L44.6306836,26.1761133 C49.5750586,18.1497656 59.0774414,21.4045312 56.1009375,36.8070117 C56.1011133,36.8070117 49.0832227,30.0642188 41.0421094,31.3284375 Z" id="Shape" fill="#FED298"></path>
            <path d="M39.9802148,33.6999023 C39.9802148,33.6999023 39.7374609,30.9735352 42.8371875,30.7357031 C45.9370898,30.4978711 55.4524805,32.7199219 56.6806641,35.1523828 C57.9090234,37.5848437 61.9149023,39.1874414 62.3460938,40.2925781 C62.7771094,41.3975391 59.2259766,37.7432227 53.0256445,37.3689844 C46.8253125,36.9954492 44.9375977,35.1703125 42.564375,35.0996484 C40.1911523,35.0289844 37.7952539,34.6141406 39.9802148,33.6991992 L39.9802148,33.6999023 Z" id="Shape" fill="#FF878E"></path>
            <path d="M53.3805469,18.6873047 L54.7906641,16.4473242 C55.4630273,15.8050195 57.1856836,16.710293 56.8107422,17.3988281 L55.9550391,19.9490625 C55.8195117,20.3531836 53.4413672,19.5486328 53.3805469,18.6873047 Z" id="Shape" fill="#FED298"></path>
            <g id="Group" transform="translate(22.500000, 37.441406)" fill="#FF878E">
                <path d="M40.6499414,38.4662109 C40.7401172,38.6463867 40.6669922,38.8657617 40.4868164,38.9559375 C40.3066406,39.0461133 40.0872656,38.9729883 39.9970898,38.7928125 C39.9930469,38.7847266 38.48625,35.7718359 39.3556641,32.3537695 C40.0280273,29.7110742 40.1716406,27.4533398 40.2016992,26.7031055 C39.3711328,26.4253711 38.6419922,26.0446289 38.0323828,25.648418 C37.2392578,25.1321484 36.6368555,24.5735156 36.2698242,24.1715039 C35.3620898,24.0025781 34.1435742,29.1492773 33.5580469,31.9064063 C33.557168,31.9526367 33.5475,31.9981641 33.5295703,32.0396484 C33.3558984,32.865293 33.2428711,33.4522266 33.2201953,33.5733398 C33.2047266,33.7788281 32.9960742,35.9732813 30.8429297,37.559707 C28.8699609,39.0130664 28.6516406,46.1179688 28.6507617,46.1374805 C28.6451367,46.3389258 28.4762109,46.4971289 28.2740625,46.4915039 C28.0726172,46.485 27.9144141,46.3169531 27.9200391,46.1148047 C27.920918,46.0937109 28.1473242,38.6363672 30.4092773,36.9697852 C32.3869922,35.5123828 32.4892969,33.5095313 32.4901758,33.5039063 C32.4917578,33.4835156 32.4950977,33.4648828 32.4991406,33.44625 C32.5130273,33.3748828 32.5713867,33.0695508 32.6680664,32.6074219 L32.5121484,32.7113086 L32.4926367,32.7251953 C31.9032422,33.1222852 31.3333594,33.5070703 29.3505469,33.8943164 C26.8377539,34.385625 26.6973047,35.6828906 26.6973047,35.6862305 C26.6769141,35.8867969 26.4967383,36.0328711 26.2961719,36.0124805 C26.0956055,35.9920898 25.9495313,35.8119141 25.9699219,35.6113477 C25.9708008,35.6064258 26.1689063,33.7693359 29.2102734,33.1739648 C31.0468359,32.8150195 31.5566016,32.4717188 32.0827148,32.1169922 L32.1038086,32.1039844 C32.3295117,31.9522852 32.5608398,31.7977734 32.8767188,31.6411523 C33.4508203,29.0877539 34.6060547,24.6418945 35.8693945,23.6594531 L35.8620117,23.6431055 L35.8546289,23.6285156 C35.5932422,23.1097852 33.4360547,18.8180859 33.0082031,15.6856641 C31.3876758,16.0168359 31.8781055,19.7637891 31.8796875,19.7743359 C31.9048242,19.9740234 31.7634961,20.1575391 31.5631055,20.1826758 C31.363418,20.2078125 31.1799023,20.0664844 31.1547656,19.8669727 C31.1531836,19.8539648 30.5557031,15.2936719 32.9401758,14.9517773 C32.9368359,14.8640625 32.9345508,14.7781055 32.9345508,14.6935547 C32.9345508,12.0905859 33.7359375,5.40791016 34.0094531,3.20449219 C33.7382227,3.42140625 33.4218164,3.59103516 33.0523242,3.68033203 C32.2224609,3.88089844 31.5495703,4.07337891 31.0468359,4.39066406 C30.5743359,4.68861328 30.2357813,5.11488281 30.027832,5.80007813 C29.9035547,6.20912109 29.7047461,6.74753906 29.4813281,7.35416016 C28.8244336,9.13289063 27.9435938,11.5233398 28.2911133,12.1093945 L28.2919922,12.1109766 L28.2935742,12.1134375 L28.2976172,12.1208203 C28.6760742,12.7589063 29.4416016,14.7652734 29.6282813,17.5767188 C29.7451758,19.3278516 29.6412891,21.4022461 29.0851172,23.67 C29.0381836,23.8656445 28.8399023,23.986582 28.6442578,23.9387695 C28.4486133,23.8918359 28.3276758,23.6935547 28.3747852,23.4979102 C28.9098633,21.313125 29.0105859,19.3143164 28.8975586,17.6254102 C28.7368945,15.2158008 28.1504883,13.4611523 27.7827539,12.7077539 C23.8645898,13.571543 25.4810742,18.9504492 25.4859961,18.9666211 C25.5427734,19.1606836 25.4316797,19.3637109 25.2384961,19.4204883 C25.0444336,19.4772656 24.8414063,19.3661719 24.7846289,19.1729883 C24.779707,19.1550586 22.9577344,13.1016797 27.523125,12.0178125 C27.3972656,10.8877148 28.1849414,8.75074219 28.7929688,7.10191406 C29.0179688,6.49300781 29.2174805,5.95072266 29.327168,5.58861328 C29.5382813,4.89287109 29.8613672,4.40244141 30.2973047,4.03382813 C29.8035352,3.26988281 28.9430859,2.83623047 27.99,2.60982422 C26.2274414,2.1909375 24.1732617,2.47271484 23.367832,2.70246094 C21.9413672,3.10992188 20.3533594,2.99390625 20.3493164,2.99390625 C20.1478711,2.98248047 19.992832,2.81039063 20.0042578,2.60894531 C20.0156836,2.4075 20.1877734,2.25333984 20.3892188,2.26388672 C20.3932617,2.26388672 21.862793,2.37023438 23.1674414,1.99845703 C24.0377344,1.74919922 26.2575,1.44544922 28.1589258,1.89703125 C29.2768945,2.16246094 30.2950195,2.68699219 30.9055078,3.62882813 C31.4495508,3.34212891 32.1031055,3.15878906 32.8791797,2.97105469 C33.4158398,2.84115234 33.8120508,2.46621094 34.0994531,2.03818359 C34.1165039,1.99511719 34.1418164,1.95539063 34.1732813,1.92287109 C34.6280273,1.1840625 34.7763867,0.342949219 34.7772656,0.33890625 C34.8113672,0.139921875 35.0006836,0.00615234375 35.1993164,0.0391992188 C35.3983008,0.0733007813 35.5329492,0.262617188 35.4990234,0.46125 C35.4981445,0.465292969 35.3325586,1.39746094 34.8064453,2.266875 C34.8080273,2.31873047 34.8120703,2.38869141 34.8194531,2.46744141 C34.8226172,2.48449219 34.824375,2.50242188 34.8250781,2.51929688 C34.8575977,2.79123047 34.9412695,3.14279297 35.15625,3.24509766 C35.5069336,3.41226563 36.2246484,4.38908203 37.0300781,5.50951172 L37.035,5.51689453 L37.0399219,5.52427734 L37.0408008,5.52585938 L37.2088477,5.75964844 C38.037832,6.91488281 38.9415234,8.17259766 39.5136914,8.71822266 C40.4961328,9.65443359 41.285918,9.09738281 41.2876758,9.09667969 C41.4557227,8.98453125 41.6838867,9.03023438 41.7958594,9.19810547 C41.9080078,9.36615234 41.8623047,9.59431641 41.6944336,9.70628906 C41.6910938,9.70875 40.4245898,10.5960938 39.0104297,9.2475 C38.4517969,8.71576172 37.6456641,7.61712891 36.870293,6.53976563 C36.7006641,7.38826172 36.7664063,8.47599609 36.9750586,9.51292969 C37.2682617,10.9678711 37.8298828,12.2944922 38.4113672,12.6947461 C39.8517188,13.6868555 39.4586719,16.5162305 39.457793,16.5243164 C39.4326563,16.7240039 39.2498438,16.8660352 39.0494531,16.8400195 C38.8497656,16.8148828 38.7084375,16.6320703 38.73375,16.4316797 C38.7346289,16.4251758 39.0642188,14.0301563 37.9965234,13.2953906 C37.2633398,12.7905469 36.5864063,11.2777734 36.2598047,9.65583984 C35.9838281,8.28527344 35.9470898,6.81099609 36.32625,5.78144531 C35.627168,4.81042969 35.0272266,3.99533203 34.8414258,3.90673828 C34.7797266,3.87738281 34.7220703,3.84257813 34.6702148,3.80197266 C34.355918,6.36996094 33.6658008,12.2895703 33.6658008,14.6935547 C33.6658008,17.6503711 36.2241211,22.7385352 36.5057227,23.2996289 L36.5138086,23.3150977 L36.5252344,23.3361914 C36.5480859,23.381543 36.6055664,23.4620508 36.6948633,23.5683984 C36.7265039,23.5944141 36.7532227,23.6251758 36.7751953,23.6601563 C37.0789453,23.9987109 37.6405664,24.5239453 38.4275391,25.0363477 C39.0445313,25.4374805 39.7931836,25.8205078 40.6520508,26.0803125 C40.6691016,26.0843555 40.6861523,26.0892773 40.7032031,26.0957813 C40.7738672,26.116875 40.8452344,26.1372656 40.9176563,26.1557227 C43.8623438,26.9367188 45.2993555,32.8691602 45.3033984,32.8855078 C45.3520898,33.0811523 45.2327344,33.2801367 45.0370898,33.3288281 C44.8414453,33.3775195 44.6424609,33.2581641 44.5930664,33.0625195 C44.5890234,33.0479297 43.3151367,27.8103516 40.9225781,26.9237109 C40.8747656,27.8574609 40.6991602,30.0339844 40.0637109,32.5339453 C39.2607422,35.692207 40.6443164,38.4591797 40.6483594,38.4663867 L40.6499414,38.4662109 Z" id="Shape"></path>
                <path d="M13.0586133,17.9108789 C13.2152344,17.9822461 13.2858984,18.1673437 13.2145312,18.3257227 C13.1431641,18.4823438 12.9571875,18.5530078 12.8005664,18.4816406 C12.7931836,18.4783008 10.1619141,17.284043 8.89453125,14.5367578 C7.91455078,12.4129687 6.79078125,10.829707 6.40617187,10.3132617 C5.70234375,10.5771094 5.01134766,10.7168555 4.39101562,10.7825977 C3.583125,10.8669727 2.88087891,10.8200391 2.41892578,10.7507813 C1.72230469,11.1292383 3.69035156,15.2168555 4.79056641,17.37 C4.815,17.4016406 4.83292969,17.4364453 4.84330078,17.4738867 C5.17289062,18.1184766 5.41582031,18.5700586 5.46521484,18.6625195 C5.5659375,18.8077148 6.61236328,20.3837695 6.03439453,22.6026563 C5.50511719,24.6371484 9.19669922,29.4899414 9.20724609,29.5036523 C9.31201172,29.6416406 9.28511719,29.8381641 9.14730469,29.9429297 C9.01019531,30.0476953 8.81279297,30.0208008 8.70802734,29.8829883 C8.69660156,29.8683984 4.81992188,24.7770703 5.42724609,22.44375 C5.95828125,20.4043359 4.94402344,19.0142578 4.94173828,19.0102148 C4.93189453,18.995625 4.92380859,18.9817383 4.91660156,18.9662695 C4.88724609,18.9110742 4.76068359,18.6755273 4.57646484,18.3151758 L4.52865234,18.4686328 L4.52373047,18.4890234 C4.34601563,19.0719141 4.17304688,19.6361719 3.06070313,20.964375 C1.65128906,22.6490625 2.25931641,23.5900195 2.26107422,23.5924805 C2.35599609,23.7369727 2.31451172,23.9317383 2.17019531,24.0268359 C2.025,24.1217578 1.8309375,24.0811523 1.73583984,23.935957 C1.73337891,23.9326172 0.872929688,22.6003711 2.57871094,20.5618359 C3.60914062,19.3303125 3.76330078,18.8259961 3.92238281,18.3055078 L3.92888672,18.2851172 C3.99708984,18.0616992 4.06757812,17.8345898 4.19431641,17.5584375 C3.19728516,15.5457422 1.56621094,11.9596289 1.87646484,10.6224609 L1.86257812,10.6150781 L1.84957031,10.6094531 C1.67255859,10.5291211 0.99140625,10.2229102 0.1096875,9.76746094 C0.162421875,9.55880859 0.220078125,9.35419922 0.276152344,9.14888672 C1.19847656,9.62876953 1.92427734,9.95589844 2.10621094,10.0378125 L2.12009766,10.0443164 L2.13873047,10.0524023 C2.17863281,10.070332 2.26054687,10.0930078 2.37744141,10.1156836 C2.41330078,10.1156836 2.44722656,10.1221875 2.47974609,10.1336133 C2.86470703,10.1953125 3.52371094,10.2417188 4.32421875,10.1580469 C4.95263672,10.0923047 5.65804687,9.94289063 6.37101562,9.65232422 C6.38490234,9.64582031 6.39861328,9.64019531 6.4125,9.63527344 C6.47085937,9.61083984 6.52939453,9.58587891 6.58863281,9.55986328 C8.97222656,8.48988281 13.1349023,11.6667773 13.1470312,11.6755664 C13.2857227,11.780332 13.3134961,11.9768555 13.2087305,12.1155469 C13.1048437,12.2542383 12.9074414,12.2820117 12.76875,12.1779492 C12.7582031,12.1698633 9.08033203,9.36791016 7.00681641,10.0694531 C7.47931641,10.7182617 8.53804687,12.2632031 9.46529297,14.2734375 C10.6359961,16.8113672 13.0529883,17.908418 13.0594922,17.911582 L13.0594922,17.9103516 L13.0586133,17.9103516 L13.0586133,17.9108789 Z" id="Shape"></path>
            </g>
        </g>
    </g>
</svg>