<?xml version="1.0" encoding="UTF-8"?>
<svg width="92px" height="92px" viewBox="0 0 92 92" version="1.1" xmlns="http://www.w3.org/2000/svg" xmlns:xlink="http://www.w3.org/1999/xlink">
    <!-- Generator: Sketch 51.2 (57519) - http://www.bohemiancoding.com/sketch -->
    <title>ic_hairloss</title>
    <desc>Created with Sketch.</desc>
    <defs></defs>
    <g id="ic_hairloss" stroke="none" stroke-width="1" fill="none" fill-rule="evenodd">
        <g id="101-hair" transform="translate(1.000000, 1.000000)" fill-rule="nonzero">
            <circle id="Oval" fill="#FAD24D" cx="45" cy="44.9998242" r="44.9998242"></circle>
            <path d="M0.0402539063,46.8235547 C4.93224609,46.742168 13.0688086,46.6351172 15.1024219,46.7840039 C18.0615234,47.0003906 24.9625195,46.5688477 29.6746875,46.5688477 C34.3868555,46.5688477 39.0802148,45.0928125 40.0661719,46.0627734 C39.9436523,46.3772461 39.9169336,46.665 39.9594727,46.918125 C38.7785742,46.1279883 34.2355078,47.510332 29.6748633,47.510332 C24.9626953,47.510332 18.0616992,47.9416992 15.1025977,47.7254883 C13.0756641,47.5771289 4.98427734,47.6827734 0.0877148438,47.7646875 C0.0687304688,47.4517969 0.0530859375,47.1380273 0.0409570313,46.8235547 L0.0402539063,46.8235547 Z M89.971875,46.511543 C89.9613281,46.8263672 89.949375,47.1404883 89.9323242,47.4537305 C88.089082,47.4813281 85.5868359,47.5091016 83.0285156,47.5091016 C77.9878125,47.5091016 69.0554883,46.15875 60.4617188,47.2942969 C51.8677734,48.4298437 43.3330664,44.9235352 42.8939648,47.446875 C42.4648828,49.912207 39.4207031,49.0770703 40.017832,47.1425977 C40.4502539,48.3312305 42.5436328,48.5177344 42.8939648,46.5053906 C43.3330664,43.981875 51.8677734,47.4881836 60.4617188,46.3528125 C69.0553125,45.2172656 77.9876367,46.5676172 83.0285156,46.5676172 C85.6054688,46.5676172 88.1242383,46.5393164 89.971875,46.5118945 L89.971875,46.511543 Z" id="Shape" fill="#FFFFFF"></path>
            <path d="M0.0768164062,47.6056055 C4.76683594,47.5235156 13.4957812,47.3974805 15.5970703,47.55375 C18.5074805,47.7701367 25.294043,47.3385937 29.9278125,47.3385937 C34.5619336,47.3385937 39.1779492,45.8625586 40.147207,46.8325195 C39.369375,48.8640234 42.4970508,49.7990039 42.9287695,47.2751367 C43.3604883,44.7516211 51.7542187,48.2579297 60.205957,47.1225586 C68.6576953,45.9871875 77.4416602,47.3373633 82.399043,47.3373633 C85.2844922,47.3373633 88.0959375,47.3004492 89.9426953,47.2700391 C89.857793,48.9803906 89.6744531,50.664375 89.4039258,52.3193555 C81.4016602,51.7085156 63.1167187,50.4144141 59.021543,50.9997656 C53.74125,51.7543945 50.5089844,51.7543945 44.2592578,51.7543945 C38.0093555,51.7543945 35.315332,51.7543945 28.20375,51.7543945 C21.092168,51.7543945 8.37632812,51.5373047 5.79076172,51.5373047 L0.474257812,51.5373047 C0.285820312,50.2437305 0.152402344,48.9320508 0.0768164062,47.6056055 Z" id="Shape" fill="#FED298"></path>
            <path d="M1.15751953,55.1842383 C3.49646484,55.2106055 5.97410156,55.5679687 7.82384766,56.6660742 C12.5855859,59.4931641 15.5620898,53.987168 21.215918,55.7727539 C26.8700977,57.5586914 36.8892773,55.655332 39.3985547,55.7750391 C41.9076563,55.8943945 41.6021484,54.7314258 44.5775977,56.5168359 C47.5533984,58.3027734 53.5057031,55.1773828 58.4158008,54.8801367 C63.32625,54.5828906 64.8142383,59.3441016 71.9562305,57.7075781 C77.1625195,56.5145508 83.4751758,56.1911133 88.5900586,56.2185352 C88.9178906,54.9399023 89.1880664,53.6389453 89.4042773,52.3195312 C81.4028906,51.7086914 63.1170703,50.4145898 59.0213672,51.000293 C53.7416016,51.7542187 50.5091602,51.7542187 44.2596094,51.7542187 C38.0100586,51.7542187 35.3156836,51.7542187 28.20375,51.7542187 C21.0925195,51.7542187 8.37685547,51.537832 5.79058594,51.537832 L0.474257813,51.537832 C0.653730469,52.7695312 0.8803125,53.9866406 1.15751953,55.1842383 Z" id="Shape" fill="#FF5B62"></path>
            <path d="M88.5902344,56.2181836 C83.4755273,56.1905859 77.1626953,56.514375 71.9564063,57.7072266 C64.8144141,59.3439258 63.3264258,54.5827148 58.4159766,54.8797852 C53.5058789,55.1770313 47.5535742,58.3024219 44.5777734,56.5164844 C41.6019727,54.7308984 41.9074805,55.8943945 39.3987305,55.7746875 C36.8896289,55.655332 26.8704492,57.5583398 21.2160938,55.7724023 C15.5622656,53.9868164 12.5855859,59.4928125 7.82402344,56.6657227 C5.97498047,55.5676172 3.49681641,55.2104297 1.15769531,55.1838867 C5.77300781,75.1313672 23.6501367,90 45.0001758,90 C65.979668,90 83.6056055,75.6432422 88.5902344,56.2181836 Z" id="Shape" fill="#ED4C54"></path>
            <path d="M38.0056641,55.6004883 L42.7902539,55.4617969 L42.8459766,65.8193555 C42.8459766,65.8193555 42.8113477,70.2050977 44.9608008,72.1258594 C47.1102539,74.0467969 47.1157031,77.4543164 45.4886719,79.0518164 C44.9107031,79.6192383 42.9423047,80.1335742 39.1169531,79.8591797 C34.3785938,78.9642773 35.5536914,73.8931641 36.421875,72.392168 C38.8467773,68.1996094 38.0056641,59.8206445 38.0056641,55.6004883 Z" id="Shape" fill="#FF5B62"></path>
            <path d="M63.8741602,10.8829688 C63.8101758,10.9313086 40.4864648,28.1255273 41.887793,64.475332 L42.1910156,68.461875 C42.1910156,68.461875 42.1697461,71.4162305 43.4875781,72.7101562 C44.8048828,74.0039062 44.8562109,76.3308984 43.8212109,77.3641406 C43.2286523,77.9563477 42.5409961,77.9401758 41.9616211,77.6561133 C41.1535547,77.2595508 43.1379492,76.102207 41.269043,76.1262891 C38.7952734,76.158457 42.7587891,78.1447852 39.9063867,77.9196094 C37.0026562,77.3170312 37.7231836,73.9008984 38.2549219,72.8898047 C39.7404492,70.0658789 39.2916797,67.4203711 39.2916797,64.5776367 C38.0432812,47.9784375 44.4499805,24.7373438 63.8741602,10.8829688 Z" id="Shape" fill="#4D4D4D"></path>
            <g id="Group" transform="translate(4.394531, 24.609375)" fill="#666666">
                <path d="M47.617207,22.9417383 L45.8110547,22.8587695 C49.560293,8.02441406 62.8788867,3.58927734 62.9168555,3.57873047 C62.4041016,4.53814453 51.66,6.94511719 47.617207,22.9417383 Z" id="Shape"></path>
                <path d="M66.4876758,23.5283203 L64.9353516,23.4007031 C65.6462109,15.1326563 71.0391797,11.5848633 71.0542969,11.5755469 C70.3545117,12.5562305 67.2417773,14.7608789 66.4876758,23.5283203 Z" id="Shape"></path>
                <path d="M38.2767187,0.0827929688 C38.2264453,0.111445313 20.4662109,10.6941797 21.2895703,23.7311719 L19.2176367,23.7230859 C18.7843359,16.8628711 24.3680273,7.73771484 38.2767187,0.0827929688 Z" id="Shape"></path>
                <path d="M1.59240234,24.1831055 L0.110566406,24.0612891 C0.634921875,17.9641406 4.94824219,15.3759375 4.95949219,15.3692578 C4.44322266,16.0920703 2.14804687,17.7180469 1.591875,24.183457 L1.59240234,24.1831055 Z" id="Shape"></path>
            </g>
            <path d="M56.7407812,79.5654492 C57.7248047,79.5654492 58.5225,80.3629687 58.5225,81.347168 C58.5225,82.3311914 57.7249805,83.1287109 56.7407812,83.1287109 C55.7567578,83.1287109 54.9592383,82.3311914 54.9592383,81.347168 C54.9592383,80.3629687 55.7567578,79.5654492 56.7407812,79.5654492 Z M20.1469922,65.585918 C21.5096484,65.585918 22.6139062,66.6905273 22.6139062,68.052832 C22.6139062,69.4154883 21.5092969,70.5197461 20.1469922,70.5197461 C18.7843359,70.5197461 17.6800781,69.4151367 17.6800781,68.052832 C17.6799023,66.69 18.7845117,65.585918 20.1469922,65.585918 Z M56.8780664,67.5045703 C58.6951172,67.5045703 60.1672852,68.9774414 60.1672852,70.7937891 C60.1672852,72.6108398 58.6944141,74.0830078 56.8780664,74.0830078 C55.0610156,74.0830078 53.5888477,72.6101367 53.5888477,70.7937891 C53.5886719,68.9770898 55.061543,67.5045703 56.8780664,67.5045703 Z" id="Shape" fill="#FF5B62"></path>
            <path d="M3.9065625,52.8231445 C5.33970703,52.7262891 9.39462891,52.7491406 11.9761523,52.9773047 C12.2120508,52.9804687 13.055625,53.9462109 11.9246484,54.3404883 C10.7941992,54.7347656 8.87484375,54.5363086 7.09330078,54.5363086 C5.31175781,54.5363086 4.00939453,54.5363086 3.59859375,54.2622656 C3.18744141,53.9882227 3.18744141,53.3371289 3.90708984,52.8231445 L3.9065625,52.8231445 Z M76.7010938,54.6226172 C77.2495313,55.2733594 84.3595313,54.8114063 84.1536914,54.5027344 C83.9482031,54.1942383 83.9824805,53.0978906 82.9200586,52.6524609 C80.8674609,52.6865625 77.2382812,52.3434375 76.7615625,52.7547656 C76.3301953,53.0346094 76.3099805,54.0685547 76.7010938,54.622793 L76.7010938,54.6226172 Z M59.0524805,52.5893555 C60.0117188,52.0755469 62.2583789,52.515 65.9589258,52.8575977 C69.6594727,53.2001953 71.2216406,52.9966406 71.5127344,53.4765234 C71.8041797,53.9564063 71.6368359,54.575332 71.0296875,54.8446289 C70.4227148,55.1139258 61.0129687,54.9597656 59.612168,54.0407813 C58.2118945,53.1217969 59.0517773,52.5888281 59.0517773,52.5888281 L59.0524805,52.5893555 Z M44.3343164,52.7526562 C45.4308398,52.8212109 45.6748242,53.2692773 48.0049805,52.9607812 C50.3349609,52.6522852 52.4717578,52.4636719 52.5658008,53.4332813 C52.7106445,54.9253125 49.2595312,55.0156641 47.5250977,54.7766016 C46.5314062,54.6394922 44.9852344,54.9116016 44.4373242,54.637207 C43.8888867,54.3629883 43.6491211,53.7118945 44.3343164,52.7526562 Z M29.3547656,53.2256836 C32.2811719,53.1523828 35.3054883,52.6788281 36.9279492,52.4652539 C38.5504102,52.2516797 37.4197852,54.6600586 36.8031445,54.6992578 C36.1868555,54.738457 29.7764648,55.5642773 29.5024219,54.9472852 C29.2283789,54.330293 28.3955273,53.396543 29.3547656,53.225332 L29.3547656,53.2256836 Z M24.4311328,52.8916992 C25.4591016,52.8916992 25.5276562,53.1657422 25.2536133,53.9882227 C24.9795703,54.8107031 24.9451172,54.7764258 22.1356055,54.8449805 C19.3260938,54.9131836 15.8983594,54.781875 15.6251953,54.2624414 C14.4796289,51.5722852 23.1370313,52.891875 24.4311328,52.891875 L24.4311328,52.8916992 Z" id="Shape" fill="#ED4C54"></path>
            <path d="M59.4203906,75.7117969 C59.4986133,75.7947656 59.4943945,75.92625 59.4114258,76.0041211 C59.328457,76.0823438 59.1969727,76.078125 59.1191016,75.9951563 C59.1124219,75.988125 56.8905469,73.5097852 54.2984766,77.1380859 C51.9537305,80.4208008 50.4200391,80.8335352 49.9735547,80.8799414 C49.5065039,81.5888672 48.9399609,82.1476758 48.3016992,82.5895898 C50.8941211,82.6338867 54.3775781,85.2038086 54.3891797,85.2122461 C54.4811133,85.2795703 54.5011523,85.4091211 54.4336523,85.5014063 C54.3663281,85.5933398 54.2367773,85.6133789 54.1444922,85.5460547 C54.1313086,85.5363867 49.6114453,82.2039258 47.2941211,83.1686133 L47.1457617,83.2368164 L47.1410156,83.2391016 L47.1364453,83.2413867 L47.1360938,83.2417383 L47.0235938,83.290957 C45.2369531,84.0578906 43.1233594,84.2145117 41.1155859,84.2839453 C36.1582031,84.4548047 38.4929297,88.3824609 37.8344531,88.6623047 C37.7293359,88.7069531 37.5043359,88.655625 37.4596875,88.5510352 C37.4577539,88.5462891 36.9135352,85.2451172 38.5029492,84.4757227 C37.1810742,83.6901563 32.2855664,80.6755078 32.5455469,79.2442969 C32.6478516,78.6810938 32.2463672,78.1432031 31.6059961,77.6705273 C31.1755078,77.3523633 30.6402539,77.0667188 30.0731836,76.8220313 C27.0555469,79.0219336 23.2500586,76.2365039 23.2391602,76.228418 C23.1461719,76.1617969 23.1247266,76.0322461 23.1915234,75.9392578 C23.2581445,75.8462695 23.3876953,75.8248242 23.4806836,75.8916211 C23.4907031,75.8990039 26.8760742,78.3762891 29.6143945,76.6358789 C29.152793,76.4586914 28.6829297,76.3092773 28.241543,76.1916797 C26.0753906,75.6137109 24.9475781,71.9500781 24.9445898,71.9400586 C24.911543,71.8310742 24.9732422,71.7157617 25.0820508,71.6827148 C25.1910352,71.649668 25.3065234,71.7113672 25.3393945,71.8201758 C25.3420313,71.8298438 26.402168,75.2730469 28.3470117,75.7919531 C28.9137305,75.943125 29.527207,76.1461523 30.1150195,76.3922461 L30.1197656,76.3938281 L30.129082,76.3976953 L30.1338281,76.3996289 L30.1350586,76.3999805 C30.7675195,76.6662891 31.3697461,76.9825195 31.8524414,77.3388281 C32.6148047,77.9020313 33.0876563,78.5708789 32.9519531,79.3177734 C32.8538672,79.8572461 33.7833984,80.7498633 34.9437305,81.6322852 C34.9518164,81.6226172 34.9616602,81.6136523 34.9720313,81.6050391 C36.4195898,80.4723047 34.5716016,76.2414258 34.5663281,76.2294727 C34.5216797,76.1243555 34.5705469,76.0028906 34.6756641,75.9582422 C34.7807813,75.9135938 34.9022461,75.9624609 34.9468945,76.0675781 C34.9523438,76.0804102 36.8862891,80.4960352 35.2814063,81.8841797 C36.7820508,82.9836914 38.5249219,84.0121875 38.9408203,84.2538867 C39.4403906,84.0499805 40.1361328,83.9051367 41.1027539,83.8717383 C43.0692188,83.8038867 45.1362305,83.6514844 46.8616992,82.9114453 L46.9745508,82.861875 C47.0218359,82.837793 47.0698242,82.8161719 47.1186914,82.7952539 C48.7003711,82.0448437 49.9723242,80.7465234 50.5720898,78.4745508 C51.8542383,73.615957 50.5209375,70.9502344 50.5175977,70.9428516 C50.4676758,70.8401953 50.5102148,70.7162695 50.6128711,70.6661719 C50.7155273,70.61625 50.8394531,70.6587891 50.8895508,70.7614453 C50.893418,70.7695312 52.2936914,73.570957 50.972168,78.5798438 C50.7900586,79.2704883 50.5485352,79.8764063 50.2579688,80.4081445 C50.8434961,80.2202344 52.094707,79.5139453 53.9620313,76.8999023 C56.8525781,72.8532422 59.4131836,75.7049414 59.420918,75.7132031 L59.420918,75.7117969 L59.4203906,75.7117969 Z" id="Shape" fill="#FF5B62"></path>
        </g>
    </g>
</svg>