<?xml version="1.0" encoding="UTF-8"?>
<svg width="92px" height="92px" viewBox="0 0 92 92" version="1.1" xmlns="http://www.w3.org/2000/svg" xmlns:xlink="http://www.w3.org/1999/xlink">
    <!-- Generator: Sketch 51.2 (57519) - http://www.bohemiancoding.com/sketch -->
    <title>ic_knee-pain</title>
    <desc>Created with Sketch.</desc>
    <defs></defs>
    <g id="ic_knee-pain" stroke="none" stroke-width="1" fill="none" fill-rule="evenodd">
        <g id="101-knee" transform="translate(1.000000, 1.000000)" fill-rule="nonzero">
            <circle id="Oval" fill="#21D0C3" cx="44.9998242" cy="44.9998242" r="44.9998242"></circle>
            <path d="M72.7166602,80.4533203 C73.2069141,69.4262109 73.9587305,49.8067383 73.8131836,36.0435937 C73.5999609,15.9205078 55.8729492,15.0264844 55.8729492,15.0264844 L11.4347461,15.0264844 C4.32298828,22.9846289 0,33.4873828 0,45 C0,48.0564844 0.304804688,51.0419531 0.885761719,53.9274023 C9.58939453,54.4524609 37.7049023,44.9470898 43.0597266,43.8695508 C48.612832,42.7517578 48.4003125,47.4465234 48.4003125,47.4465234 C47.6372461,58.2890625 44.6876367,71.0891016 52.2042188,83.3837695 C52.2959766,83.5335352 52.9908398,86.5583789 53.6030859,89.1789258 C60.7137891,87.8020312 67.2268359,84.7516992 72.7170117,80.4540234 L72.7166602,80.4533203 Z" id="Shape" fill="#FED298"></path>
            <path d="M65.1373242,18.225 C60.5561133,15.2630859 55.8729492,15.0266602 55.8729492,15.0266602 L49.622168,15.0266602 C49.9011328,18.2513672 51.1210547,36.5967773 43.547168,43.7839453 C45.3329297,43.5179883 46.4626758,43.8975 47.1772266,44.4990234 C48.4838086,45.6006445 48.4003125,47.4461719 48.4003125,47.4461719 C48.294668,48.9464648 48.1471875,50.4845508 47.9914453,52.0542773 C47.8014258,53.9644922 47.5994531,55.9209375 47.4454688,57.910957 C50.0491406,54.7516406 56.6488477,48.2855273 67.3736133,47.760293 L73.7128125,50.6833594 C73.8077344,45.8061328 73.8645117,40.9220508 73.812832,36.0437695 C73.8086133,35.6517773 73.7980664,35.2669922 73.7804883,34.8892383 C73.3688086,25.8475781 69.2950781,20.9135742 65.1366211,18.2251758 L65.1373242,18.225 Z" id="Shape" fill="#FAD24D"></path>
            <g id="Group" transform="translate(0.175781, 42.187500)" fill="#F0BA7D">
                <path d="M55.3832227,46.5665625 L54.2508398,41.1282422 C54.2508398,41.1282422 47.9663086,35.0609766 47.0475,23.653125 C47.2568555,29.439668 48.4693945,35.3745703 52.0279102,41.1957422 C52.119668,41.3455078 52.8145313,44.3703516 53.4267773,46.9908984 C54.0838477,46.8636328 54.7361719,46.7221289 55.3826953,46.5667383 L55.3832227,46.5667383 L55.3832227,46.5665625 Z" id="Shape"></path>
                <path d="M44.7241992,0.0806835938 C16.5492773,8.9746875 4.48804687,8.70503906 0.115664062,7.96130859 C0.260859375,9.23800781 0.459667969,10.4981836 0.709980469,11.7399023 C9.41361328,12.2649609 37.5291211,2.75958984 42.8839453,1.68205078 C43.0518164,1.64830078 43.2140625,1.61982422 43.3713867,1.59626953 C43.8577734,1.13466797 44.3077734,0.627539062 44.7241992,0.0806835938 Z" id="Shape"></path>
            </g>
            <g id="Group" transform="translate(47.988281, 19.511719)" fill="#EDB937">
                <path d="M19.0089844,0.0868359375 L0.116191406,26.3144531 C0.212167969,26.5593164 0.27703125,26.7982031 0.321503906,27.0138867 L20.040293,1.02410156 C19.702793,0.692226562 19.3584375,0.379511719 19.0091602,0.0861328125 L19.0091602,0.0866601562 L19.0089844,0.0866601562 L19.0089844,0.0868359375 Z" id="Shape"></path>
                <path d="M19.3856836,28.2482227 L4.36833984,21.7937109 L4.06441406,22.0468359 L16.9563867,28.4741016 C17.7405469,28.3656445 18.5501953,28.2886523 19.3848047,28.2482227 L19.3856836,28.2482227 Z" id="Shape"></path>
                <path d="M25.8287695,16.9261523 L4.85402344,21.0072656 L4.24125,21.8151562 L25.8387891,18.2155078 C25.8365039,17.7858984 25.8328125,17.3561133 25.8291211,16.9263281 L25.8287695,16.9261523 Z" id="Shape"></path>
                <path d="M0.0031640625,32.542207 C0.0031640625,32.542207 4.40683594,25.6491211 8.55105469,24.2838281 L7.93177734,23.9748047 C7.59515625,23.8069336 3.61054687,26.0173828 0.181054687,30.706875 C0.124453125,31.3136719 0.0643359375,31.9253906 0.0031640625,32.5425586 L0.0031640625,32.542207 Z" id="Shape"></path>
            </g>
            <path d="M49.6638281,15.5364258 C49.6638281,15.5364258 55.9160156,15.2838281 59.342168,16.3114453 C62.7684961,17.3392383 68.0454492,19.8063281 70.5121875,25.7686523 C72.9791016,31.7308008 72.9101953,37.2817969 73.0476562,41.3934961 C73.1845898,45.5053711 73.7129883,50.6831836 73.7129883,50.6831836 C73.8079102,45.805957 73.8646875,40.921875 73.8130078,36.0435937 C73.8087891,35.6516016 73.7982422,35.2668164 73.7806641,34.8890625 C73.3689844,25.8474023 69.2952539,20.9133984 65.1367969,18.225 C60.5555859,15.2630859 55.8724219,15.0266602 55.8724219,15.0266602 L49.6216406,15.0266602 C49.6341211,15.1676367 49.6480078,15.3399023 49.6627734,15.5366016 L49.6638281,15.5364258 Z" id="Shape" fill="#FFDB66"></path>
            <path d="M44.8982227,42.2690625 L44.8999805,42.2681836 C44.8999805,42.2681836 50.5444922,41.8088672 51.0663867,44.6312109 C51.5882812,47.4535547 48.0735352,52.3441406 47.4454687,57.9106055 C47.5994531,55.9205859 47.8014258,53.9643164 47.9914453,52.0539258 C48.1471875,50.4847266 48.2944922,48.9468164 48.4003125,47.4458203 C48.4003125,47.4458203 48.4838086,45.5997656 47.1772266,44.4986719 C46.4630273,43.8969727 45.3329297,43.5174609 43.547168,43.7835938 C44.0330273,43.3225195 44.4821484,42.8150391 44.8982227,42.2690625 Z" id="Shape" fill="#EDB937"></path>
        </g>
    </g>
</svg>