<?xml version="1.0" encoding="UTF-8"?>
<svg width="92px" height="92px" viewBox="0 0 92 92" version="1.1" xmlns="http://www.w3.org/2000/svg" xmlns:xlink="http://www.w3.org/1999/xlink">
    <!-- Generator: Sketch 51.2 (57519) - http://www.bohemiancoding.com/sketch -->
    <title>ic_kidney</title>
    <desc>Created with Sketch.</desc>
    <defs></defs>
    <g id="ic_kidney" stroke="none" stroke-width="1" fill="none" fill-rule="evenodd">
        <g id="101-kidneys" transform="translate(1.000000, 1.000000)" fill-rule="nonzero">
            <circle id="Oval" fill="#21D0C3" cx="44.9998242" cy="44.9998242" r="44.9998242"></circle>
            <path d="M46.6785352,39.6138867 C48.275332,39.8119922 49.0252148,39.3220898 50.5232227,41.3650195 C52.0210547,43.4074219 57.7103906,46.5011719 58.625332,48.7599609 L59.3889258,48.2788477 C58.4216016,45.7405664 52.6141406,42.6394336 51.2449805,40.8018164 C51.2449805,40.8018164 51.4808789,40.2053906 52.6053516,40.4242383 C53.7294727,40.6432617 59.9053711,41.6752734 59.9053711,41.6752734 L60.4457227,40.9306641 C60.4457227,40.9306641 53.6027344,39.4966406 52.7074805,39.3943359 C51.8122266,39.2916797 51.2091211,39.2632031 51.2936719,39.0793359 C51.3782227,38.8956445 56.7840234,36.1620703 59.7817969,36.0170508 C59.7817969,36.0170508 59.9712891,35.3615625 59.5116211,35.1509766 C59.0523047,34.9403906 51.5874023,37.4735742 50.7157031,37.9965234 C49.8445313,38.5196484 47.4632227,36.9926367 47.4632227,36.9926367 C46.2346875,36.4807617 45.0820898,39.4161328 46.6788867,39.6133594 L46.6785352,39.6138867 Z" id="Shape" fill="#FF5B62"></path>
            <path d="M43.6835742,30.4412695 C43.6835742,30.4412695 45.5465039,29.115 47.745,30.0396094 C49.9784766,45.2649023 46.6671094,63.5264648 45.9727734,82.5584766 L42.6081445,82.419082 C43.7081836,63.6758789 46.3111523,46.2612305 43.6835742,30.4412695 Z" id="Shape" fill="#ED4C54"></path>
            <path d="M44.443125,39.1185352 C42.8334961,39.6050977 42.208418,40.225957 39.8845898,38.9944336 C37.5607617,37.7636133 30.739043,37.8110742 28.8768164,36.1404492 L28.3594922,36.895957 C30.3941602,38.7986133 37.3320703,38.7089648 39.4433789,39.8074219 C39.4433789,39.8074219 39.4790625,40.4481445 38.3109961,40.7183203 C37.1424023,40.9884961 29.0881055,43.0597266 29.0881055,43.0597266 L28.8986133,43.9616602 C28.8986133,43.9616602 37.7657227,41.9772656 38.6644922,41.6970703 C39.5636133,41.4165234 40.1510742,41.1906445 40.1510742,41.3931445 C40.1510742,41.5954687 32.8705664,46.7488477 30.0733594,48.1313672 C30.0733594,48.1313672 30.1800586,48.8056641 30.7105664,48.8056641 C31.2416016,48.8056641 40.5741797,42.9746484 41.1760547,42.1354687 C41.7782813,41.2962891 44.8419727,41.8276758 44.8419727,41.8276758 C46.2387305,41.7803906 46.0527539,38.6321484 44.4427734,39.1185352 L44.443125,39.1185352 Z" id="Shape" fill="#FF5B62"></path>
            <g id="Group" transform="translate(30.937500, 34.804688)" fill="#076673">
                <path d="M13.5079102,9.08753906 C15.2298633,8.87396484 16.0388086,9.4021875 17.6542383,7.19929688 C19.269668,4.99640625 20.3797266,2.60613281 21.3669141,0.170332031 L22.1900977,0.688886719 C21.1468359,3.42597656 19.9091602,5.82503906 18.4325977,7.80697266 C18.4325977,7.80697266 18.6876563,8.44998047 19.9000195,8.21390625 C21.1123828,7.97800781 27.772207,6.86478516 27.772207,6.86478516 L28.3552734,7.66740234 C28.3552734,7.66740234 20.9754492,9.21392578 20.0100586,9.32431641 C19.0443164,9.43488281 18.3939258,9.46564453 18.485332,9.66375 C18.5763867,9.86220703 24.4066992,12.8100586 27.639668,12.9661523 C27.639668,12.9661523 27.8439258,13.6729687 27.3482227,13.9006055 C26.8530469,14.1271875 18.8022656,11.3960742 17.8625391,10.8314648 C16.9226367,10.2670312 14.3546484,11.9139258 14.3546484,11.9139258 C13.0299609,12.4658789 11.7866602,9.30005859 13.5084375,9.08736328 L13.5079102,9.08753906 Z" id="Shape"></path>
                <path d="M11.3802539,10.7131641 C9.770625,11.1995508 9.14554688,11.8205859 6.82171875,10.5890625 C4.49789063,9.35771484 2.54496094,7.77322266 0.682558594,6.10259766 L0.165234375,6.85845703 C2.19990234,8.76111328 4.26919922,10.3039453 6.38033203,11.4022266 C6.38033203,11.4022266 6.41601563,12.0429492 5.24794922,12.3129492 C4.07935547,12.583125 0.893671875,13.0213477 0.893671875,13.0213477 L0.704179688,13.9232812 C0.704179688,13.9232812 4.70267578,13.5713672 5.60144531,13.2911719 C6.50091797,13.010625 7.08802734,12.7847461 7.08802734,12.9872461 C7.08802734,13.1895703 4.67578125,16.7106445 1.87910156,18.0929883 C1.87910156,18.0929883 1.98580078,18.7672852 2.51630859,18.7672852 C3.04734375,18.7672852 7.51130859,14.5691016 8.11318359,13.7295703 C8.71541016,12.8903906 11.7791016,13.4217773 11.7791016,13.4217773 C13.1758594,13.3744922 12.9898828,10.22625 11.3799023,10.7126367 L11.3802539,10.7131641 Z" id="Shape"></path>
            </g>
            <path d="M58.0461328,40.070918 C58.0461328,40.070918 48.1111523,36.3329297 51.1686914,26.0221289 C54.2262305,15.7120313 68.6656055,18.9070313 72.0543164,22.5979102 C76.3330078,23.6473242 85.760332,35.0998242 81.9950977,47.9030273 C82.7896289,55.1450391 75.3681445,61.9113867 75.3681445,61.9113867 C75.3681445,61.9113867 68.9693555,72.1954687 58.4980664,68.2374023 C48.0267773,64.2791602 52.4733398,51.8192578 56.6908594,50.7650977 C58.4488477,50.3256445 57.8585742,50.1741211 58.3896094,49.0788281 C57.391875,47.300625 56.7286523,42.4641797 58.0461328,40.070918 Z" id="Shape" fill="#FF5B62"></path>
            <g id="Group" transform="translate(50.449219, 25.312500)" fill="#ED4C54">
                <path d="M7.39212891,15.1820508 C7.43554688,15.1657031 14.5807031,12.4780078 15.4675195,7.93177734 C15.4675195,7.93177734 12.2574023,12.654668 7.0228125,14.5058203 C7.38017578,14.6766797 7.59691406,14.758418 7.59691406,14.758418 C7.52009766,14.8978125 7.45259766,15.0394922 7.39212891,15.1820508 Z M7.70238281,24.4903711 C7.75423828,24.399668 7.92650391,23.8675781 7.93986328,23.7659766 C7.94689453,23.7141211 15.1270312,26.4564844 16.0164844,31.01625 C16.0163086,31.01625 12.8596289,26.3728125 7.70238281,24.4903711 Z" id="Shape"></path>
                <path d="M21.1784766,19.7560547 C21.1784766,19.7560547 16.0621875,17.6705859 13.3096289,18.8105273 C10.5572461,19.9506445 8.80523438,19.8949219 8.80523438,19.8949219 C8.80523438,19.8949219 10.5989063,20.3542383 12.7958203,19.6449609 C14.9920313,18.9360352 18.1891406,19.3944727 21.1784766,19.7560547 Z" id="Shape"></path>
                <path d="M0.908789063,0.132714844 C1.08316406,4.854375 2.70861328,10.8866602 9.32097656,13.4578125 C9.32097656,13.4578125 8.40392578,15.7115039 9.61171875,20.0139258 C9.61171875,20.0139258 7.81681641,21.7858008 9.03990234,24.5109375 C9.03990234,24.5109375 -0.0877148437,30.0916406 4.73871094,41.0350781 C-1.29041016,35.971875 2.56166016,26.3721094 6.24128906,25.4525977 C7.99927734,25.0131445 7.40900391,24.8616211 7.94003906,23.7663281 C6.94283203,21.988125 6.27978516,17.1516797 7.59708984,14.758418 C7.59708984,14.758418 -2.33789062,11.0204297 0.719648438,0.709628906 C0.778183594,0.511523437 0.842167969,0.320800781 0.909140625,0.132890625 L0.908789063,0.132890625 L0.908789063,0.132714844 Z" id="Shape"></path>
                <path d="M32.2226367,13.6794727 C32.2293164,14.015918 32.3203711,20.0184961 30.6991406,22.3421484 C30.6991406,22.3421484 30.9770508,30.0723047 24.4708594,35.9114062 C24.4708594,35.9114062 19.8551953,43.4745703 11.847832,43.3633008 C10.0049414,43.3376367 8.38898437,42.9904687 6.99310547,42.4719141 C7.32744141,42.6327539 7.67742187,42.7848047 8.04884766,42.9249023 C18.5201367,46.8831445 24.9189258,36.5988867 24.9189258,36.5988867 C24.9189258,36.5988867 32.3404102,29.8321875 31.5458789,22.5905273 C32.4551953,19.4987109 32.5935352,16.4861719 32.2226367,13.6794727 Z" id="Shape"></path>
            </g>
            <path d="M52.6134375,23.0217187 C53.2747266,22.2612891 62.6545898,16.2791016 71.5543945,23.326875 C78.6088477,26.0383008 81.6308789,34.6937695 82.8609961,41.5353516 C82.7033203,31.5070312 75.6058008,23.469082 72.0543164,22.5979102 C69.0489844,19.3252148 57.3558398,16.4438086 52.6132617,23.021543 L52.6132617,23.0217187 L52.6134375,23.0217187 Z" id="Shape" fill="#FF878E"></path>
            <path d="M31.9535156,40.070918 C31.9535156,40.070918 41.8884961,36.3329297 38.830957,26.0221289 C35.773418,15.7120313 21.334043,18.9070313 17.945332,22.5979102 C13.6666406,23.6473242 4.23931641,35.0998242 8.00455078,47.9030273 C7.21001953,55.1452148 14.6315039,61.9115625 14.6315039,61.9115625 C14.6315039,61.9115625 21.030293,72.1956445 31.501582,68.2375781 C41.9728711,64.2795117 37.5263086,51.8194336 33.3087891,50.7652734 C31.5508008,50.3258203 32.1410742,50.1742969 31.6100391,49.0790039 C32.6077734,47.300625 33.2709961,42.4641797 31.9535156,40.070918 Z" id="Shape" fill="#FF5B62"></path>
            <g id="Group" transform="translate(7.031250, 25.312500)" fill="#ED4C54">
                <path d="M25.1270508,15.1820508 C25.0836328,15.1657031 17.9384766,12.4780078 17.0516602,7.93177734 C17.0516602,7.93177734 20.2617773,12.654668 25.4963672,14.5058203 C25.1390039,14.6766797 24.9222656,14.758418 24.9222656,14.758418 C24.999082,14.8978125 25.066582,15.0394922 25.1270508,15.1820508 Z M24.8167969,24.4903711 C24.7649414,24.399668 24.5928516,23.8675781 24.5793164,23.7659766 C24.5722852,23.7141211 17.3926758,26.4564844 16.5026953,31.01625 C16.5028711,31.01625 19.6595508,26.3728125 24.8167969,24.4903711 Z" id="Shape"></path>
                <path d="M11.3407031,19.7560547 C11.3407031,19.7560547 16.4569922,17.6705859 19.2095508,18.8105273 C21.9619336,19.9506445 23.7139453,19.8949219 23.7139453,19.8949219 C23.7139453,19.8949219 21.9202734,20.3542383 19.7238867,19.6449609 C17.5271484,18.9360352 14.3303906,19.3944727 11.3407031,19.7560547 Z" id="Shape"></path>
                <path d="M31.6103906,0.132714844 C31.4360156,4.854375 29.8100391,10.8866602 23.1982031,13.4578125 C23.1982031,13.4578125 24.1152539,15.7115039 22.9071094,20.0139258 C22.9071094,20.0139258 24.7020117,21.7858008 23.47875,24.5109375 C23.47875,24.5109375 32.6063672,30.0916406 27.7799414,41.0350781 C33.8090625,35.971875 29.9569922,26.3721094 26.2773633,25.4525977 C24.519375,25.0131445 25.1096484,24.8616211 24.5786133,23.7663281 C25.5758203,21.988125 26.239043,17.1516797 24.9215625,14.758418 C24.9215625,14.758418 34.856543,11.0204297 31.7990039,0.709628906 C31.7404688,0.511523437 31.6764844,0.320800781 31.6095117,0.132890625 L31.6103906,0.132890625 L31.6103906,0.132714844 Z" id="Shape"></path>
                <path d="M0.296542969,13.6794727 C0.289863281,14.015918 0.198808594,20.0184961 1.82003906,22.3421484 C1.82003906,22.3421484 1.54212891,30.0723047 8.04832031,35.9114062 C8.04832031,35.9114062 12.6639844,43.4745703 20.6713477,43.3633008 C22.5142383,43.3376367 24.1300195,42.9904687 25.5260742,42.4719141 C25.1920898,42.6327539 24.8417578,42.7848047 24.470332,42.9249023 C13.999043,46.8831445 7.60060547,36.5988867 7.60060547,36.5988867 C7.60060547,36.5988867 0.178769531,29.8321875 0.973652344,22.5905273 C0.0643359375,19.4988867 -0.073828125,16.4863477 0.297070312,13.6794727 L0.296542969,13.6794727 Z" id="Shape"></path>
            </g>
            <path d="M37.3862109,23.0217187 C36.7249219,22.2612891 27.3450586,16.2791016 18.4452539,23.326875 C11.390625,26.038125 8.36876953,34.6937695 7.13865234,41.5353516 C7.29632813,31.5070313 14.3938477,23.469082 17.9456836,22.5979102 C20.9510156,19.3252148 32.6438086,16.4438086 37.3862109,23.021543 L37.3862109,23.0217187 Z" id="Shape" fill="#FF878E"></path>
            <path d="M45.397793,33.2372461 C45.397793,33.2372461 43.5352148,31.9118555 41.3367187,32.8361133 C39.1035937,48.0608789 46.7731055,63.5266406 47.4669141,82.5586523 L50.8318945,82.4192578 C49.7315039,63.6758789 42.7700391,49.0575586 45.397793,33.2372461 Z" id="Shape" fill="#0F7986"></path>
        </g>
    </g>
</svg>