<?xml version="1.0" encoding="UTF-8"?>
<svg width="92px" height="92px" viewBox="0 0 92 92" version="1.1" xmlns="http://www.w3.org/2000/svg" xmlns:xlink="http://www.w3.org/1999/xlink">
    <!-- Generator: Sketch 51.2 (57519) - http://www.bohemiancoding.com/sketch -->
    <title>ic_liver</title>
    <desc>Created with Sketch.</desc>
    <defs></defs>
    <g id="ic_liver" stroke="none" stroke-width="1" fill="none" fill-rule="evenodd">
        <g id="101-liver" transform="translate(1.000000, 1.000000)" fill-rule="nonzero">
            <circle id="Oval" fill="#ECF0F1" cx="44.9998242" cy="44.9998242" r="44.9998242"></circle>
            <circle id="Oval" fill="#21D0C3" cx="44.9998242" cy="44.9998242" r="44.9998242"></circle>
            <path d="M59.5202344,19.485 C48.227168,17.0333789 23.3623828,17.2248047 14.1080273,26.8548047 C1.47410156,41.6960156 5.55222656,75.8656055 13.4934961,82.7845313 C21.4347656,89.703457 31.4029688,62.1615234 39.3029297,63.0283008 C47.203418,63.8956055 58.4854102,50.6891602 58.4854102,50.6891602 C58.4854102,50.6891602 70.2958008,47.6049023 73.8059766,42.5207813 C77.3161523,37.4375391 84.6989648,29.4345703 89.3091797,26.4167578 C93.919043,23.4 74.4741211,13.7967188 59.5200586,19.4844727 L59.5202344,19.485 Z" id="Shape" fill="#FF5B62"></path>
            <path d="M77.7670313,31.1405273 C75.0084961,32.9008008 64.5331641,39.0571875 59.6445117,40.3205273 C55.0392188,41.5102148 55.415918,38.5679883 50.8925391,42.2442773 C32.6482031,57.0716016 35.1980859,46.5424805 24.1927734,53.3151563 C18.0374414,57.1028906 10.4749805,64.3085156 10.963125,71.8686914 C11.4519727,79.4285156 14.2860938,82.466543 14.2860938,82.466543 L14.2855664,82.4646094 C12.9926953,80.8918945 12.6216211,77.5794727 11.6731055,72.1808789 C10.1339648,63.4215234 26.8068164,50.7928711 32.5077539,51.7016602 C40.6757813,53.0036719 54.4078125,41.0480859 54.4078125,41.0480859 C54.5276953,41.1075 54.648457,41.1628711 54.7692188,41.2149023 L54.8715234,41.257793 C54.9641602,41.2966406 55.0578516,41.3328516 55.1510156,41.3674805 L55.2473438,41.4035156 C55.4925586,41.4901758 55.7391797,41.5640039 55.9887891,41.6239453 L56.0935547,41.6480273 C56.1884766,41.6698242 56.2835742,41.6891602 56.3784961,41.7065625 L56.4808008,41.7255469 C56.6063086,41.7468164 56.7316406,41.7661523 56.8575,41.7807422 L56.885625,41.7839062 C57.0009375,41.7969141 57.1169531,41.8079883 57.2333203,41.8157227 L57.3546094,41.8231055 C57.4483008,41.8282031 57.5418164,41.8318945 57.6355078,41.8336523 L57.7448438,41.8359375 C57.8717578,41.8373437 57.9988477,41.8359375 58.1261133,41.8317187 L58.1855273,41.8285547 C58.2976758,41.8239844 58.4096484,41.8166016 58.5225,41.8078125 L58.6321875,41.7981445 C58.7344922,41.7888281 58.8375,41.7777539 58.9406836,41.7649219 L59.0352539,41.7533203 C59.1662109,41.7357422 59.2980469,41.7164062 59.4304102,41.6933789 L59.5031836,41.6800195 C59.6128711,41.6601562 59.7232617,41.6388867 59.8336523,41.6160352 L59.9540625,41.5901953 C60.0574219,41.5675195 60.1611328,41.5432617 60.2648438,41.5174219 L60.3671484,41.4919336 C60.500918,41.457832 60.6355664,41.4214453 60.7702148,41.3822461 L60.8463281,41.3592187 C60.9574219,41.3263477 61.069043,41.2918945 61.1801367,41.2563867 L61.3147852,41.2120898 C61.4125195,41.1797461 61.5107813,41.1461719 61.6085156,41.111543 L61.7354297,41.0667187 C61.8723633,41.0175 62.0092969,40.9661719 62.146582,40.9123828 L62.2125,40.8860156 C62.3300977,40.8399609 62.4480469,40.7919727 62.5661719,40.7427539 L62.6948438,40.6884375 C62.8124414,40.6386914 62.9303906,40.5870117 63.0485156,40.5344531 L63.1139063,40.5058008 C63.2576953,40.4412891 63.4021875,40.3748437 63.547207,40.3052344 L63.6500391,40.2560156 C63.7584961,40.2039844 63.8676563,40.1508984 63.9768164,40.096582 L64.1242969,40.0227539 C64.2441797,39.9624609 64.3635352,39.9009375 64.4839453,39.8383594 L64.5442383,39.8074219 C64.6936523,39.7290234 64.8444727,39.6488672 64.9947656,39.5667773 L65.0768555,39.5216016 C65.2051758,39.4516406 65.3331445,39.380625 65.4618164,39.3080273 L65.5504102,39.2582812 C65.6818945,39.1835742 65.8146094,39.1079883 65.9466211,39.0309961 L66.0185156,38.9893359 C66.1733789,38.8995117 66.328418,38.8072266 66.4841602,38.7140625 L66.5393555,38.6808398 C66.6699609,38.6024414 66.8007422,38.5231641 66.9322266,38.4430078 L67.0623047,38.3632031 L67.4739844,38.1072656 L67.5145898,38.0817773 C67.6777148,37.9794727 67.8413672,37.8752344 68.00625,37.7699414 L68.0394727,37.7486719 L68.5038867,37.4489648 L68.5573242,37.4138086 L69.0416016,37.0958203 L69.048457,37.09125 L69.0873047,37.0657617 C71.8048828,35.267168 74.6931445,33.1658789 77.7665039,31.14 L77.7680859,31.14 L77.7680859,31.1405273 L77.7670313,31.1405273 Z" id="Shape" fill="#FC6F76"></path>
            <g id="Group" transform="translate(11.425781, 18.984375)" fill="#ED4C54">
                <path d="M78.4527539,6.8315625 L78.418125,6.86619141 C78.418125,6.86619141 77.7394336,6.00908203 76.5411328,6.51216797 C62.3371289,12.4743164 51.4854492,26.287207 42.982207,22.0638867 C42.982207,22.0638867 29.25,34.0196484 21.0821484,32.7174609 C15.3815625,31.8086719 -1.29164062,44.4364453 0.2475,53.1966797 C1.78611328,61.9548047 1.80457031,65.2243359 6.70570313,64.4791992 C13.6622461,61.4172656 21.45375,43.3399219 27.8778516,44.045332 C35.7783398,44.9121094 47.060332,31.7061914 47.060332,31.7061914 C47.060332,31.7061914 58.8707227,28.6219336 62.3808984,23.5372852 C65.8916016,18.454043 73.2738867,10.4510742 77.8841016,7.43326172 C78.1570898,7.25484375 78.3428906,7.05234375 78.4531055,6.83208984 L78.4525781,6.83208984 L78.4525781,6.8315625 L78.4527539,6.8315625 Z" id="Shape"></path>
                <path d="M49.2180469,0.104589844 C42.3036914,6.18064453 43.7034375,14.7410156 44.6073047,22.6511719 L41.6703516,23.1503906 C41.7241406,10.480957 41.8584375,5.62957031 47.7527344,0.428203125 L49.2180469,0.1040625 L49.2180469,0.104589844 Z" id="Shape"></path>
            </g>
            <g id="Group" transform="translate(5.976562, 17.578125)" fill="#FF878E">
                <path d="M83.0334375,5.9709375 C82.8212695,5.85140625 69.5367773,-1.59714844 58.3808203,1.86697266 L52.3780664,3.99199219 L53.3998828,1.87664062 L53.5431445,1.90705078 C65.0503125,-2.46990234 79.2138867,2.2078125 83.0334375,5.97058594 L83.0334375,5.9709375 Z" id="Shape"></path>
                <path d="M52.9667578,1.78699219 L53.2485352,2.19005859 L52.0277344,2.94451172 C52.0277344,2.94451172 16.9191211,-2.45337891 6.85705078,13.1725195 C-2.46726562,27.6533789 0.725625,47.5875 1.24400391,50.4318164 C-1.25964844,37.1972461 -0.186679687,19.0483594 8.13199219,9.27720703 C17.2318359,-0.192304687 41.4256641,-0.535429687 52.9672852,1.78699219 L52.9667578,1.78699219 Z" id="Shape"></path>
            </g>
            <path d="M53.7373828,71.6744531 L52.7668945,55.3076367 C52.981875,55.0059961 53.1620508,54.5892187 53.3620898,54.1281445 C53.7226172,53.2954687 54.1620703,52.2815625 54.7973438,51.979043 C56.5149023,51.1611328 57.5637891,50.6156836 57.5666016,50.61375 C57.7274414,50.2679883 57.5476172,49.6265625 57.0378516,49.6307812 C57.0350391,49.6321875 56.0401172,50.1489844 54.3169336,50.969707 C53.3084766,51.4497656 52.7763867,52.6779492 52.3393945,53.6869336 C52.1780273,54.0595898 52.0326563,54.3951562 51.9124219,54.5897461 C50.935957,53.3170898 49.9777734,49.7863477 49.9751367,49.7761523 C49.7228906,49.2952148 48.916582,49.4122852 48.8961914,50.0602148 C48.8990039,50.0712891 49.9533398,53.9484961 51.0927539,55.3501758 C51.2075391,55.4916797 51.3203906,55.6010156 51.4316602,55.6806445 L51.1393359,61.614668 C50.2950586,60.3706641 49.4041992,59.4198633 47.1427734,59.5075781 C44.8811719,59.5956445 41.8746094,59.2908398 41.2249219,58.605293 C40.5752344,57.9197461 36.6788672,52.8312305 31.9153711,54.2030273 C27.1524023,55.5742969 27.5131055,61.8526758 30.9770508,63.2963672 C34.4409961,64.7395312 38.9158594,62.1418359 40.2874805,62.2137305 C41.6592773,62.285625 46.5945117,61.464375 48.7311328,61.7085352 C49.8607031,61.8377344 50.6030273,62.6577539 51.0512695,63.4020117 L50.6220117,72.1242773 L53.7373828,71.6744531 Z" id="Shape" fill="#FAD24D"></path>
            <g id="Group" transform="translate(28.300781, 53.964844)" fill="#EDB937">
                <path d="M22.0361133,6.63521484 C21.34125,5.93121094 20.4292969,5.48068359 18.8418164,5.54203125 C16.5802148,5.63009766 13.5736523,5.32529297 12.9239648,4.63974609 C12.2742773,3.95419922 8.37791016,-1.13431641 3.61441406,0.237480469 C1.14363281,0.948867187 0.0516796875,2.98125 0.0567773438,4.97408203 C0.981210937,1.63546875 4.52601563,0.0803320313 7.67970703,1.13941406 C9.85605469,1.8703125 11.6259961,4.01097656 12.7488867,5.34708984 C13.3744922,5.80130859 16.1418164,6.31476562 18.0766406,6.01382813 C20.0026758,5.71412109 21.9172852,6.67546875 22.0368164,6.63486328 L22.0361133,6.63521484 Z" id="Shape"></path>
                <path d="M23.780918,17.2845703 C24.6556055,17.1646875 25.4228906,17.3888086 25.4942578,17.7857227 C25.565625,18.1828125 24.9141797,18.6013477 24.0394922,18.7212305 C23.1648047,18.8411133 22.3975195,18.6169922 22.3261523,18.2200781 C22.2547852,17.8231641 22.9060547,17.4044531 23.780918,17.2845703 Z" id="Shape"></path>
            </g>
        </g>
    </g>
</svg>