<?xml version="1.0" encoding="UTF-8"?>
<svg width="92px" height="92px" viewBox="0 0 92 92" version="1.1" xmlns="http://www.w3.org/2000/svg" xmlns:xlink="http://www.w3.org/1999/xlink">
    <!-- Generator: Sketch 51.2 (57519) - http://www.bohemiancoding.com/sketch -->
    <title>ic_lungs</title>
    <desc>Created with Sketch.</desc>
    <defs></defs>
    <g id="ic_lungs" stroke="none" stroke-width="1" fill="none" fill-rule="evenodd">
        <g id="101-lungs" transform="translate(1.000000, 1.000000)" fill-rule="nonzero">
            <circle id="Oval" fill="#FF5B62" cx="44.9998242" cy="44.9998242" r="44.9998242"></circle>
            <g id="Group" transform="translate(40.078125, 10.195312)" fill="#FEFEFE">
                <path d="M1.37478516,25.3174219 C3.56466797,26.0720508 5.75507812,26.0091211 7.94496094,25.3174219 C9.75181641,25.3174219 9.75181641,30.6755859 7.94496094,30.6755859 L1.37478516,30.6755859 C-0.431894531,30.6755859 -0.333632813,24.729082 1.37478516,25.3174219 Z" id="Shape"></path>
                <path d="M1.37478516,21.1074609 C3.56466797,21.8617383 5.75507812,21.7991602 7.94496094,21.1074609 C9.75181641,21.1074609 9.75181641,26.465625 7.94496094,26.465625 L1.37478516,26.465625 C-0.431894531,26.4658008 -0.333632813,20.5192969 1.37478516,21.1074609 Z" id="Shape"></path>
                <path d="M1.37478516,16.8973242 C3.56466797,17.6519531 5.75507812,17.5890234 7.94496094,16.8973242 C9.75181641,16.8973242 9.75181641,22.2554883 7.94496094,22.2554883 L1.37478516,22.2554883 C-0.431894531,22.2556641 -0.333632813,16.3091602 1.37478516,16.8973242 Z" id="Shape"></path>
                <path d="M1.37478516,12.6875391 C3.56466797,13.4418164 5.75507812,13.3792383 7.94496094,12.6875391 C9.75181641,12.6875391 9.75181641,18.0457031 7.94496094,18.0457031 L1.37478516,18.0457031 C-0.431894531,18.0458789 -0.333632813,12.099375 1.37478516,12.6875391 Z" id="Shape"></path>
                <path d="M1.37478516,8.47775391 C3.56466797,9.23238281 5.75507812,9.16945313 7.94496094,8.47775391 C9.75181641,8.47775391 9.75181641,13.835918 7.94496094,13.835918 L1.37478516,13.835918 C-0.431894531,13.835918 -0.333632813,7.88958984 1.37478516,8.47775391 Z" id="Shape"></path>
                <path d="M1.37478516,4.26796875 C3.56466797,5.02224609 5.75507812,4.95966797 7.94496094,4.26796875 C9.75181641,4.26796875 9.75181641,9.62613281 7.94496094,9.62613281 L1.37478516,9.62613281 C-0.431894531,9.62613281 -0.333632813,3.67980469 1.37478516,4.26796875 Z" id="Shape"></path>
                <path d="M1.37478516,0.058359375 C3.56466797,0.812988281 5.75507812,0.750058594 7.94496094,0.058359375 C9.75181641,0.058359375 9.75181641,5.41652344 7.94496094,5.41652344 L1.37478516,5.41652344 C-0.431894531,5.41634766 -0.333632813,-0.53015625 1.37478516,0.058359375 Z" id="Shape"></path>
            </g>
            <path d="M49.2989063,11.9801953 C49.0649414,12.2741016 48.7640039,12.4542773 48.3953906,12.4542773 L41.0765625,12.4542773 C40.7102344,12.4542773 40.4145703,12.2574023 40.1871094,11.9388867 C40.2510938,11.4528516 40.3723828,11.0156836 40.5499219,10.7026172 C40.7650781,11.1269531 41.0649609,11.4016992 41.4529102,11.4016992 L48.0230859,11.4016992 C48.3901172,11.4016992 48.682793,11.1803906 48.9009375,10.8275977 C49.0897266,11.1327539 49.2220898,11.5365234 49.2994336,11.9801953 L49.2989063,11.9801953 Z" id="Shape" fill="#EEF3F7"></path>
            <g id="Group" transform="translate(30.585938, 5.976562)" fill="#FEFEFE">
                <path d="M21.9561328,37.4932617 C24.3908789,43.1998242 30.0244922,42.2766211 29.323125,44.5093945 C28.621582,46.742168 27.9836719,48.4641211 25.36875,46.805625 C23.1038086,45.3703711 16.662832,43.5132422 15.9178711,39.8780859 L13.6037109,39.8780859 C12.85875,43.5132422 6.41777344,45.3703711 4.15283203,46.805625 C1.53791016,48.4641211 0.899472656,46.742168 0.198105469,44.5093945 C-0.5034375,42.2766211 5.13070312,43.1998242 7.56509766,37.4932617 C7.72857422,37.1102344 7.9565625,36.7871484 8.22832031,36.523125 C8.16169922,34.5759961 8.74458984,32.578418 9.9196875,32.983418 C12.7374609,33.9542578 15.5561133,33.8732227 18.3737109,32.983418 C19.3969336,32.983418 19.9696289,34.3186523 20.0921484,35.8136719 C20.8886133,36.0625781 21.5864648,36.6270117 21.9561328,37.4932617 Z" id="Shape"></path>
                <path d="M10.8669727,0.0673242188 C13.0568555,0.821601563 15.2472656,0.759023438 17.4371484,0.0673242188 C19.2440039,0.0673242188 19.2440039,5.42548828 17.4371484,5.42548828 L10.8669727,5.42548828 C9.06029297,5.4253125 9.15855469,-0.521191406 10.8669727,0.0673242188 Z" id="Shape"></path>
            </g>
            <g id="Group" transform="translate(31.640625, 14.765625)" fill="#EEF3F7">
                <path d="M17.6582813,1.42435547 C17.4243164,1.71826172 17.1233789,1.8984375 16.7547656,1.8984375 L9.4359375,1.8984375 C9.06960938,1.8984375 8.77394531,1.70121094 8.54648438,1.38304687 C8.61046875,0.897011719 8.73175781,0.45984375 8.90929687,0.146777344 C9.12445312,0.571113281 9.42433594,0.845859375 9.81228516,0.845859375 L16.3824609,0.845859375 C16.7494922,0.845859375 17.042168,0.624550781 17.2603125,0.271757812 C17.4491016,0.576914062 17.5814648,0.980683594 17.6588086,1.42435547 L17.6582813,1.42435547 Z" id="Shape"></path>
                <path d="M17.6582813,5.63378906 C17.4243164,5.92769531 17.1233789,6.10787109 16.7547656,6.10787109 L9.4359375,6.10787109 C9.06960938,6.10787109 8.77394531,5.91064453 8.54648438,5.59248047 C8.61046875,5.10644531 8.73175781,4.66927734 8.90929687,4.35621094 C9.12445312,4.78054687 9.42433594,5.05529297 9.81228516,5.05529297 L16.3824609,5.05529297 C16.7494922,5.05529297 17.042168,4.83398438 17.2603125,4.48119141 C17.4491016,4.78634766 17.5814648,5.19011719 17.6588086,5.63378906 L17.6582813,5.63378906 Z" id="Shape"></path>
                <path d="M17.6582813,9.84357422 C17.4243164,10.1374805 17.1233789,10.3176562 16.7547656,10.3176562 L9.4359375,10.3176562 C9.06960938,10.3176562 8.77394531,10.1204297 8.54648438,9.80226563 C8.61046875,9.31623047 8.73175781,8.8790625 8.90929687,8.56599609 C9.12445312,8.99033203 9.42433594,9.26507813 9.81228516,9.26507813 L16.3824609,9.26507813 C16.7494922,9.26507813 17.042168,9.04376953 17.2603125,8.69097656 C17.4491016,8.99613281 17.5814648,9.39990234 17.6588086,9.84357422 L17.6582813,9.84357422 Z" id="Shape"></path>
                <path d="M17.6582813,14.0533594 C17.4243164,14.3472656 17.1233789,14.5274414 16.7547656,14.5274414 L9.4359375,14.5274414 C9.06960938,14.5274414 8.77394531,14.3302148 8.54648438,14.0120508 C8.61046875,13.5260156 8.73175781,13.0888477 8.90929687,12.7757813 C9.12445312,13.2001172 9.42433594,13.4748633 9.81228516,13.4748633 L16.3824609,13.4748633 C16.7494922,13.4748633 17.042168,13.2535547 17.2603125,12.9007617 C17.4491016,13.205918 17.5814648,13.6096875 17.6588086,14.0533594 L17.6582813,14.0533594 Z" id="Shape"></path>
                <path d="M17.6582813,18.2626172 C17.4243164,18.5565234 17.1233789,18.7366992 16.7547656,18.7366992 L9.4359375,18.7366992 C9.06960938,18.7366992 8.77394531,18.5398242 8.54648438,18.2213086 C8.61046875,17.7352734 8.73175781,17.2981055 8.90929687,16.9850391 C9.12445312,17.409375 9.42433594,17.6841211 9.81228516,17.6841211 L16.3824609,17.6841211 C16.7494922,17.6841211 17.042168,17.4628125 17.2603125,17.1100195 C17.4491016,17.4151758 17.5814648,17.8189453 17.6588086,18.2626172 L17.6582813,18.2626172 Z" id="Shape"></path>
                <path d="M17.6582813,22.4720508 C17.4243164,22.765957 17.1233789,22.9461328 16.7547656,22.9461328 L9.4359375,22.9461328 C9.06960938,22.9461328 8.77394531,22.7489063 8.54648438,22.4307422 C8.61046875,21.944707 8.73175781,21.5075391 8.90929687,21.1944727 C9.12445312,21.6188086 9.42433594,21.8935547 9.81228516,21.8935547 L16.3824609,21.8935547 C16.7494922,21.8935547 17.042168,21.6722461 17.2603125,21.3194531 C17.4491016,21.6246094 17.5814648,22.0283789 17.6588086,22.4720508 L17.6582813,22.4720508 Z" id="Shape"></path>
                <path d="M27.3248437,37.9729688 C26.7386133,38.79 25.8815039,39.0107813 24.3140625,38.0169141 C22.0491211,36.5813086 15.6081445,34.7241797 14.8631836,31.0890234 L12.5490234,31.0890234 C11.8040625,34.7241797 5.36308594,36.5813086 3.09814453,38.0169141 C1.53070312,39.0111328 0.673945313,38.79 0.087890625,37.9729688 C0.569355469,37.5579492 1.52191406,37.5888867 2.35792969,37.3318945 C3.78333984,36.8931445 10.9374609,32.8088672 11.5952344,31.8772266 C12.2530078,30.9450586 11.896875,28.1766797 11.896875,28.1766797 C12.335625,28.587832 12.6087891,30.1916602 12.6087891,30.1916602 L13.7060156,30.2048437 L14.8032422,30.1916602 C14.8032422,30.1916602 15.0769336,28.5880078 15.5151563,28.1766797 C15.5151563,28.1766797 15.1590234,30.9454102 15.8167969,31.8772266 C16.4745703,32.8093945 23.6286914,36.8934961 25.0541016,37.3318945 C25.8901172,37.5888867 26.8426758,37.5574219 27.3241406,37.9729688 L27.3248437,37.9729688 Z" id="Shape"></path>
            </g>
            <path d="M38.6085938,32.0788477 C38.6085938,32.0788477 38.5732617,31.9695117 38.4966211,31.7970703 C38.1758203,31.0749609 37.126582,29.2498242 34.9034766,29.7755859 C32.1495117,30.4263281 18.3554297,38.186543 15.4008984,43.9442578 C12.446543,49.7023242 13.2475781,55.4853516 13.2475781,55.4853516 C13.2475781,55.4853516 7.98890625,63.8472656 7.98890625,74.9624414 C7.98890625,86.0779687 10.492207,87.3794531 12.1948242,88.2810352 C13.8970898,89.1826172 18.6038086,88.1810156 22.4091211,86.3783789 C26.2144336,84.5757422 26.4146484,84.3753516 26.4146484,84.3753516 C30.5481445,86.379082 37.7149219,85.8863672 36.7787109,80.2706836 C36.7787109,80.2706836 41.2850391,75.864375 41.6856445,71.9087695 C42.0860742,67.9536914 40.5342773,63.3468164 40.5342773,63.3468164 C40.5342773,63.3468164 43.3372852,60.3938672 43.3372852,55.6372266 C43.3372852,50.8805859 39.382207,51.4812305 38.4307031,44.0713477 C37.479375,36.6609375 39.4816992,34.1576367 38.6092969,32.0784961 L38.6085938,32.0788477 Z" id="Shape" fill="#FAD24D"></path>
            <path d="M26.4433008,84.3894141 C30.5810156,86.3773242 37.7128125,85.8740625 36.7787109,80.2710352 C36.7787109,80.2710352 41.2850391,75.8647266 41.6856445,71.9091211 C42.0860742,67.954043 40.5342773,63.347168 40.5342773,63.347168 C40.5342773,63.347168 43.3372852,60.3942188 43.3372852,55.6375781 C43.3372852,54.6725391 43.1745117,53.9275781 42.9071484,53.2919531 L42.709043,53.5631836 C43.0581445,57.6652148 41.3393555,61.3972266 39.1457812,62.4995508 C41.1067969,69.8913281 40.9028906,73.5328125 35.3631445,78.9456445 C35.3631445,78.9456445 35.4181641,83.6057813 32.4574805,84.3185742 C29.4967969,85.0313672 25.9843359,83.6368945 25.9843359,83.6368945 L26.4440039,84.3895898 L26.4433008,84.3894141 Z" id="Shape" fill="#EDB937"></path>
            <path d="M51.3910547,32.0788477 C51.3910547,32.0788477 51.4263867,31.9695117 51.5030273,31.7970703 C51.8238281,31.0749609 52.8730664,29.2498242 55.0961719,29.7755859 C57.8501367,30.4263281 71.6442187,38.186543 74.59875,43.9442578 C77.5531055,49.7023242 76.7520703,55.4853516 76.7520703,55.4853516 C76.7520703,55.4853516 82.0105664,63.8472656 82.0105664,74.9622656 C82.0105664,86.077793 79.5072656,87.3792773 77.8046484,88.2808594 C76.1023828,89.1824414 71.3956641,88.1808398 67.5903516,86.3782031 C63.7850391,84.5755664 63.5848242,84.3751758 63.5848242,84.3751758 C63.5848242,84.3751758 56.975625,87.5794922 54.071543,83.5741406 C54.071543,83.5741406 52.8201562,82.6741406 53.2207617,80.2705078 C53.2207617,80.2705078 48.7144336,75.8641992 48.3138281,71.9085937 C47.9133984,67.9535156 49.4651953,63.3466406 49.4651953,63.3466406 C49.4651953,63.3466406 46.6621875,60.3936914 46.6621875,55.6370508 C46.6621875,50.8804102 50.6172656,51.4810547 51.5687695,44.0711719 C52.5200977,36.6609375 50.5177734,34.1574609 51.3901758,32.0783203 L51.3910547,32.0788477 Z" id="Shape" fill="#FAD24D"></path>
            <g id="Group" transform="translate(10.722656, 83.144531)" fill="#EDB937">
                <path d="M15.6918164,1.23152344 C13.5903516,-0.381621094 6.20490234,-0.133945313 2.69789062,1.49431641 C1.21042969,2.18460937 0.368261719,3.2934375 0.108105469,4.24828125 C0.578320312,4.66453125 1.04994141,4.91308594 1.47199219,5.13650391 C3.17425781,6.03808594 7.88097656,5.03648437 11.6862891,3.23384766 C15.4916016,1.43121094 15.6918164,1.23082031 15.6918164,1.23082031 L15.6918164,1.23152344 Z" id="Shape"></path>
                <path d="M52.8628711,1.23152344 C54.9643359,-0.381621094 62.3497852,-0.133945313 65.8567969,1.49431641 C67.3442578,2.18460937 68.1864258,3.2934375 68.446582,4.24828125 C67.9763672,4.66453125 67.5047461,4.91308594 67.0826953,5.13650391 C65.3804297,6.03808594 60.6737109,5.03648437 56.8683984,3.23384766 C53.0630859,1.43121094 52.8628711,1.23082031 52.8628711,1.23082031 L52.8628711,1.23152344 Z" id="Shape"></path>
            </g>
            <path d="M49.2408984,7.48792969 C49.055625,7.66775391 48.8258789,7.81769531 48.5476172,7.92228516 C46.6189453,8.64667969 42.9101367,8.64667969 40.9814648,7.92228516 C40.6756055,7.8075 40.4291602,7.63822266 40.2345703,7.43466797 C40.2890625,7.14673828 40.3660547,6.88359375 40.4643164,6.66386719 C40.6135547,6.77707031 40.7851172,6.87322266 40.9812891,6.946875 C42.9099609,7.67126953 46.6187695,7.67126953 48.5474414,6.946875 C48.7016016,6.88886719 48.8413477,6.81697266 48.9659766,6.73365234 C49.0819922,6.95109375 49.17375,7.20808594 49.2403711,7.48863281 L49.2408984,7.48792969 Z" id="Shape" fill="#EEF3F7"></path>
            <path d="M40.7689453,4.24705078 C39.7453711,4.42177734 39.5070117,6.60585937 41.2112109,7.17591797 C43.0219336,7.78166016 46.503457,7.78166016 48.3141797,7.17591797 C50.0183789,6.60568359 49.7800195,4.42195312 48.7564453,4.24705078 C47.0510156,5.31316406 42.4652344,5.4759375 40.7689453,4.24705078 Z" id="Shape" fill="#FEFEFE"></path>
            <g id="Group" transform="translate(10.722656, 29.531250)" fill="#EDB937">
                <path d="M16.5649219,7.30195313 C16.5083203,7.20351563 16.5424219,7.07677734 16.6408594,7.02017578 C16.7392969,6.96375 16.8660352,6.99767578 16.9226367,7.09611328 C16.9265039,7.10314453 18.3028711,9.46880859 16.965,10.5113672 C17.2269141,11.2543945 18.2881055,14.5506445 17.0840039,16.0734375 C18.3564844,16.9361719 19.2536719,18.2109375 19.0263867,20.0921484 C20.2777734,19.6767773 21.6502734,19.1232422 22.9338281,18.6055664 C23.7287109,18.2851172 24.4903711,17.9776758 25.179082,17.7219141 L25.1961328,17.7148828 C26.8185938,17.1126563 28.0133789,16.8328125 28.2315234,17.420625 C28.2716016,17.5280273 28.2167578,17.647207 28.1093555,17.6872852 C28.0019531,17.7273633 27.8827734,17.6725195 27.8426953,17.5651172 C27.7403906,17.2891406 26.7342188,17.5863867 25.3400977,18.1035352 L25.3230469,18.1089844 C24.6505078,18.3589453 23.8858594,18.6674414 23.0876367,18.9894727 L22.5601172,19.2023438 L22.5627539,19.2100781 C23.6766797,22.7221875 20.9392383,24.8911523 18.1033594,27.1371094 L17.9859375,27.2300977 C19.4702344,30.8766797 24.7737305,28.9513477 25.9235156,28.483418 C24.9220898,26.6964258 27.1940625,25.0201758 27.2005664,25.0150781 C27.2916211,24.946875 27.4211719,24.9651563 27.4897266,25.0562109 C27.5579297,25.1472656 27.5396484,25.2768164 27.4485937,25.3453711 C24.4923047,27.5881641 26.7277148,30.3352734 30.5922656,28.7711719 C30.6980859,28.7288086 30.8184961,28.7804883 30.8608594,28.8863086 C30.9032227,28.9921289 30.851543,29.1125391 30.7457227,29.1549023 C30.7364062,29.1587695 27.5301563,30.4628906 26.1631055,28.832168 C25.164668,29.2478906 19.3783008,31.4553516 17.6501953,27.4969336 C16.7424609,28.2200977 15.845625,28.9596094 15.0906445,29.7608203 C12.2540625,32.7710742 15.6647461,38.8868555 16.2583594,39.8946094 C17.047793,39.6260156 20.5006641,38.6063086 21.252832,41.0143359 C21.8211328,40.9524609 22.3400391,41.0210156 22.7919727,41.0806055 C23.5604883,41.182207 24.0999609,41.2533984 24.2143945,40.3950586 C24.2291602,40.282207 24.3330469,40.2024023 24.4457227,40.217168 C24.5585742,40.2319336 24.6383789,40.3358203 24.6236133,40.4484961 C24.4546875,41.716582 23.7473438,41.6232422 22.7385352,41.4898242 C22.222793,41.4219727 21.6439453,41.353418 21.1294336,41.4471094 C19.7825977,41.6645508 21.4456641,43.5705469 21.4502344,43.5759961 C21.5245898,43.6619531 21.5152734,43.7927344 21.4287891,43.8674414 C21.342832,43.9417969 21.2120508,43.9324805 21.1373438,43.8461719 C21.1318945,43.8394922 19.1409961,41.5610156 20.8423828,41.0878125 C20.1552539,39.1014844 17.0254688,40.0661719 16.3636523,40.2952148 C15.9140039,45.8479687 17.4772266,48.9751172 17.814375,49.577168 C17.8548047,49.5745312 17.8938281,49.5733008 17.9323242,49.5733008 C18.7695703,49.5733008 19.6025977,50.0886914 20.2417383,50.7538477 C20.7500977,51.2829492 21.418418,52.2474609 21.418418,53.0296875 C21.418418,53.1441211 21.3254297,53.2371094 21.2109961,53.2371094 C21.0965625,53.2371094 21.0035742,53.1441211 21.0035742,53.0296875 C21.0035742,52.3548633 20.3756836,51.4898438 19.9432617,51.0401953 C19.3730273,50.4472852 18.6447656,49.9876172 17.9316211,49.9876172 C17.8642969,49.9876172 17.8001367,49.9911328 17.7405469,49.9981641 L17.7219141,50.0004492 C16.2483398,50.1962695 16.6429687,52.273125 16.6436719,52.2791016 C16.6645898,52.3910742 16.5911133,52.4993555 16.4786133,52.5200977 C16.3666406,52.5410156 16.2583594,52.4675391 16.2376172,52.3550391 C16.2363867,52.3483594 15.8097656,50.1032813 17.3844141,49.6501172 C16.9196484,48.7629492 15.5061914,45.5637305 15.9554883,40.1948437 C15.5534766,39.5270508 11.9302734,33.2977148 14.4699609,29.8599609 C13.2523242,30.002168 10.1056641,30.7269141 10.2512109,34.4223633 C10.3306641,34.4107617 10.4116992,34.404082 10.4944922,34.4049609 C10.7219531,34.4068945 10.9599609,34.4591016 11.2014844,34.5796875 C11.413125,34.6851563 11.6300391,34.8444141 11.8480078,35.0701172 C11.9271094,35.152207 11.9242969,35.2833398 11.842207,35.3624414 C11.7601172,35.441543 11.6289844,35.4387305 11.5498828,35.3566406 C11.368125,35.1687305 11.1893555,35.0368945 11.0169141,34.9509375 C10.8332227,34.8590039 10.6563867,34.8194531 10.4909766,34.8178711 C10.3691602,34.8166406 10.2519141,34.8352734 10.1387109,34.8681445 C10.1255273,34.8735938 10.1114648,34.8778125 10.0972266,34.8809766 C9.37318359,35.1154688 8.85867187,35.9261719 8.8565625,35.9289844 C8.7946875,36.0242578 8.66619141,36.0515039 8.57091797,35.9898047 C8.47564453,35.9279297 8.44839844,35.7994336 8.51009766,35.7041602 C8.51203125,35.7015234 9.04060547,34.8672656 9.84216797,34.5375 C9.58605469,29.82375 14.1488086,29.4456445 14.8464844,29.4154102 C15.759668,28.4593359 16.8110156,27.6342188 17.8463672,26.8136719 C20.5613086,24.6629883 23.1829102,22.5864844 22.1728711,19.3568555 C21.0884766,19.7901563 19.9752539,20.220293 18.9444727,20.5525195 C18.9059766,20.6390039 18.8114062,20.690332 18.7150781,20.6711719 C18.6909961,20.6664258 18.6690234,20.6576367 18.6488086,20.6458594 C17.5558008,20.9826563 16.5705469,21.195 15.8299805,21.1644141 C13.2308789,21.0563086 10.9608398,21.2435156 9.29794922,22.0884961 C7.66353516,22.9187109 6.60814453,24.4014258 6.39580078,26.8957617 C6.16992187,29.5532227 4.92064453,31.2997852 3.73359375,32.3806641 C5.88919922,35.38125 4.33001953,40.2394922 3.94171875,41.3194922 C4.57382812,41.5086328 6.29507812,42.1929492 6.46294922,44.0750391 C6.47261719,44.1882422 6.38859375,44.2886133 6.27539062,44.2982812 C6.1621875,44.3079492 6.06181641,44.2239258 6.05214844,44.1107227 C5.88128906,42.1957617 3.81164062,41.7042773 3.63726562,41.6663086 L3.63251953,41.6656055 L3.63216797,41.6656055 L3.62091797,41.6633203 C3.32595703,41.6149805 3.05121094,41.6286914 2.79878906,41.6967187 C2.29693359,41.8317188 1.87365234,42.1832812 1.54388672,42.6849609 C1.20216797,43.2045703 0.958710937,43.8841406 0.827578125,44.6558203 C0.629121094,45.82125 0.688183594,47.1893555 1.04818359,48.5291602 C1.07771484,48.6391992 1.01162109,48.7532812 0.901757812,48.7826367 C0.79171875,48.812168 0.677636719,48.7460742 0.64828125,48.6362109 C0.272636719,47.2391016 0.21234375,45.8087695 0.420117187,44.5879687 C0.560390625,43.7616211 0.82546875,43.027207 1.19953125,42.4587305 C1.58519531,41.8725 2.08775391,41.4599414 2.69244141,41.297168 C2.95488281,41.2270312 3.23542969,41.2038281 3.53267578,41.235293 C3.86507812,40.3291406 5.46662109,35.5487695 3.42070312,32.6538281 C2.61070312,33.3232031 1.87699219,33.6817969 1.58044922,33.8122266 C1.59908203,34.9145508 0.594140625,35.5013086 0.590976562,35.5027148 C0.491660156,35.5593164 0.365097656,35.5248633 0.308496094,35.4260742 C0.251894531,35.3267578 0.286347656,35.2001953 0.385136719,35.1435937 C0.387421875,35.1423633 1.25015625,34.6391016 1.16068359,33.7076367 L1.15998047,33.7025391 L1.15875,33.6916406 C1.07121094,32.8842773 0.272460937,33.1374023 0.270527344,33.1377539 C0.160839844,33.1688672 0.0458789062,33.1050586 0.014765625,32.9951953 C-0.0163476563,32.8855078 0.0474609375,32.7703711 0.157324219,32.7394336 C0.160488281,32.7387305 1.24998047,32.3926172 1.5215625,33.3847266 C4.06441406,32.1971484 5.74453125,29.6720508 5.98359375,26.8623633 C6.20947266,24.2033203 7.34783203,22.6160156 9.1125,21.719707 C10.8481641,20.8379883 13.1835937,20.6414648 15.8468555,20.7520312 C16.5517383,20.7812109 17.5129102,20.569043 18.5876367,20.2338281 C19.2146484,16.2938672 13.993418,14.9334961 11.1594727,14.7128906 C11.4032812,16.6918359 8.17751953,17.645625 8.16820312,17.6482617 C8.05921875,17.6813086 7.94373047,17.6196094 7.91085937,17.5108008 C7.87798828,17.4019922 7.93951172,17.2865039 8.04832031,17.253457 C8.05728516,17.2508203 11.1969141,16.3205859 10.7057812,14.54625 L10.7050781,14.5443164 L10.704375,14.5411523 C10.2048047,12.7522266 8.41693359,13.0498242 8.41236328,13.0501758 C8.29951172,13.066875 8.19404297,12.9886523 8.17751953,12.8754492 C8.16082031,12.7625977 8.23904297,12.6571289 8.35224609,12.6406055 C8.35769531,12.6399023 10.4083594,12.2988867 11.0598047,14.2910156 C11.7335742,14.3361914 14.6191992,14.5981055 16.7331445,15.8517773 C17.815957,14.5828125 16.8994336,11.593125 16.6051758,10.7386523 C15.2351367,11.4999609 14.2637695,11.1236133 14.2611328,11.1223828 C14.1537305,11.0838867 14.0976562,10.9654102 14.1358008,10.8576562 C14.1742969,10.7502539 14.2927734,10.6941797 14.4005273,10.7323242 C14.4028125,10.7330273 15.2919141,11.0794922 16.5981445,10.2633398 L16.6109766,10.2552539 C17.8305469,9.48128906 16.5682617,7.30828125 16.5649219,7.30195313 L16.5649219,7.30265625 L16.5649219,7.30195313 Z" id="Shape"></path>
                <path d="M52.0319531,7.30195313 C52.0885547,7.20351563 52.0544531,7.07677734 51.9560156,7.02017578 C51.8575781,6.96375 51.7308398,6.99767578 51.6742383,7.09611328 C51.6703711,7.10314453 50.2940039,9.46880859 51.631875,10.5113672 C51.3699609,11.2543945 50.3087695,14.5506445 51.5128711,16.0734375 C50.2403906,16.9361719 49.3432031,18.2109375 49.5704883,20.0921484 C48.3191016,19.6767773 46.9466016,19.1232422 45.6628711,18.6055664 C44.8679883,18.2851172 44.1063281,17.9776758 43.4176172,17.7219141 L43.4005664,17.7148828 C41.7781055,17.1126563 40.5833203,16.8328125 40.3651758,17.420625 C40.3250977,17.5280273 40.3799414,17.647207 40.4873438,17.6872852 C40.5947461,17.7273633 40.7139258,17.6725195 40.7540039,17.5651172 C40.8563086,17.2891406 41.8624805,17.5863867 43.2566016,18.1035352 L43.2736523,18.1089844 C43.9461914,18.3589453 44.7108398,18.6674414 45.5090625,18.9894727 L46.036582,19.2023438 L46.0339453,19.2100781 C44.9200195,22.7221875 47.6574609,24.8911523 50.4933398,27.1371094 L50.6107617,27.2300977 C49.1264648,30.8766797 43.8229687,28.9513477 42.6731836,28.483418 C43.6746094,26.6964258 41.4026367,25.0201758 41.3961328,25.0150781 C41.3050781,24.946875 41.1755273,24.9651563 41.1069727,25.0562109 C41.0387695,25.1472656 41.0570508,25.2768164 41.1481055,25.3453711 C44.1043945,27.5881641 41.8689844,30.3352734 38.0046094,28.7711719 C37.8987891,28.7288086 37.7783789,28.7804883 37.7360156,28.8863086 C37.6936523,28.9921289 37.745332,29.1125391 37.8511523,29.1549023 C37.8604687,29.1587695 41.0667187,30.4628906 42.4337695,28.832168 C43.432207,29.2478906 49.2185742,31.4553516 50.9466797,27.4969336 C51.8544141,28.2200977 52.75125,28.9596094 53.5062305,29.7608203 C56.3428125,32.7710742 52.9321289,38.8868555 52.3385156,39.8946094 C51.549082,39.6260156 48.0962109,38.6063086 47.344043,41.0143359 C46.7757422,40.9524609 46.2568359,41.0210156 45.8049023,41.0806055 C45.0363867,41.182207 44.4969141,41.2533984 44.3824805,40.3950586 C44.3677148,40.282207 44.2638281,40.2024023 44.1511523,40.217168 C44.0383008,40.2319336 43.9584961,40.3358203 43.9732617,40.4484961 C44.1421875,41.716582 44.8495312,41.6232422 45.8583398,41.4898242 C46.374082,41.4219727 46.9529297,41.353418 47.4674414,41.4471094 C48.8142773,41.6645508 47.1512109,43.5705469 47.1466406,43.5759961 C47.0722852,43.6619531 47.0816016,43.7927344 47.1680859,43.8674414 C47.254043,43.9417969 47.3848242,43.9324805 47.4595312,43.8461719 C47.4649805,43.8394922 49.4558789,41.5610156 47.7544922,41.0878125 C48.4416211,39.1014844 51.5714062,40.0661719 52.2332227,40.2952148 C52.6828711,45.8479687 51.1196484,48.9751172 50.7825,49.577168 C50.7420703,49.5745312 50.7030469,49.5733008 50.6645508,49.5733008 C49.8273047,49.5733008 48.9942773,50.0886914 48.3551367,50.7538477 C47.8467773,51.2829492 47.178457,52.2474609 47.178457,53.0296875 C47.178457,53.1441211 47.2714453,53.2371094 47.3858789,53.2371094 C47.5003125,53.2371094 47.5933008,53.1441211 47.5933008,53.0296875 C47.5933008,52.3548633 48.2211914,51.4898438 48.6536133,51.0401953 C49.2238477,50.4472852 49.9521094,49.9876172 50.6652539,49.9876172 C50.7325781,49.9876172 50.7967383,49.9911328 50.8563281,49.9981641 L50.8749609,50.0004492 C52.3485352,50.1962695 51.9539062,52.273125 51.9532031,52.2791016 C51.9322852,52.3910742 52.0057617,52.4993555 52.1182617,52.5200977 C52.2302344,52.5410156 52.3385156,52.4675391 52.3592578,52.3550391 C52.3604883,52.3483594 52.7871094,50.1032813 51.2124609,49.6501172 C51.6772266,48.7629492 53.0906836,45.5637305 52.6413867,40.1948437 C53.0433984,39.5270508 56.6666016,33.2977148 54.1269141,29.8599609 C55.3445508,30.002168 58.4912109,30.7269141 58.3456641,34.4223633 C58.2662109,34.4107617 58.1851758,34.404082 58.1023828,34.4049609 C57.8749219,34.4068945 57.6369141,34.4591016 57.3953906,34.5796875 C57.18375,34.6851563 56.9668359,34.8444141 56.7488672,35.0701172 C56.6697656,35.152207 56.6725781,35.2833398 56.754668,35.3624414 C56.8367578,35.441543 56.9678906,35.4387305 57.0469922,35.3566406 C57.22875,35.1687305 57.4075195,35.0368945 57.5799609,34.9509375 C57.7636523,34.8590039 57.9404883,34.8194531 58.1058984,34.8178711 C58.2277148,34.8166406 58.3449609,34.8352734 58.4581641,34.8681445 C58.4713477,34.8735938 58.4854102,34.8778125 58.4996484,34.8809766 C59.2236914,35.1154688 59.7382031,35.9261719 59.7403125,35.9289844 C59.8021875,36.0242578 59.9306836,36.0515039 60.025957,35.9898047 C60.1212305,35.9279297 60.1484766,35.7994336 60.0867773,35.7041602 C60.0848438,35.7015234 59.5562695,34.8672656 58.754707,34.5375 C59.0108203,29.82375 54.4480664,29.4456445 53.7503906,29.4154102 C52.837207,28.4593359 51.7858594,27.6342188 50.7505078,26.8136719 C48.0355664,24.6629883 45.4139648,22.5864844 46.4240039,19.3568555 C47.5083984,19.7901563 48.6216211,20.220293 49.6524023,20.5525195 C49.6908984,20.6390039 49.7854688,20.690332 49.8817969,20.6711719 C49.9058789,20.6664258 49.9278516,20.6576367 49.9480664,20.6458594 C51.0410742,20.9826563 52.0263281,21.195 52.7668945,21.1644141 C55.3659961,21.0563086 57.6360352,21.2435156 59.2989258,22.0884961 C60.9333398,22.9187109 61.9887305,24.4014258 62.2010742,26.8957617 C62.4269531,29.5532227 63.6762305,31.2997852 64.8632813,32.3806641 C62.7076758,35.38125 64.2668555,40.2394922 64.6551563,41.3194922 C64.0230469,41.5086328 62.3017969,42.1929492 62.1339258,44.0750391 C62.1242578,44.1882422 62.2082813,44.2886133 62.3214844,44.2982812 C62.4346875,44.3079492 62.5350586,44.2239258 62.5447266,44.1107227 C62.7155859,42.1957617 64.7852344,41.7042773 64.9596094,41.6663086 L64.9643555,41.6656055 L64.964707,41.6656055 L64.975957,41.6633203 C65.270918,41.6149805 65.5456641,41.6286914 65.7980859,41.6967187 C66.2999414,41.8317188 66.7232227,42.1832812 67.0529883,42.6849609 C67.394707,43.2045703 67.6381641,43.8841406 67.7692969,44.6558203 C67.9677539,45.82125 67.9086914,47.1893555 67.5486914,48.5291602 C67.5191602,48.6391992 67.5852539,48.7532812 67.6951172,48.7826367 C67.8051563,48.812168 67.9192383,48.7460742 67.9485938,48.6362109 C68.3242383,47.2391016 68.3845313,45.8087695 68.1767578,44.5879687 C68.0364844,43.7616211 67.7714063,43.027207 67.3973438,42.4587305 C67.0116797,41.8725 66.5091211,41.4599414 65.9044336,41.297168 C65.6419922,41.2270312 65.3614453,41.2038281 65.0641992,41.235293 C64.7317969,40.3291406 63.1302539,35.5487695 65.1761719,32.6538281 C65.9861719,33.3232031 66.7198828,33.6817969 67.0164258,33.8122266 C66.997793,34.9145508 68.0027344,35.5013086 68.0058984,35.5027148 C68.1052148,35.5593164 68.2317773,35.5248633 68.2885547,35.4260742 C68.3451563,35.3267578 68.3107031,35.2001953 68.2119141,35.1435937 C68.2096289,35.1423633 67.3468945,34.6391016 67.4363672,33.7076367 L67.4370703,33.7025391 L67.4383008,33.6916406 C67.5258398,32.8842773 68.3245898,33.1374023 68.3265234,33.1377539 C68.4362109,33.1688672 68.5513477,33.1050586 68.5822852,32.9951953 C68.6133984,32.8855078 68.5495898,32.7703711 68.4397266,32.7394336 C68.4365625,32.7387305 67.3470703,32.3926172 67.0754883,33.3847266 C64.5326367,32.1971484 62.8525195,29.6720508 62.613457,26.8623633 C62.3875781,24.2033203 61.2492188,22.6160156 59.4845508,21.719707 C57.7488867,20.8379883 55.413457,20.6414648 52.7501953,20.7520312 C52.0453125,20.7812109 51.0841406,20.569043 50.0094141,20.2338281 C49.3824023,16.2938672 54.6036328,14.9334961 57.4375781,14.7128906 C57.1937695,16.6918359 60.4195313,17.645625 60.4288477,17.6482617 C60.537832,17.6813086 60.6533203,17.6196094 60.6861914,17.5108008 C60.7190625,17.4019922 60.6575391,17.2865039 60.5487305,17.253457 C60.5397656,17.2508203 57.4001367,16.3205859 57.8912695,14.54625 L57.8919727,14.5443164 L57.8926758,14.5411523 C58.3922461,12.7522266 60.1801172,13.0498242 60.1846875,13.0501758 C60.2975391,13.066875 60.4030078,12.9886523 60.4195313,12.8754492 C60.4362305,12.7625977 60.3580078,12.6571289 60.2448047,12.6406055 C60.2393555,12.6399023 58.1886914,12.2988867 57.5372461,14.2910156 C56.8636523,14.3361914 53.9778516,14.5981055 51.8639063,15.8517773 C50.7810938,14.5828125 51.6976172,11.593125 51.991875,10.7386523 C53.3619141,11.4999609 54.3332813,11.1236133 54.335918,11.1223828 C54.4433203,11.0838867 54.4993945,10.9654102 54.46125,10.8576562 C54.4227539,10.7502539 54.3042773,10.6941797 54.1965234,10.7323242 C54.1942383,10.7330273 53.3051367,11.0794922 51.9989063,10.2633398 L51.9860742,10.2552539 C50.7665039,9.48128906 52.0287891,7.30828125 52.0321289,7.30195313 L52.0321289,7.30265625 L52.0319531,7.30265625 L52.0319531,7.30195313 Z" id="Shape"></path>
                <path d="M40.6683984,2.54759766 C40.6683984,2.54759766 42.6058594,0.211289063 45.6762305,1.52736328 C48.74625,2.84308594 60.5302734,9.76394531 62.8495312,15.2191406 C65.1691406,20.6741602 64.8365625,25.9235156 64.8365625,25.9235156 C64.8365625,25.9235156 72.6240234,43.9824023 70.3587305,54.4582617 C70.9149023,52.5505078 71.2882617,49.7228906 71.2882617,45.4311914 C71.2882617,34.3161914 66.0297656,25.9539258 66.0297656,25.9539258 C66.0297656,25.9539258 66.8304492,20.1708984 63.8764453,14.4131836 C60.9224414,8.65546875 47.127832,0.894902344 44.3738672,0.243984375 C42.1504102,-0.281601562 41.1015234,1.5440625 40.7803711,2.26546875 C40.704082,2.43755859 40.6683984,2.54724609 40.6683984,2.54724609 L40.6685742,2.54724609 L40.6685742,2.54759766 L40.6683984,2.54759766 Z" id="Shape"></path>
            </g>
            <path d="M35.7975,29.6850586 C32.6200781,30.6928125 25.4002148,34.8916992 21.736582,37.7430469 C16.1411133,42.0975 13.1948438,47.2466602 14.1073242,55.061543 C14.1073242,55.061543 8.68236328,65.3349023 7.98908203,74.9624414 C7.98908203,63.8474414 13.2475781,55.4855273 13.2475781,55.4855273 C12.7177734,51.6603516 13.9211719,45.7040039 16.2813867,42.562793 C16.351875,42.4689258 16.4242969,42.3748828 16.499707,42.2797852 C20.3377148,37.4312109 30.4511133,30.8257031 34.9034766,29.7755859 C35.2258594,29.6994727 35.523457,29.6732812 35.7975,29.6850586 Z" id="Shape" fill="#FFF985"></path>
        </g>
    </g>
</svg>