<?xml version="1.0" encoding="UTF-8"?>
<svg width="20px" height="18px" viewBox="0 0 20 18" version="1.1" xmlns="http://www.w3.org/2000/svg" xmlns:xlink="http://www.w3.org/1999/xlink">
    <title>ic_medicinalproduct</title>
    <g id="Page-1" stroke="none" stroke-width="1" fill="none" fill-rule="evenodd">
        <g id="Home-Page" transform="translate(-69.000000, -295.000000)" fill="#FFF" fill-rule="nonzero">
            <g id="Option-1" transform="translate(16.000000, 273.000000)">
                <g id="ic_medicinalproduct" transform="translate(53.000000, 22.000000)">
                    <path d="M15.8839546,5.29205835 L14.8259319,5.29205835 L14.8259319,3.17601297 C14.8259319,1.42171799 13.4042139,0 11.649919,0 L7.41199352,0 C5.65769854,0 4.23598055,1.42171799 4.23598055,3.17601297 L4.23598055,5.29400324 L3.17795786,5.29400324 C1.42171799,5.29205835 0,6.71572123 0,8.47001621 L0,14.823987 C0,16.578282 1.42171799,18 3.17601297,18 L15.8820097,18 C17.6363047,18 19.0580247,16.578282 19.0580247,14.823987 L19.0580247,8.47001621 C19.0599676,6.71572123 17.6382496,5.29205835 15.8839546,5.29205835 Z M6.35397083,3.17601297 C6.35397083,2.59059968 6.82658023,2.11799028 7.41199352,2.11799028 L11.6479741,2.11799028 C12.2333874,2.11799028 12.7059968,2.59254457 12.7059968,3.17601297 L12.7059968,5.29400324 L6.35397083,5.29400324 L6.35397083,3.17601297 Z M12.7059968,12.7059968 L10.5880065,12.7059968 L10.5880065,14.823987 C10.5880065,15.4094003 10.1153971,15.8820097 9.52998379,15.8820097 C8.9445705,15.8820097 8.4719611,15.4094003 8.4719611,14.823987 L8.4719611,12.7059968 L6.35397083,12.7059968 C5.76855754,12.7059968 5.29594814,12.2333874 5.29594814,11.6479741 C5.29594814,11.0625608 5.76855754,10.5899514 6.35397083,10.5899514 L8.4719611,10.5899514 L8.4719611,8.47001621 C8.4719611,7.88460292 8.9445705,7.41199352 9.52998379,7.41199352 C10.1153971,7.41199352 10.5880065,7.88460292 10.5880065,8.47001621 L10.5880065,10.5880065 L12.7059968,10.5880065 C13.29141,10.5880065 13.7640194,11.0606159 13.7640194,11.6460292 C13.7640194,12.2314425 13.29141,12.7059968 12.7059968,12.7059968 Z" id="Shape"></path>
                </g>
            </g>
        </g>
    </g>
</svg>