<?xml version="1.0" encoding="UTF-8"?>
<svg width="92px" height="92px" viewBox="0 0 92 92" version="1.1" xmlns="http://www.w3.org/2000/svg" xmlns:xlink="http://www.w3.org/1999/xlink">
    <!-- Generator: Sketch 51.2 (57519) - http://www.bohemiancoding.com/sketch -->
    <title>ic_newborn</title>
    <desc>Created with Sketch.</desc>
    <defs></defs>
    <g id="ic_newborn" stroke="none" stroke-width="1" fill="none" fill-rule="evenodd">
        <g id="101-newborn" transform="translate(1.000000, 1.000000)" fill-rule="nonzero">
            <circle id="Oval" fill="#FF5B62" cx="44.9998242" cy="44.9998242" r="44.9998242"></circle>
            <path d="M33.7174805,43.2363867 C33.7174805,43.2363867 33.5075977,33.6424219 27.3213281,33.1180664 C23.5464258,33.1180664 24.2279297,34.7953711 20.4537305,34.4810742 C16.6788281,34.1667773 4.72552734,31.9120312 5.45958984,47.1153516 C6.19365234,62.3186719 22.3795898,62.1094922 27.727207,57.3387891 C27.727207,57.3387891 33.3356836,65.7272461 50.9510742,63.735293 C68.5661133,61.7429883 74.5423242,55.3468359 73.0747266,46.0151367 C71.6071289,36.6834375 62.7992578,33.4328906 62.7992578,33.4328906 C62.7992578,33.4328906 65.9972461,33.5376562 67.5699609,32.3317969 C69.1426758,31.1259375 69.6670312,30.7065234 69.6670312,30.7065234 C69.6670312,30.7065234 71.1877148,31.2834375 71.8164844,30.2869336 C72.4454297,29.290957 72.1307812,26.4596484 70.5056836,25.5162305 C68.8804102,24.5724609 67.5701367,20.4827344 66.67875,20.4827344 C66.9673828,19.9054687 65.8432617,19.3884961 65.3684766,20.8497656 C65.3684766,20.8497656 65.0798437,21.8986523 65.6040234,23.4455273 C65.6040234,23.4455273 65.1062109,25.2279492 65.7087891,27.0105469 C65.7087891,27.0105469 64.5292969,26.3292187 61.7241797,26.5127344 C58.9194141,26.69625 52.5234375,29.1081445 51.9466992,31.0477148 C51.3697852,32.9874609 51.2384766,35.3993555 54.5937891,38.3874609 C54.5937891,38.3874609 50.2423242,38.3874609 48.3024023,40.0127344 C46.3626562,41.6380078 46.7822461,41.480332 46.7822461,41.480332 C46.7822461,41.480332 47.9090039,39.2261133 47.7518555,36.5786719 C47.594707,33.9312305 46.7817187,30.3400195 46.7817187,30.3400195 C46.7817187,30.3400195 46.3621289,24.1013672 44.3698242,23.8392773 C44.3698242,23.8392773 43.8976758,23.7605273 43.6884961,24.0222656 C42.6879492,23.4878906 42.2558789,24.2279297 42.1813477,24.3239062 C41.1366797,23.8466602 40.8243164,24.4327148 40.6481836,24.8614453 C39.9984961,24.5691211 39.5286328,25.0657031 39.455332,25.5821484 C39.455332,25.5821484 38.6363672,25.3986328 38.3610937,25.7786719 C38.0858203,26.1590625 37.9736719,27.5482617 38.3146875,28.3869141 C38.6555273,29.2255664 39.8353711,30.1169531 40.6740234,30.2477344 C40.6740234,30.2477344 40.2022266,31.0869141 40.3853906,32.5283203 C40.5689062,33.9700781 40.3069922,37.5614648 40.8308203,38.504707 C40.8308203,38.504707 34.6445508,38.6094727 33.717832,43.235332 L33.7174805,43.2363867 Z" id="Shape" fill="#FED298"></path>
            <g id="Group" transform="translate(27.597656, 29.003906)" fill="#F0BA7D">
                <path d="M44.5180078,0.0602929687 C45.91125,1.46144531 46.8611719,3.58804687 47.9332617,5.28240234 C47.9332617,5.28240234 52.1114062,3.33351562 54.3956836,4.62708984 C55.5931055,4.93154297 56.6544727,4.31384766 56.9246484,5.01820312 C57.1948242,5.72273437 56.2842773,6.18292969 56.2842773,6.18292969 C56.2842773,6.18292969 55.9371094,7.45822266 54.3127148,7.93001953 C52.6883203,8.40216797 51.4777148,8.94955078 51.4777148,8.94955078 C50.0848242,10.7764453 47.5337109,13.1628516 46.2758203,10.9576758 C45.4616016,9.53068359 44.3475,10.3666992 42.6877734,7.90681641 C42.5070703,7.63839844 42.1293164,9.37582031 41.8195898,9.19828125 L41.8190625,9.19775391 C38.8313086,5.76878906 35.2008984,4.42880859 35.2008984,4.42880859 C35.2008984,4.42880859 38.3988867,4.53357422 39.9716016,3.32771484 C41.5443164,2.12185547 42.0686719,1.70244141 42.0686719,1.70244141 C42.0686719,1.70244141 43.5893555,2.27935547 44.218125,1.28285156 C44.3988281,0.99703125 44.5013086,0.559863281 44.517832,0.059765625 L44.5180078,0.0602929687 Z" id="Shape"></path>
                <path d="M12.9283594,7.90013672 C12.5203711,6.74015625 12.1790039,5.89201172 12.1790039,5.89201172 C12.1790039,5.89201172 10.8298828,0.0599414063 8.9071875,0.116015625 C8.9071875,0.116015625 8.44927734,0.113730469 8.29125,0.393222656 C7.26398438,0.0404296875 6.96884766,0.80578125 6.91259766,0.908261719 C5.85210938,0.616289063 5.64697266,1.21816406 5.54554688,1.65023438 C4.88654297,1.47357422 4.51863281,2.01445313 4.52794922,2.51384766 C4.52794922,2.51384766 3.72568359,2.46550781 3.52371094,2.86664063 C3.32173828,3.26777344 3.42773438,4.5984375 3.87773438,5.33882813 C4.32826172,6.07974609 5.57859375,6.74173828 6.39158203,6.73769531 C6.39158203,6.73769531 6.07359375,7.60253906 6.46716797,8.93689453 C6.67617188,9.64511719 6.85863281,10.9450195 7.07941406,12.1297852 C9.09351563,9.57234375 13.2324609,9.50115234 13.2324609,9.50115234 C13.0614258,9.19300781 12.9742383,8.60396484 12.9276563,7.89943359 L12.9283594,7.90013672 Z" id="Shape"></path>
                <path d="M0.129550781,28.3348828 C0.129550781,28.3348828 5.73802734,36.7233398 23.353418,34.7313867 C39.5367187,32.9013281 45.8957812,27.3536719 45.6841406,19.227832 C43.8980273,35.300918 11.7416602,37.6477734 0.129550781,28.3355859 L0.129550781,28.3348828 Z" id="Shape"></path>
                <path d="M6.99908203,12.2340234 C6.99345703,12.24 4.90904297,15.3332227 6.09029297,20.0007422 C4.89287109,17.7111914 4.61619141,14.9196094 6.99908203,12.2340234 Z" id="Shape"></path>
            </g>
        </g>
    </g>
</svg>