<?xml version="1.0" encoding="UTF-8"?>
<svg width="54px" height="54px" viewBox="0 0 54 54" version="1.1" xmlns="http://www.w3.org/2000/svg" xmlns:xlink="http://www.w3.org/1999/xlink">
    <title>ic_others</title>
    <g id="Page-1" stroke="none" stroke-width="1" fill="none" fill-rule="evenodd">
        <g id="Home-Page" transform="translate(-161.000000, -2076.000000)">
            <g id="Group-3-Copy-17" transform="translate(136.000000, 2068.000000)">
                <g id="ic_others" transform="translate(25.000000, 8.000000)">
                    <circle id="Oval" stroke-opacity="0.3" stroke="#31CCB6" fill-opacity="0.1" fill="#22D2C5" cx="27" cy="27" r="26.5"></circle>
                    <g id="101-injection" transform="translate(12.340119, 12.521980)" fill-rule="nonzero">
                        <ellipse id="Oval" fill-opacity="0.464734484" fill="#939393" cx="15.1435762" cy="22.5020654" rx="7.77185533" ry="1"></ellipse>
                        <polygon id="Path" fill="#E6EBEF" points="12.3052607 2.62160314 17.9873755 2.62160314 17.9873755 4.18990716 12.3052607 4.18990716"></polygon>
                        <polygon id="Path" fill="#D9DADA" points="12.3052607 2.62160314 17.9873755 2.62160314 17.9873755 4.18990716"></polygon>
                        <path d="M12.4508866,4.18009045 L17.8416143,4.18009045 C19.3242083,4.18009045 20.5371474,5.39302958 20.5371474,6.87562357 L20.5371474,21.4702277 C20.5371474,21.9878052 20.113878,22.4111424 19.5962327,22.4111424 L10.6962004,22.4111424 C10.1786906,22.4111424 9.75528574,21.9878729 9.75528574,21.4702277 L9.75528574,6.87555587 C9.75542114,5.39302958 10.9683603,4.18009045 12.4508866,4.18009045 Z" id="Path" fill="#E0E0E0"></path>
                        <g id="Group" transform="translate(9.755421, 7.539165)" fill="#EEF3F7">
                            <path d="M10.6289241,14.443359 C10.4605506,14.7008953 10.1697729,14.8719092 9.84087926,14.8719092 L0.940847012,14.8719092 C0.61188568,14.8719092 0.321175666,14.7008953 0.152802166,14.443359 L10.6289241,14.443359 Z" id="Path"></path>
                            <polygon id="Path" points="0 0 10.781794 0 10.781794 13.9310622 0 13.9310622"></polygon>
                        </g>
                        <polygon id="SVGCleanerId_0" fill="#D9DADA" points="20.0063004 7.53916546 20.5371474 7.53916546 20.5371474 21.4702277 20.0063004 21.4702277"></polygon>
                        <polygon id="SVGCleanerId_0_1_" fill="#D9DADA" points="20.0063004 7.53916546 20.5371474 7.53916546 20.5371474 21.4702277 20.0063004 21.4702277"></polygon>
                        <path d="M11.9453599,0 L18.3473441,0 C18.5968239,0 18.8010115,0.204052162 18.8010115,0.453599696 L18.8010115,2.25818177 C18.8010115,2.50772931 18.5968239,2.71178147 18.3473441,2.71178147 L11.9453599,2.71178147 C11.6957446,2.71178147 11.4916925,2.50772931 11.4916925,2.25818177 L11.4916925,0.453599696 C11.4916925,0.204052162 11.6957446,0 11.9453599,0 Z" id="Path" fill="#21D0C3"></path>
                        <polygon id="Path" fill="#FFFFFF" points="12.640586 10.2211583 20.5371474 10.2211583 20.5371474 20.0447737 12.640586 20.0447737"></polygon>
                        <polygon id="Path" fill="#EEF3F7" points="20.0063004 10.2211583 20.5371474 10.2211583 20.5371474 20.0447737 20.0063004 20.0447737"></polygon>
                        <polygon id="Path" fill="#FFFFFF" points="10.8273382 10.2211583 9.75542114 10.2211583 9.75542114 20.0447737 10.8273382 20.0447737"></polygon>
                        <path d="M19.0262542,9.14037239 L21.4753541,11.9420614 C21.6228755,12.1108411 21.6054085,12.3693929 21.4366965,12.5168467 L10.0342834,22.484463 L7.04898809,19.0693989 L18.4514012,9.10191796 C18.6201132,8.95439651 18.8788005,8.97166038 19.0262542,9.14037239 L19.0262542,9.14037239 Z" id="Path" fill="#FEFEFE"></path>
                        <polygon id="Path" fill="#EEF3F7" points="11.883413 15.8480287 13.8730232 18.1240159 2.86016414 27.7510263 0.870621716 25.4751068"></polygon>
                        <polygon id="Path" fill="#D9DADA" points="13.6533997 17.8728436 13.8730232 18.1240836 2.86016414 27.7510263 2.64060835 27.4998539"></polygon>
                        <path d="M7.10694052,18.3366662 L10.767964,22.5248131 C10.8880664,22.6621793 10.873849,22.8727985 10.7365505,22.9928332 L10.7365505,22.9928332 C10.5991843,23.1128679 10.3886328,23.0987183 10.2685304,22.9614197 L6.60750695,18.7732728 C6.48747228,18.6359066 6.50162189,18.4252874 6.63892042,18.3052527 L6.63892042,18.3052527 C6.77628666,18.1852857 6.98683816,18.1993676 7.10694052,18.3366662 L7.10694052,18.3366662 Z" id="Path" fill="#21D0C3"></path>
                        <polygon id="Path" fill="#EEF3F7" points="19.7549926 9.97425111 20.7463449 11.1083181 21.8986235 10.1010559 20.9072712 8.96698898"></polygon>
                        <polygon id="Path" fill="#C7C7C7" points="27.3986214 4.00074932 28.4342504 3.67977676 22.1879118 9.14003388 21.898285 8.8087707"></polygon>
                        <path d="M20.4285543,9.38545163 L21.4199066,10.5195186 L22.5721852,9.51225644 C22.7375121,9.36771385 22.7545729,9.11417193 22.6100303,8.94884499 L22.1441767,8.4159669 C21.9995664,8.25063997 21.7460922,8.2335792 21.5807652,8.37812179 L20.4285543,9.38545163 Z" id="Path" fill="#FF5B62"></path>
                        <path d="M20.0499678,9.55903814 L21.1972365,10.8714984 C21.2695417,10.9542296 21.3960757,10.9626922 21.4788068,10.8903871 L21.4789422,10.8902517 C21.5616734,10.8180142 21.5701361,10.6914125 21.4978309,10.6086814 L20.3505622,9.29622112 C20.2782571,9.21348995 20.1516554,9.20509497 20.0689242,9.27733241 L20.0687888,9.27746782 C19.9861253,9.34977296 19.9776627,9.47637467 20.0499678,9.55903814 Z" id="Path" fill="#ED4C54"></path>
                        <path d="M0.460486349,24.8129189 L3.4614884,28.2459239 C3.55667663,28.3548555 3.54543819,28.5215365 3.43664197,28.6167247 L3.43657427,28.6167924 C3.32764264,28.7119807 3.16082627,28.7008776 3.06570574,28.591946 L0.0647713896,25.158941 C-0.0304845466,25.0499417 -0.0193815092,24.883193 0.0895501193,24.7880048 L0.0896178208,24.7879371 C0.198414046,24.6927488 0.365230412,24.7039873 0.460486349,24.8129189 L0.460486349,24.8129189 Z" id="Path" fill="#21D0C3"></path>
                        <polygon id="Path" fill="#0F7986" points="12.4640206 14.8640558 14.9257807 17.6801652 14.1090981 18.394077 11.6473381 15.5780353"></polygon>
                        <path d="M18.8563236,9.49919006 L21.0970384,12.0623668 C21.1577666,12.1318962 21.1506579,12.238526 21.0810608,12.2993219 L14.9257807,17.6801652 L12.4640883,14.8640558 L18.6193685,9.48328022 C18.6889656,9.42248432 18.7955954,9.42959297 18.8563236,9.49919006 L18.8563236,9.49919006 Z" id="Path" fill="#21D0C3"></path>
                        <path d="M20.8627914,11.7944722 L21.096903,12.0622991 C21.1576989,12.1318962 21.1506579,12.238526 21.0810608,12.2993219 L14.925713,17.6801652 L14.5809772,17.2858043 L20.8627914,11.7944722 L20.8627914,11.7944722 Z" id="Path" fill="#15BDB2"></path>
                        <path d="M18.3338715,9.73282775 L19.2926594,10.8297266 L19.0612559,11.0320185 L18.102468,9.93525508 L18.3338715,9.73282775 Z M12.7337432,14.6283194 L13.2947174,15.2700614 L13.0633138,15.4723533 L12.5023397,14.8306113 L12.7337432,14.6283194 Z M13.5436556,13.9203654 L14.5024435,15.0172642 L14.27104,15.2195561 L13.3122521,14.1226573 L13.5436556,13.9203654 Z M14.3304818,13.2325187 L14.891456,13.874193 L14.6600525,14.0764849 L14.0990783,13.4347429 L14.3304818,13.2325187 Z M15.1403265,12.5244969 L16.0992498,13.6213958 L15.8677786,13.8236877 L14.9089907,12.7269243 L15.1403265,12.5244969 Z M15.9271528,11.8367179 L16.4881947,12.4784599 L16.2567911,12.6807519 L15.6957492,12.0390098 L15.9271528,11.8367179 Z M16.7371329,11.1286962 L17.6959208,12.225595 L17.4645172,12.427887 L16.5057293,11.3309881 L16.7371329,11.1286962 Z M17.5238914,10.4409849 L18.0849333,11.0826592 L17.8535297,11.2849511 L17.2924879,10.6432768 L17.5238914,10.4409849 Z" id="Shape" fill="#FEFEFE"></path>
                        <circle id="Oval" fill="#FF5B62" cx="17.9882556" cy="17.9857019" r="1.38909829"></circle>
                        <polygon id="Path" fill="#FEFEFE" points="17.7236107 17.0112072 18.2529683 17.0112072 18.2529683 17.7211923 18.9630211 17.7211923 18.9630211 18.2505499 18.2529683 18.2505499 18.2529683 18.9606027 17.7236107 18.9606027 17.7236107 18.2505499 17.0135579 18.2505499 17.0135579 17.7211923 17.7236107 17.7211923"></polygon>
                    </g>
                </g>
            </g>
        </g>
    </g>
</svg>