<?xml version="1.0" encoding="UTF-8"?>
<svg width="92px" height="92px" viewBox="0 0 92 92" version="1.1" xmlns="http://www.w3.org/2000/svg" xmlns:xlink="http://www.w3.org/1999/xlink">
    <!-- Generator: Sketch 51.2 (57519) - http://www.bohemiancoding.com/sketch -->
    <title>ic_pain</title>
    <desc>Created with Sketch.</desc>
    <defs></defs>
    <g id="ic_pain" stroke="none" stroke-width="1" fill="none" fill-rule="evenodd">
        <g id="101-pain" transform="translate(1.000000, 1.000000)" fill-rule="nonzero">
            <circle id="Oval" fill="#21D0C3" cx="45" cy="45" r="45"></circle>
            <path d="M31.8557812,70.5802148 C31.8557812,70.5802148 28.4593359,78.8280469 28.317832,86.803418 C33.4768359,88.8641016 39.1053516,90 45,90 C50.0266406,90 54.8599219,89.1727734 59.3738086,87.6520898 C59.3119336,87.2899805 59.2523437,86.9690039 59.1957422,86.7004102 C58.1347266,81.6593555 57.6036914,78.7410352 57.6036914,78.7410352 C57.6036914,78.7410352 58.3110352,74.0529492 58.0018359,71.7980273 C57.6921094,69.5429297 57.7364063,63.9710156 58.7093555,61.4060156 C59.6821289,58.8413672 61.0966406,51.6779297 61.6276758,46.1946094 C62.1581836,40.7112891 63.4846289,36.9963281 64.9886133,34.7853516 C66.4922461,32.5749023 55.4080078,28.9102148 53.9933203,29.2642383 C52.5781055,29.6177344 49.6833398,28.2153516 49.6833398,28.2153516 L48.1044727,26.9917383 L46.4092383,21.525293 C46.4092383,21.525293 47.2111523,20.4906445 47.8683984,18.9696094 C47.8683984,18.9696094 48.7662891,18.8423438 49.0974609,18.3341602 C49.4291602,17.8254492 50.2254492,14.7079688 50.0927344,13.6910742 C50.0261133,13.1797266 49.428457,13.2387891 48.8503125,13.4233594 C48.865957,10.4064258 48.2280469,5.41335938 44.0704687,3.78615234 C37.9673437,1.39851562 34.7605664,5.80605469 34.7605664,5.80605469 C34.7605664,5.80605469 32.969707,8.30496094 33.2792578,11.311875 C33.5886328,14.3191406 33.6772266,15.2029687 33.6772266,15.2029687 C33.6772266,15.2029687 32.3748633,14.4395508 32.2642969,15.7663477 C32.1537305,17.0931445 33.8480859,19.7966602 33.9808008,20.017793 C34.1135156,20.2389258 34.8760547,19.8738281 34.8760547,19.8738281 C34.8760547,19.8738281 35.5067578,21.7750781 35.8602539,22.2175195 C36.2141016,22.6594336 36.4018359,22.7482031 36.4018359,22.7482031 C36.4018359,22.7482031 37.750957,27.4902539 37.750957,27.9769922 C37.750957,28.4633789 32.7097266,31.7351953 31.6481836,32.0008008 C31.1273437,32.1312305 29.124668,32.1336914 26.7500391,32.7299414 C24.3752344,33.3263672 25.6957031,35.6711133 25.6957031,35.6711133 C25.6957031,35.6711133 26.5691602,41.7955078 27.5864062,44.1391992 C28.6034766,46.4828906 31.256543,52.7176758 33.2906836,55.2383789 C35.3244727,57.759082 34.3770117,62.610293 34.3770117,62.610293 L31.8557812,70.5802148 Z" id="Shape" fill="#FF5B62"></path>
            <g id="Group" transform="translate(32.167969, 28.125000)" fill="#ED4C54">
                <path d="M11.2942969,61.8489844 L11.3108203,61.8493359 C9.556875,60.2778516 9.84621094,55.5403711 10.2554297,54.5345508 C9.19019531,56.6166797 9.31763672,59.4050977 10.1817773,61.171875 C10.2788086,61.3701562 10.0917773,61.6104492 9.88980469,61.7795508 C10.3561523,61.8101367 10.824082,61.8331641 11.2942969,61.8489844 Z" id="Shape"></path>
                <path d="M9.433125,10.4593359 C9.433125,10.4593359 7.75142578,9.58324219 7.22109375,9.94816406 C6.69111328,10.3134375 7.04583984,10.8488672 7.75353516,11.1046289 C8.46175781,11.3607422 8.73878906,11.5635938 9.46898437,11.9907422 C9.90474609,12.245625 10.6748438,12.1800586 11.109375,11.9239453 C11.8376367,11.4948633 11.8717383,11.3445703 12.5789062,11.0863477 C13.2858984,10.8277734 13.6381641,10.2919922 13.1073047,9.92847656 C12.5755664,9.56496094 10.9741992,10.3814648 10.9741992,10.3814648 C10.5335156,10.5649805 9.87433594,10.6163086 9.433125,10.4593359 Z M7.41392578,0.280546875 C7.01472656,0.581484375 7.36576172,0.992460938 7.93810547,1.12587891 C8.51027344,1.25894531 8.74476562,1.39095703 9.35050781,1.65427734 C9.71191406,1.81125 10.1529492,1.91882813 10.4639062,1.68134766 C10.9854492,1.28285156 11.3853516,1.23169922 11.9068945,0.9675 C12.4472461,0.693984375 12.4377539,0.436640625 12.2500195,0.26859375 C12.0573633,0.0965039063 11.6674805,0.0235546875 10.7688867,0.626660156 C9.68080078,1.37162109 7.93617187,-0.112851562 7.41392578,0.280546875 Z M9.23115234,2.67082031 C9.23115234,2.67082031 7.70378906,1.89527344 7.22865234,2.22925781 C6.7528125,2.56376953 7.07888672,3.04417969 7.72066406,3.26900391 C8.36314453,3.49347656 8.61539062,3.67470703 9.27914063,4.05404297 C9.675,4.27957031 10.3702148,4.21382812 10.7602734,3.97880859 C11.414707,3.58417969 11.4430078,3.448125 12.0795117,3.20835937 C12.7156641,2.96894531 13.0292578,2.48132812 12.5456836,2.15789062 C12.0622852,1.83410156 10.6233398,2.58679687 10.6233398,2.58679687 C10.2269531,2.75589844 9.63158203,2.80810547 9.23115234,2.67082031 Z M9.34400391,5.05951172 C9.34400391,5.05951172 7.66318359,4.18394531 7.13267578,4.54939453 C6.60287109,4.91466797 6.95742188,5.44921875 7.66546875,5.70480469 C8.37298828,5.96126953 8.65072266,6.16464844 9.38091797,6.59179687 C9.81580078,6.84650391 10.5869531,6.78111328 11.0211328,6.52447266 C11.7499219,6.09539062 11.7833203,5.94544922 12.4903125,5.68705078 C13.1974805,5.42865234 13.550625,4.89199219 13.0190625,4.52917969 C12.4876758,4.16548828 10.8861328,4.98199219 10.8861328,4.98199219 C10.4449219,5.16603516 9.78574219,5.21683594 9.34400391,5.05951172 Z M9.47707031,7.88835938 C9.47707031,7.88835938 7.79501953,7.01261719 7.26574219,7.37789063 C6.73523437,7.7428125 7.08996094,8.27736328 7.79800781,8.53365234 C8.50587891,8.78958984 8.78308594,8.99296875 9.51345703,9.42011719 C9.94869141,9.67447266 10.7193164,9.60925781 11.1536719,9.35296875 C11.8824609,8.92388672 11.9162109,8.77341797 12.6228516,8.51519531 C13.3300195,8.25679688 13.6824609,7.72066406 13.1516016,7.35785156 C12.6196875,6.99433594 11.0184961,7.81066406 11.0184961,7.81066406 C10.5776367,7.99400391 9.91828125,8.04498047 9.47707031,7.88835938 Z M12.9048047,37.3976367 C12.9048047,37.3976367 11.2705664,36.4410352 10.7221289,36.7801172 C10.174043,37.1190234 10.500293,37.6704492 11.1939258,37.9608398 C13.2470508,38.8179492 13.4254687,39.1679297 13.6611914,39.1382227 C13.8802148,39.1108008 14.1488086,38.7558984 16.0138477,38.1770508 C16.7336719,37.9536328 17.1133594,37.4347266 16.6013086,37.04625 C16.0894336,36.6574219 14.4483398,37.3953516 14.4483398,37.3953516 C13.9988672,37.5568945 13.3374023,37.5760547 12.9048047,37.3976367 Z M12.9269531,34.9337109 C12.9269531,34.9337109 11.2927148,33.9774609 10.7448047,34.3160156 C10.1958398,34.6549219 10.5224414,35.2070508 11.2164258,35.4965625 C11.909707,35.7869531 12.1763672,36.0031641 12.8833594,36.4651172 C13.3048828,36.7405664 14.0783203,36.7126172 14.525332,36.4779492 C15.2757422,36.0845508 15.3165234,35.9358398 16.0361719,35.7129492 C16.7558203,35.4888281 17.1356836,34.9702734 16.6236328,34.5819727 C16.1119336,34.1936719 14.4703125,34.9310742 14.4703125,34.9310742 C14.0204883,35.0929687 13.3600781,35.1119531 12.9269531,34.9337109 Z M12.9976172,32.207168 C12.9976172,32.207168 11.1863672,31.622168 10.7282813,32.0691797 C10.2703711,32.516543 10.7136914,32.9851758 11.4563672,33.1203516 C12.1988672,33.2558789 12.5077148,33.4100391 13.3022461,33.7100977 C13.7763281,33.8888672 14.5241016,33.6976172 14.9069531,33.3729492 C15.5492578,32.8294336 15.5557617,32.6761523 16.207207,32.3049023 C16.8586523,31.9333008 17.1116016,31.3467187 16.5239648,31.0767187 C15.9361523,30.806543 14.5019531,31.8761719 14.5019531,31.8761719 C14.1004688,32.1287695 13.4599219,32.2889062 12.9976172,32.207168 Z M12.3075,29.356875 C12.3075,29.356875 10.625625,28.4813086 10.0956445,28.8458789 C9.56566406,29.2116797 9.92021484,29.746582 10.6280859,30.0023438 C11.3361328,30.258457 11.6133398,30.4611328 12.3435352,30.888457 C12.7787695,31.1435156 13.5488672,31.0777734 13.98375,30.8216602 C14.7125391,30.3927539 14.7457617,30.2422852 15.4532813,29.9837109 C16.1602734,29.7258398 16.5127148,29.1895313 15.9815039,28.8263672 C15.4497656,28.4628516 13.84875,29.279707 13.84875,29.279707 C13.4078906,29.4625195 12.7483594,29.5140234 12.3075,29.356875 Z M11.5112109,26.7215625 C11.5112109,26.7215625 9.82986328,25.8459961 9.30005859,26.2105664 C8.769375,26.5758398 9.12392578,27.110918 9.83232422,27.3666797 C10.5401953,27.6231445 10.8174023,27.8259961 11.5477734,28.2533203 C11.9826562,28.5080273 12.7536328,28.4426367 13.1876367,28.1861719 C13.9166016,27.7569141 13.95,27.6066211 14.657168,27.3483984 C15.3641602,27.0898242 15.7169531,26.554043 15.1853906,26.1907031 C14.6543555,25.8270117 13.0531641,26.6435156 13.0531641,26.6435156 C12.6119531,26.8270313 11.9522461,26.8785352 11.5112109,26.7215625 Z M10.9142578,23.893418 C10.9142578,23.893418 9.23291016,23.0178516 8.70257813,23.3825977 C8.17242188,23.7480469 8.52679688,24.2829492 9.23537109,24.5388867 C9.94289063,24.795 10.2202734,24.9980273 10.9506445,25.4253516 C11.3857031,25.679707 12.1561523,25.6144922 12.5906836,25.3580273 C13.3194727,24.9289453 13.3528711,24.7788281 14.0598633,24.5204297 C14.767207,24.262207 15.1196484,23.7258984 14.5886133,23.3625586 C14.0574023,22.999043 12.4560352,23.8158984 12.4560352,23.8158984 C12.0148242,23.9994141 11.3558203,24.0496875 10.9142578,23.893418 Z M10.4944922,21.0649219 C10.4944922,21.0649219 8.81296875,20.1893555 8.28263672,20.5539258 C7.75265625,20.919375 8.10685547,21.4544531 8.81507812,21.7103906 C9.52294922,21.9663281 9.80033203,22.1695313 10.5303516,22.5963281 C10.9655859,22.8512109 11.7365625,22.7861719 12.1710938,22.529707 C12.8998828,22.100625 12.9331055,21.950332 13.6402734,21.6921094 C14.3474414,21.4335352 14.699707,20.8970508 14.1690234,20.5342383 C13.6372852,20.1705469 12.035918,20.9874023 12.035918,20.9874023 C11.5948828,21.170918 10.9357031,21.2218945 10.4944922,21.0649219 Z M10.0963477,18.3225586 C10.0963477,18.3225586 8.41464844,17.4473438 7.88431641,17.8120898 C7.3546875,18.1771875 7.7090625,18.7122656 8.41710938,18.9680273 C9.12515625,19.2241406 9.40236328,19.4268164 10.1327344,19.8541406 C10.567793,20.1090234 11.3387695,20.043457 11.7729492,19.7875195 C12.5017383,19.3582617 12.5349609,19.2079687 13.2421289,18.9499219 C13.9492969,18.6915234 14.3020898,18.1550391 13.7707031,17.7920508 C13.2393164,17.4283594 11.638125,18.2452148 11.638125,18.2452148 C11.1967383,18.4283789 10.5375586,18.4795312 10.0963477,18.3225586 Z M9.96380859,15.7081641 C9.96380859,15.7081641 8.28210937,14.8329492 7.75212891,15.1978711 C7.22197266,15.562793 7.576875,16.0980469 8.28457031,16.3538086 C8.99226563,16.6095703 9.26947266,16.8129492 9.99984375,17.240625 C10.4356055,17.4944531 11.2057031,17.4292383 11.6400586,17.1733008 C12.3688477,16.744043 12.4025977,16.5933984 13.1094141,16.3355273 C13.8167578,16.0771289 14.1691992,15.5409961 13.6379883,15.177832 C13.1067773,14.8141406 11.5050586,15.6308203 11.5050586,15.6308203 C11.0645508,15.8141602 10.4050195,15.8651367 9.96380859,15.7081641 Z M9.54369141,13.095 C9.54369141,13.095 7.86164063,12.2194336 7.33236328,12.5840039 C6.80238281,12.9491016 7.15658203,13.4843555 7.86462891,13.7399414 C8.5725,13.9960547 8.84988281,14.1989062 9.57972656,14.6264063 C10.0154883,14.8811133 10.7861133,14.8155469 11.2201172,14.5596094 C11.9492578,14.1305273 11.9824805,13.9800586 12.6894727,13.7216602 C13.3964648,13.4634375 13.7489063,12.9271289 13.2180469,12.5644922 C12.6870117,12.2008008 11.0854687,13.0174805 11.0854687,13.0174805 C10.6442578,13.2001172 9.98525391,13.2517969 9.54369141,13.095 Z" id="Shape"></path>
                <path d="M0.042890625,42.7805859 L4.68597656,45.4779492 L10.213418,46.8045703 C10.213418,46.8045703 10.213418,46.1411719 9.85957031,45.7655273 C9.50589844,45.389707 5.41564453,43.5988477 5.41564453,43.5988477 L4.15546875,42.7144922 L7.40548828,43.9085742 L12.9556055,44.5057031 C12.9556055,44.5057031 13.3532227,44.0636133 13.0658203,43.5986719 C12.7785938,43.1347852 8.79890625,42.4051172 8.79890625,42.4051172 L5.08412109,40.9677539 L4.66400391,40.4368945 L8.40041016,41.6977734 C8.40041016,41.6977734 11.8940625,42.1614844 12.2257617,42.0287695 C12.5572852,41.8960547 12.2695312,41.1226172 12.2695312,41.1226172 L8.17875,39.6191602 L5.18255859,38.480625 L5.18255859,38.0492578 L6.89642578,38.6578125 L10.7771484,39.1879688 C10.7771484,39.1879688 11.4182227,38.9670117 10.9536328,38.3477344 C10.4893945,37.7286328 6.78585937,36.7783594 6.78585937,36.7783594 C6.78585937,36.7783594 6.32144531,36.3582422 3.88951172,35.0977148 C3.37078125,34.8287695 2.79439453,34.6306641 2.20886719,34.4847656 L0.042890625,42.7805859 Z" id="Shape"></path>
            </g>
            <g id="Group" transform="translate(5.273438, 6.679688)" fill="#FF5B62">
                <path d="M21.3458203,26.0834766 C18.912832,26.7133008 16.115625,27.9736523 14.1249023,30.6275977 C14.1249023,30.6275977 7.04988281,34.7839453 3.95384766,40.2676172 C0.858339844,45.7512891 -1.08738281,47.5196484 0.947109375,50.1730664 C2.98107422,52.8266602 19.7404102,58.0447266 20.8016016,58.6638281 C21.7263867,59.203125 23.2134961,60.7582617 23.5805273,61.1491992 L26.9370703,64.22625 L29.1033984,55.9307812 C26.9442773,55.3932422 24.6592969,55.5711328 24.6592969,55.5711328 C24.6592969,55.5711328 24.0844922,55.6597266 21.9179883,53.9347852 C19.7507813,52.2103711 8.91703125,46.1079492 8.91703125,46.1079492 C8.91703125,46.1079492 11.0842383,45.0905273 13.2064453,43.8085547 C15.3290039,42.5264062 22.3126172,37.4602148 22.3126172,37.4602148 C22.3126172,37.4602148 23.6872266,34.9205273 25.0136719,31.4272266 C26.3411719,27.9328711 21.3458203,26.0834766 21.3458203,26.0834766 Z" id="Shape"></path>
                <path d="M56.9457422,35.4580664 C57.6138867,32.1366797 58.6168945,29.7207422 59.7151758,28.1061914 C61.2188086,25.8957422 69.6647461,18.9968555 70.9027734,14.6631445 C72.1413281,10.3301367 74.3076563,7.23410156 74.8383398,5.68652344 C75.3691992,4.13859375 75.4576172,0.15890625 71.9201953,0.0706640625 C68.3820703,-0.0179296875 48.6156445,7.36664063 48.6156445,7.36664063 L45.8298633,8.07451172 C45.8298633,8.07451172 44.272793,8.27841797 43.5854883,8.94058594 L43.4188477,9.13535156 L40.7858203,12.1190625 L37.2916406,14.0175 C37.2916406,14.0175 35.3464453,14.1528516 35.4348633,14.8164258 C35.5232813,15.48 37.6310742,15.1507617 37.6310742,15.1507617 L40.6198828,14.1416016 L37.8708398,15.5172656 C37.8708398,15.5172656 34.7936133,15.9883594 34.7053711,16.2311133 C34.6171289,16.4738672 34.6640625,17.2274414 35.1284766,17.1831445 C35.5928906,17.1388477 39.4147266,16.6737305 39.4147266,16.6737305 L41.7805664,16.0101563 L38.9503125,17.447168 C38.9503125,17.447168 34.3734961,17.9558789 34.2629297,18.4424414 C34.1523633,18.9290039 34.2629297,19.3930664 34.572832,19.5036328 C34.882207,19.6141992 39.4809961,19.2601758 39.4809961,19.2601758 L43.0191211,17.8454883 L40.0325977,19.6291406 L35.8771289,20.3881641 C35.8771289,20.3881641 35.6918555,21.3996094 36.399375,21.5317969 C37.1068945,21.6639844 40.8352148,21.1920117 40.8352148,21.1920117 L45.2204297,19.3141406 C45.2204297,19.3141406 48.1456055,16.0583203 48.3885352,14.7979688 C48.6314648,13.5376172 48.865957,13.2781641 49.4629102,12.7476563 C50.0598633,12.2171484 50.1815039,12.4933008 50.1815039,12.4933008 L61.7892188,9.81808594 C61.7892188,9.81808594 60.4402734,11.2774219 59.7988477,12.5597461 C59.1577734,13.8422461 52.8561914,15.8313867 51.6179883,18.6616406 C49.4553516,23.604082 48.0267773,22.8636914 44.4097266,21.5361914 C44.4097266,21.5361914 41.4411328,24.0632227 41.4161719,25.060957 C41.2869727,30.1424414 43.865332,43.7029102 44.1087891,43.8491602 C44.4004102,44.0238867 52.2182813,46.9225195 56.9457422,35.4580664 Z" id="Shape"></path>
            </g>
            <path d="M50.0044922,15.0097852 C49.5891211,15.1451367 49.1473828,15.3420117 48.85875,15.6200977 L48.6921094,15.8148633 L46.059082,18.7985742 L42.8491406,20.5425 C42.5729883,20.6924414 40.9531641,20.737793 40.5847266,21.0839062 C39.538125,22.066875 42.6888281,21.9030469 43.0134961,21.7933594 L45.892793,20.8214648 L43.14375,22.1971289 C43.14375,22.1971289 39.9636914,22.7823047 39.8754492,23.0252344 C39.787207,23.2681641 39.7622461,23.8809375 40.2266602,23.8368164 C40.6910742,23.7926953 43.75125,23.719043 43.75125,23.719043 L46.792793,22.7633203 L46.4087109,21.5258203 C46.4087109,21.5258203 47.210625,20.4911719 47.8678711,18.9701367 C47.8678711,18.9701367 48.7657617,18.8428711 49.0969336,18.3346875 C49.3316016,17.9748633 49.798125,16.3130273 50.0044922,15.0097852 Z M46.8087891,22.8144727 L43.7899219,24.3323437 C43.7899219,24.3323437 39.6469336,24.6355664 39.5363672,25.1219531 C39.4258008,25.6085156 39.6736523,25.8444141 39.9833789,25.9549805 C40.2929297,26.0655469 44.4004102,25.8829102 44.4004102,25.8829102 L47.4445898,24.864082 L46.8087891,22.8144727 Z M47.4883594,25.0054102 L45.3058594,26.3088281 L41.4163477,27.0193359 C41.2468945,27.0502734 41.1266602,27.1958203 41.1285938,27.3680859 C41.1317578,27.6772852 41.2178906,28.1267578 41.6726367,28.2116602 C42.3799805,28.3436719 45.9391992,27.6844922 45.9391992,27.6844922 L48.1252148,27.0082617 L48.1042969,26.9920898 L47.4883594,25.0054102 Z" id="Shape" fill="#ED4C54"></path>
            <path d="M37.4663672,25.6383984 C39.7541602,25.6383984 41.6084766,27.4927148 41.6084766,29.7805078 C41.6084766,32.0683008 39.7539844,33.9226172 37.4663672,33.9226172 C35.1785742,33.9226172 33.3242578,32.068125 33.3242578,29.7805078 C33.3242578,27.4930664 35.1785742,25.6383984 37.4663672,25.6383984 Z M37.4663672,21.9717773 C39.6210938,21.9717773 41.5724414,22.8461133 42.9857227,24.259043 L42.9881836,24.2615039 C44.4007617,25.6746094 45.2754492,27.6266602 45.2754492,29.7808594 C45.2754492,31.9355859 44.4011133,33.8869336 42.9881836,35.3002148 L42.9857227,35.3026758 C41.5726172,36.7152539 39.6210938,37.5899414 37.4663672,37.5899414 C35.3123437,37.5899414 33.360293,36.7156055 31.9470117,35.3026758 L31.9445508,35.3002148 C30.5319727,33.8871094 29.6572852,31.9355859 29.6572852,29.7808594 C29.6572852,27.6268359 30.5316211,25.6747852 31.9445508,24.2615039 L31.9470117,24.259043 C33.3601172,22.8461133 35.3123437,21.9717773 37.4663672,21.9717773 Z M42.1382812,25.1087695 C40.9431445,23.9146875 39.2915039,23.1757031 37.466543,23.1757031 C35.641582,23.1757031 33.9899414,23.9146875 32.7948047,25.1087695 C31.6007227,26.3039063 30.8617383,27.9557227 30.8617383,29.7805078 C30.8617383,31.6056445 31.6007227,33.2571094 32.7948047,34.4522461 C33.9899414,35.6463281 35.6417578,36.3853125 37.466543,36.3853125 C39.2916797,36.3853125 40.9431445,35.6463281 42.1382813,34.4522461 C43.3323633,33.2571094 44.0713477,31.6054688 44.0713477,29.7805078 C44.0711719,27.9557227 43.3323633,26.304082 42.1382812,25.1087695 Z" id="Shape" fill="#FEFEFE"></path>
            <path d="M26.955,40.7763281 C26.8377539,41.7294141 27.1342969,44.1108984 26.7234961,44.7626953 C27.774668,46.3053516 28.9993359,47.4233203 30.0339844,49.5736523 C28.9216406,47.1357422 27.8216016,44.6266406 26.955,40.7763281 Z" id="Shape" fill="#ED4C54"></path>
            <path d="M48.6919336,68.4794531 C50.2667578,68.4794531 51.5432812,69.7561523 51.5432812,71.3308008 C51.5432812,72.9054492 50.266582,74.1821484 48.6919336,74.1821484 C47.1172852,74.1821484 45.8405859,72.9054492 45.8405859,71.3308008 C45.8405859,69.7561523 47.1171094,68.4794531 48.6919336,68.4794531 Z M48.6919336,65.9554102 C50.1751758,65.9554102 51.5184961,66.5572852 52.4912695,67.5298828 C53.5028906,68.5415039 54.0671484,69.8999414 54.0671484,71.3308008 C54.0671484,72.814043 53.4652734,74.1573633 52.4926758,75.1301367 C51.4808789,76.1419336 50.122793,76.7060156 48.6917578,76.7060156 C47.2088672,76.7060156 45.8651953,76.1041406 44.8924219,75.1317188 C43.880625,74.1199219 43.316543,72.7618359 43.316543,71.3308008 C43.316543,69.8479102 43.918418,68.5042383 44.8908398,67.5314648 C45.9026367,66.5198438 47.2610742,65.9554102 48.6919336,65.9554102 Z M51.9078516,68.1148828 C51.0851953,67.2929297 49.948418,66.7842188 48.6921094,66.7842188 C47.4359766,66.7842188 46.2990234,67.2929297 45.4763672,68.1148828 C44.6544141,68.9375391 44.1457031,70.074668 44.1457031,71.330625 C44.1457031,72.5869336 44.6544141,73.7237109 45.4763672,74.5463672 C46.2990234,75.3683203 47.4359766,75.8770313 48.6921094,75.8770313 C49.948418,75.8770313 51.0851953,75.3683203 51.9078516,74.5463672 C52.7298047,73.7237109 53.2385156,72.5869336 53.2385156,71.330625 C53.2383398,70.074668 52.7298047,68.9375391 51.9078516,68.1148828 Z" id="Shape" fill="#FEFEFE"></path>
            <path d="M67.0626562,16.4977734 C67.6803516,16.5297656 70.3989844,15.9373828 72.0706641,14.7766992 L73.7152734,13.6346484 C71.5533398,15.9096094 69.6694922,16.8466992 66.410332,17.2601367 C66.7791211,16.8043359 67.0626562,16.4977734 67.0626562,16.4977734 Z" id="Shape" fill="#ED4C54"></path>
        </g>
    </g>
</svg>