<?xml version="1.0" encoding="UTF-8"?>
<svg width="92px" height="92px" viewBox="0 0 92 92" version="1.1" xmlns="http://www.w3.org/2000/svg" xmlns:xlink="http://www.w3.org/1999/xlink">
    <!-- Generator: Sketch 51.2 (57519) - http://www.bohemiancoding.com/sketch -->
    <title>ic_pregnancy</title>
    <desc>Created with Sketch.</desc>
    <defs></defs>
    <g id="ic_pregnancy" stroke="none" stroke-width="1" fill="none" fill-rule="evenodd">
        <g id="101-pregnancy" transform="translate(1.000000, 1.000000)" fill-rule="nonzero">
            <circle id="Oval" fill="#FF5B62" cx="44.9996484" cy="44.9996484" r="44.9996484"></circle>
            <path d="M42.6111328,0.0636328125 C41.2131445,2.60138672 39.4688672,4.85472656 37.2452344,6.01066406 C28.5354492,10.5379102 27.7461914,16.6614258 35.2722656,19.3888477 C0.302695312,43.0419727 13.1795508,74.1779297 36.331875,74.178457 L37.3542188,89.3496094 C39.8394141,89.7751758 42.3933398,89.9992969 44.9998242,89.9992969 C57.0891797,89.9992969 68.0639062,85.2308789 76.1489648,77.4738281 C76.0978125,71.520293 74.3152148,62.7117188 67.4258203,51.2166797 C64.8198633,40.8807422 69.3743555,22.7501367 72.887168,9.68273437 C65.2199414,3.62003906 55.5328125,0 44.9996484,0 C44.1982617,0 43.4019727,0.021796875 42.610957,0.0631054688 L42.6111328,0.0636328125 Z" id="Shape" fill="#FED298"></path>
            <g id="Group" transform="translate(16.171875, 16.523438)" fill="#F0BA7D">
                <path d="M19.100918,2.86558594 C18.5361328,3.24791016 17.9845313,3.63181641 17.4443555,4.01818359 C24.1556836,5.02664062 27.0857813,0.13078125 27.0857813,0.13078125 C24.0704297,2.73498047 19.1003906,2.86576172 19.1003906,2.86576172 L19.100918,2.86558594 Z" id="Shape"></path>
                <ellipse id="Oval" cx="16.2488672" cy="34.7269922" rx="16.0804687" ry="19.0963477"></ellipse>
            </g>
            <path d="M32.2194727,56.7263672 C32.2194727,56.7263672 35.2773633,54.0175781 37.2304688,55.7985937 C38.3222461,56.9775586 37.6011914,57.2500195 38.7908789,58.3382812 C39.9805664,59.4268945 44.1420117,62.509043 39.179707,66.6762891 C34.2175781,70.8433594 29.6022656,65.7260156 29.546543,62.6760352 C29.546543,62.6760352 25.3040625,63.3496289 20.8321875,57.2704102 C16.3606641,51.1911914 16.6304883,47.4744727 19.9705078,45.2344922 C23.3105273,42.9945117 26.8727344,44.8061133 26.8727344,44.8061133 C26.8727344,44.8061133 25.9150781,43.8373828 25.8368555,42.9973242 C25.7589844,42.1572656 25.7382422,41.8723242 25.7382422,41.8723242 C24.6800391,40.8239648 26.2961719,39.6163477 27.1174219,40.1097656 C27.8029688,40.5214453 29.0807227,39.2120508 29.7966797,39.8497852 C29.8935352,39.5926172 30.3799219,39.7945898 30.0608789,40.3657031 C30.0608789,40.3657031 29.816543,40.7591016 29.1816211,41.0424609 C29.1816211,41.0424609 29.0313281,41.6450391 28.3000781,41.9719922 C29.3094141,42.8034375 31.4625586,46.314668 30.7562695,47.507168 C30.3168164,48.2480859 29.6017383,48.9867187 27.6975,48.8028516 C27.6975,48.8028516 28.9557422,50.1625195 29.0091797,51.2386523 C29.0620898,52.3147852 28.9901953,52.1377734 28.9901953,52.1377734 C28.9901953,52.1377734 29.6361914,51.177832 30.3922266,50.8600195 C31.1484375,50.5423828 34.1938477,50.9744531 34.1938477,50.9744531 C34.1938477,50.9744531 35.8191211,50.6866992 36.4772461,51.2330273 C36.4772461,51.2330273 36.6380859,51.3576562 36.6168164,51.4989844 C37.0733203,51.6566602 36.9667969,52.0061133 36.9583594,52.0574414 C37.1953125,52.2599414 37.1039063,52.4668359 37.0214648,52.6457812 C37.3004297,52.7642578 37.1367773,53.2045898 36.9200391,53.1889453 C36.9200391,53.1889453 37.0901953,53.4499805 37.0509961,53.6458008 C37.0117969,53.8417969 36.5129297,53.8588477 36.1524023,53.9952539 C35.791875,54.1311328 35.185957,53.8780078 34.9029492,53.6540625 C34.1620313,53.4512109 32.8747852,54.2337891 31.9575586,53.5594922 C31.9575586,53.5594922 33.3965039,55.1003906 32.2194727,56.728125 L32.2194727,56.7263672 Z" id="Shape" fill="#FED298"></path>
            <g id="Group" transform="translate(17.402344, 45.703125)" fill="#F0BA7D">
                <path d="M12.1438477,16.9727344 C12.1438477,16.9727344 7.90136719,17.6463281 3.42949219,11.5671094 C-0.678691406,5.98201172 -0.784335938,2.39115234 1.81529297,0.107578125 C-2.68998047,5.31351562 5.87654297,16.0381055 12.1433203,16.9732617 L12.1438477,16.9727344 Z" id="Shape"></path>
                <path d="M15.1875,10.1705273 C15.1869727,10.1742187 14.8236328,11.7198633 13.0236328,12.7008984 C14.085,12.412793 15.0375586,11.6917383 15.1875,10.1705273 Z" id="Shape"></path>
            </g>
            <path d="M39.3380859,43.8117188 C39.3403711,43.8241992 40.1988867,48.3011719 37.5347461,48.8932031 C36.75375,49.0665234 35.9537695,49.0276758 35.1177539,48.9872461 C33.2931445,48.8986523 31.2089063,49.2082031 29.017793,51.4306055 L28.7716992,50.381543 C31.0932422,48.0273047 33.2136914,48.3445898 35.1256641,48.4377539 C38.5653516,48.6045703 39.5883984,47.6326758 38.9315039,43.8866016 C38.9070703,43.4735156 39.1169531,43.4056641 39.3375586,43.8118945 L39.3380859,43.8117188 Z" id="Shape" fill="#FED298"></path>
            <ellipse id="Oval" fill="#F0BA7D" cx="30.4839844" cy="13.4085937" rx="1" ry="1"></ellipse>
        </g>
    </g>
</svg>