<?xml version="1.0" encoding="UTF-8"?>
<svg width="54px" height="54px" viewBox="0 0 54 54" version="1.1" xmlns="http://www.w3.org/2000/svg" xmlns:xlink="http://www.w3.org/1999/xlink">
    <title>ic_pain_full</title>
    <g id="Page-1" stroke="none" stroke-width="1" fill="none" fill-rule="evenodd">
        <g id="Home-Page" transform="translate(-41.000000, -1816.000000)">
            <g id="Group-3" transform="translate(16.000000, 1808.000000)">
                <g id="ic_pain_full" transform="translate(25.000000, 8.000000)">
                    <circle id="Oval" stroke-opacity="0.3" stroke="#FF5B62" fill-opacity="0.1" fill="#FF5B62" cx="27" cy="27" r="26.5"></circle>
                    <g id="ic_pain" transform="translate(9.000000, 10.000000)">
                        <circle id="Oval" cx="17" cy="17" r="17"></circle>
                        <path d="M12.3988983,26.5892 C12.3988983,26.5892 11.1250387,29.7366619 11.0719667,32.7801497 C13.0068857,33.5665289 15.1178983,34 17.3287258,34 C19.2140011,34 21.0267557,33.6843214 22.7197192,33.1040121 C22.6965126,32.9658273 22.6741629,32.8433391 22.6529342,32.7408409 C22.2549932,30.8171199 22.0558248,29.7034573 22.0558248,29.7034573 C22.0558248,29.7034573 22.3211189,27.914433 22.2051516,27.0539305 C22.0889866,26.1933608 22.1056004,24.0670582 22.4705116,23.0882265 C22.8353568,22.1095289 23.3658789,19.3758837 23.5650472,17.2833894 C23.7640177,15.1908951 24.2615099,13.7732258 24.8255894,12.9294933 C25.389537,12.085962 21.232319,10.6874776 20.7017309,10.8225768 C20.1709451,10.9574747 19.0852438,10.4223103 19.0852438,10.4223103 L18.4930791,9.95536622 L17.85727,7.86931164 C17.85727,7.86931164 18.1580333,7.47447859 18.4045378,6.89403512 C18.4045378,6.89403512 18.7412978,6.84546923 18.865506,6.65154084 C18.989912,6.45741123 19.2885655,5.26774701 19.23879,4.87968906 C19.2138033,4.6845533 18.9896483,4.70709215 18.7728113,4.7775262 C18.7786789,3.62623171 18.5394264,1.72082359 16.9800988,1.09986379 C14.6910808,0.188715809 13.4883574,1.87068036 13.4883574,1.87068036 C13.4883574,1.87068036 12.8166836,2.82429 12.9327827,3.97176091 C13.0488159,5.11936596 13.0820436,5.45664433 13.0820436,5.45664433 C13.0820436,5.45664433 12.5935835,5.16531579 12.5521148,5.67163584 C12.5106461,6.17795585 13.1461255,7.20964667 13.1959011,7.29403333 C13.2456767,7.37841999 13.5316721,7.23909476 13.5316721,7.23909476 C13.5316721,7.23909476 13.7682215,7.96463231 13.9008026,8.13347272 C14.0335156,8.30211195 14.1039266,8.33598735 14.1039266,8.33598735 C14.1039266,8.33598735 14.6099236,10.1456052 14.6099236,10.3313498 C14.6099236,10.5169602 12.7191762,11.7655207 12.3210374,11.8668786 C12.1256929,11.916652 11.3745759,11.9175911 10.4839554,12.1451266 C9.59326895,12.3727291 10.0885196,13.2675095 10.0885196,13.2675095 C10.0885196,13.2675095 10.4161156,15.6046447 10.7976405,16.4990227 C11.1790996,17.3934007 12.17415,19.7726621 12.937068,20.7345896 C13.6998543,21.6965172 13.3445027,23.5477917 13.3445027,23.5477917 L12.3988983,26.5892 Z" id="Shape" fill="#FF5B62" fill-rule="nonzero"></path>
                        <g id="Group" transform="translate(12.439024, 10.780488)" fill="#ED4C54" fill-rule="nonzero">
                            <path d="M4.43872774,23.2193799 L4.44524629,23.2195122 C3.75330739,22.628143 3.86745165,20.8453699 4.0288902,20.4668672 C3.60865069,21.2503983 3.65892687,22.2997148 3.99983401,22.9645752 C4.03811327,23.0391909 3.96432863,23.1296161 3.88464957,23.1932512 C4.06862569,23.204761 4.25322596,23.2134265 4.43872774,23.2193799 Z" id="Shape"></path>
                            <path d="M3.70448749,3.88081309 C3.70448749,3.88081309 3.04104998,3.55112808 2.83183173,3.68845274 C2.62275218,3.8259097 2.76269331,4.02739859 3.04188214,4.12364491 C3.32127899,4.22002354 3.430569,4.29635914 3.71863416,4.45710042 C3.89054402,4.553016 4.19435085,4.52834254 4.36577526,4.43196391 C4.6530776,4.27049499 4.66653083,4.21393786 4.94551158,4.11676547 C5.22442301,4.01946073 5.36339332,3.81783957 5.15396704,3.68104409 C4.94419401,3.54424862 4.31244783,3.85150923 4.31244783,3.85150923 C4.13859627,3.92056847 3.87854708,3.93988388 3.70448749,3.88081309 Z M2.90790479,0.0504076013 C2.75041899,0.163654142 2.88890386,0.318309758 3.11469591,0.368516608 C3.34041861,0.418591157 3.43292678,0.468268817 3.67189465,0.567359537 C3.81447096,0.626430311 3.9884612,0.66691331 4.11113507,0.577546439 C4.316886,0.427587377 4.4746492,0.408338113 4.6804001,0.308916645 C4.89357111,0.205989298 4.8898264,0.10914763 4.81576437,0.0459094908 C4.73976068,-0.0188500674 4.58595025,-0.04630177 4.23145117,0.180654354 C3.80219664,0.460992459 3.1139331,-0.097633146 2.90790479,0.0504076013 Z M3.62480841,0.949897361 C3.62480841,0.949897361 3.02225709,0.658049384 2.83481363,0.783731876 C2.64709278,0.909612814 2.77573045,1.09039716 3.02891435,1.17500132 C3.28237563,1.25947319 3.38188779,1.32767248 3.64374,1.47042133 C3.7999082,1.55529009 4.07417341,1.53055048 4.22805319,1.44210969 C4.48623003,1.29360591 4.49739482,1.24240683 4.74849832,1.15218003 C4.99946314,1.06208552 5.1231772,0.878589081 4.93240512,0.75687551 C4.74170239,0.635029641 4.1740323,0.918278288 4.1740323,0.918278288 C4.01765606,0.981913322 3.78277963,1.00155948 3.62480841,0.949897361 Z M3.66932884,1.84879178 C3.66932884,1.84879178 3.00623806,1.5193052 2.79695046,1.65682831 C2.58794025,1.79428527 2.72781206,1.99544341 3.00713956,2.09162359 C3.28625903,2.18813452 3.39582643,2.26466854 3.68389159,2.42540983 C3.85545471,2.52125927 4.15967759,2.49665196 4.33096333,2.40007489 C4.61847374,2.23860595 4.63164955,2.18218113 4.91056099,2.08494257 C5.18954178,1.98770401 5.32885878,1.78575209 5.11915511,1.64922122 C4.9095208,1.51235959 4.27770526,1.81962022 4.27770526,1.81962022 C4.10364568,1.88887788 3.84359647,1.90799485 3.66932884,1.84879178 Z M3.7218241,2.9133225 C3.7218241,2.9133225 3.0582479,2.58376978 2.84944573,2.72122674 C2.64015813,2.8585514 2.78009928,3.05970953 3.05942678,3.15615431 C3.33868495,3.25246679 3.44804431,3.32900081 3.73617882,3.4897421 C3.90788063,3.58545925 4.21189548,3.56091809 4.38325057,3.46447331 C4.67076094,3.30300438 4.68407546,3.24638111 4.96284823,3.1492087 C5.24182897,3.05197014 5.38086859,2.85021666 5.17144235,2.71368578 C4.96159998,2.57689031 4.32992314,2.88408478 4.32992314,2.88408478 C4.15600223,2.95307786 3.8958837,2.97226098 3.7218241,2.9133225 Z M5.07407991,14.0180323 C5.07407991,14.0180323 4.42936595,13.6580512 4.21300502,13.785652 C3.99678279,13.9131866 4.12548981,14.120695 4.39913091,14.2299726 C5.2090975,14.5525136 5.27948411,14.6842156 5.37247769,14.6730365 C5.45888338,14.6627173 5.56484474,14.5291631 6.30061065,14.3113355 C6.58458435,14.2272605 6.73437269,14.0319897 6.53236647,13.8858011 C6.3304296,13.7394802 5.68301112,14.0171723 5.68301112,14.0171723 C5.50569225,14.077963 5.24474155,14.0851732 5.07407991,14.0180323 Z M5.08281755,13.0908262 C5.08281755,13.0908262 4.43810359,12.7309774 4.22195072,12.8583797 C4.00538173,12.9859144 4.13422745,13.1936874 4.40800725,13.3026343 C4.68150964,13.4119119 4.78670823,13.4932748 5.06561966,13.6671135 C5.23191242,13.7707685 5.53703684,13.7602509 5.71338487,13.6719424 C6.00942487,13.5239016 6.02551325,13.4679398 6.30941764,13.3840633 C6.59332198,13.2997238 6.74317968,13.1045851 6.54117346,12.9584627 C6.33930595,12.8123403 5.69167945,13.089834 5.69167945,13.089834 C5.51422186,13.1507569 5.2536872,13.157901 5.08281755,13.0908262 Z M5.11069486,12.0647941 C5.11069486,12.0647941 4.39614901,11.8446512 4.21543217,12.0128673 C4.03478464,12.1812157 4.20967639,12.3575681 4.50266516,12.4084365 C4.79558457,12.459437 4.91742627,12.5174495 5.23087228,12.6303653 C5.41789962,12.6976385 5.71289947,12.6256687 5.86393598,12.5034921 C6.11732796,12.2989604 6.11989376,12.2412787 6.37689173,12.1015727 C6.63388966,11.9617344 6.73367923,11.7409962 6.50185401,11.6393918 C6.26995948,11.5377213 5.70416179,11.9402361 5.70416179,11.9402361 C5.54577452,12.0352917 5.29307601,12.0955531 5.11069486,12.0647941 Z M4.83844068,10.9921932 C4.83844068,10.9921932 4.17493382,10.6627066 3.96585425,10.799899 C3.75677471,10.9375544 3.8966465,11.1388448 4.17590466,11.2350912 C4.45523218,11.3314698 4.56459152,11.4077392 4.85265671,11.5685466 C5.02435852,11.6645283 5.32816531,11.6397887 5.49972843,11.5434101 C5.78723887,11.3820074 5.80034532,11.3253841 6.0794648,11.2280794 C6.35837621,11.1310392 6.49741583,10.9292197 6.28785089,10.7925564 C6.07807787,10.655761 5.44647035,10.9631539 5.44647035,10.9631539 C5.27254945,11.0319485 5.01236157,11.0513301 4.83844068,10.9921932 Z M4.52430123,10.0004922 C4.52430123,10.0004922 3.86100243,9.67100556 3.65199222,9.80819796 C3.44263528,9.94565489 3.58250708,10.1470115 3.86197328,10.2432578 C4.14123144,10.3397687 4.25059078,10.4161043 4.53872529,10.5769118 C4.71028841,10.6727612 5.01444197,10.6481539 5.18565836,10.551643 C5.4732381,10.3901079 5.48641391,10.3335508 5.76539473,10.2363783 C6.04430615,10.1390737 6.18348448,9.93745249 5.97378077,9.80072311 C5.76428517,9.66386151 5.13260835,9.97112214 5.13260835,9.97112214 C4.95854872,10.0401814 4.6982915,10.0595629 4.52430123,10.0004922 Z M4.28880069,8.93622605 C4.28880069,8.93622605 3.62550188,8.60673944 3.41628363,8.743998 C3.20713473,8.88152109 3.34693718,9.08281151 3.62647273,9.17912398 C3.9055922,9.27550262 4.01502089,9.35190434 4.3031554,9.51271179 C4.47478787,9.60842889 4.77873337,9.58388776 4.95015781,9.48737681 C5.23766822,9.32590791 5.25084403,9.26941691 5.52975545,9.17217836 C5.80880557,9.07500596 5.94784519,8.87318632 5.7383496,8.73645699 C5.5287846,8.59966155 4.89703844,8.90705445 4.89703844,8.90705445 C4.72297883,8.97611369 4.46299898,8.99503222 4.28880069,8.93622605 Z M4.12320137,7.87182762 C4.12320137,7.87182762 3.4598332,7.54234106 3.25061496,7.67953341 C3.0415354,7.8170565 3.18126851,8.01841307 3.46066536,8.11472555 C3.73992352,8.21103803 3.84935223,8.28750595 4.13734806,8.44811488 C4.30904984,8.54403051 4.6132034,8.51955549 4.78462785,8.42304453 C5.07213823,8.26157564 5.08524473,8.20501848 5.36422545,8.10784613 C5.64320627,8.01054142 5.78217653,7.80865562 5.5728196,7.67212476 C5.36304659,7.53526311 4.73130042,7.84265602 4.73130042,7.84265602 C4.55731015,7.91171525 4.29726095,7.93089837 4.12320137,7.87182762 Z M3.96613167,6.83984202 C3.96613167,6.83984202 3.30269414,6.51048778 3.0934759,6.64774624 C2.88453504,6.78513706 3.02433748,6.98649363 3.303665,7.08274 C3.5829925,7.17911859 3.69235186,7.25538804 3.98048638,7.41619549 C4.15211885,7.51211107 4.45627237,7.48743762 4.62755811,7.39112514 C4.91506852,7.22959004 4.92817497,7.17303293 5.20715576,7.07592669 C5.48613653,6.97868809 5.62531486,6.77680234 5.41568056,6.64020533 C5.20604621,6.50334372 4.57436938,6.81073658 4.57436938,6.81073658 C4.40024045,6.87966355 4.14019125,6.89891277 3.96613167,6.83984202 Z M3.91384443,5.85601271 C3.91384443,5.85601271 3.25040691,5.52665842 3.04132736,5.66398308 C2.83217846,5.80130775 2.97218895,6.00273048 3.25137777,6.0989768 C3.53056659,6.19522312 3.63992594,6.27175716 3.92806045,6.43269693 C4.09997032,6.5282156 4.4037771,6.50367447 4.5751322,6.40736199 C4.86264261,6.24582689 4.87595712,6.18913746 5.15479922,6.09209733 C5.43384929,5.99485878 5.57288896,5.7931053 5.36332396,5.65644213 C5.15375897,5.51958052 4.52187413,5.82690727 4.52187413,5.82690727 C4.34809192,5.89590039 4.08790401,5.91508346 3.91384443,5.85601271 Z M3.74810641,4.87264641 C3.74810641,4.87264641 3.0845302,4.54315985 2.87572804,4.68035221 C2.66664848,4.81774302 2.80638158,5.01916576 3.08570909,5.11534592 C3.36496726,5.21172456 3.47439596,5.28806012 3.76232243,5.44893373 C3.93423229,5.54478319 4.23824714,5.52010974 4.40946353,5.42379726 C4.6971126,5.26232827 4.7102191,5.20570505 4.98913056,5.1084665 C5.26804192,5.01129405 5.40708159,4.80947442 5.19765531,4.67300971 C4.98815966,4.53614809 4.35634412,4.84347486 4.35634412,4.84347486 C4.18228454,4.91220335 3.9223047,4.93165105 3.74810641,4.87264641 Z" id="Shape"></path>
                            <path d="M0,16.0437033 L1.83171719,17.0587548 L4.0123164,17.5579789 C4.0123164,17.5579789 4.0123164,17.3083338 3.87272198,17.166974 C3.73319692,17.0255482 2.11957432,16.3516255 2.11957432,16.3516255 L1.6224296,16.0188314 L2.90457616,16.4681794 L5.09412108,16.6928865 C5.09412108,16.6928865 5.25098274,16.5265225 5.13760127,16.3515593 C5.02428921,16.176993 3.45428549,15.9024097 3.45428549,15.9024097 L1.98878691,15.361512 L1.82304889,15.1617429 L3.29707708,15.6362274 C3.29707708,15.6362274 4.67533782,15.8107277 4.80619457,15.7607854 C4.936982,15.7108432 4.82346182,15.419789 4.82346182,15.419789 L3.2096312,14.8540193 L2.02762092,14.4255743 L2.02762092,14.2632454 L2.70374883,14.4922522 L4.23471045,14.6917566 C4.23471045,14.6917566 4.48761699,14.6086077 4.3043343,14.3755659 C4.12119031,14.1425903 2.66012991,13.7849905 2.66012991,13.7849905 C2.66012991,13.7849905 2.47691658,13.6268951 1.51750842,13.1525429 C1.31286704,13.0513354 1.08548002,12.9767859 0.854486988,12.9218825 L0,16.0437033 Z" id="Shape"></path>
                        </g>
                        <g id="Group" transform="translate(2.487805, 2.487805)" fill="#FF5B62" fill-rule="nonzero">
                            <path d="M7.98265571,9.75110299 C7.06799778,9.98719025 6.0164155,10.4596283 5.26802298,11.45445 C5.26802298,11.45445 2.60823935,13.0124415 1.44431554,15.0679756 C0.280589983,17.1235097 -0.45088521,17.7863727 0.313962011,18.7809966 C1.07861098,19.7756865 7.37911764,21.7316593 7.77806208,21.9637272 C8.12572589,22.1658807 8.68478995,22.7488179 8.82277169,22.8953594 L10.0846308,24.0487805 L10.8990405,20.9392547 C10.0873403,20.7377602 9.22832446,20.8044418 9.22832446,20.8044418 C9.22832446,20.8044418 9.01223234,20.8376509 8.19775658,20.191063 C7.38301655,19.5446727 3.31017534,17.2572025 3.31017534,17.2572025 C3.31017534,17.2572025 4.1249154,16.8758256 4.92273813,16.3952829 C5.72069304,15.9146743 8.34611344,14.0156312 8.34611344,14.0156312 C8.34611344,14.0156312 8.86288423,13.0636388 9.36154823,11.7541879 C9.86060875,10.4443417 7.98265571,9.75110299 7.98265571,9.75110299 Z" id="Shape"></path>
                            <path d="M21.3660944,13.2651333 C21.6172767,12.0201238 21.9943475,11.1145185 22.4072355,10.5093101 C22.9725114,9.68073145 26.1476781,7.0947093 26.6131022,5.47023373 C27.0787246,3.8460218 27.8931343,2.68548448 28.0926395,2.10538055 C28.2922108,1.52514483 28.3254507,0.0333736956 26.9955919,0.000296438089 C25.6654688,-0.0329126014 18.2344765,2.73516627 18.2344765,2.73516627 L17.1871896,3.00050913 C17.1871896,3.00050913 16.6018244,3.07694263 16.343439,3.32515384 L16.2807921,3.39816102 L15.2909315,4.51659402 L13.9773292,5.22821628 C13.9773292,5.22821628 13.2460523,5.27895234 13.2792921,5.52769065 C13.312532,5.77642902 14.1049359,5.65301528 14.1049359,5.65301528 L15.2285489,5.27473532 L14.1950734,5.7903979 C14.1950734,5.7903979 13.0382205,5.96698565 13.0050467,6.05798104 C12.9718729,6.14897648 12.9895172,6.43145096 13.1641091,6.41484643 C13.3387009,6.39824195 14.7754824,6.2238945 14.7754824,6.2238945 L15.6648964,5.97515613 L14.6008905,6.51381466 C14.6008905,6.51381466 12.8802816,6.70450304 12.8387153,6.88688923 C12.7971489,7.06927537 12.8387153,7.24322746 12.95522,7.28467287 C13.0715264,7.32611827 14.8003957,7.19341392 14.8003957,7.19341392 L16.1305188,6.66312354 L15.0077649,7.33171901 L13.4455575,7.61623618 C13.4455575,7.61623618 13.3759058,7.9953727 13.6418907,8.04492269 C13.9078757,8.09447268 15.3095008,7.91755549 15.3095008,7.91755549 L16.958079,7.21364241 C16.958079,7.21364241 18.0577699,5.99321024 18.149097,5.52077214 C18.240424,5.04833399 18.328579,4.95107899 18.5529976,4.75222007 C18.7774162,4.55336116 18.8231458,4.65687586 18.8231458,4.65687586 L23.1869515,3.65408147 C23.1869515,3.65408147 22.6798288,4.20110816 22.4386911,4.68178264 C22.1976856,5.16252302 19.8286682,5.908145 19.3631779,6.96905522 C18.5501561,8.8217111 18.0130977,8.5441784 16.6533032,8.04656997 C16.6533032,8.04656997 15.5372897,8.99381827 15.5279059,9.3678153 C15.4793348,11.2725909 16.4486435,16.3556825 16.5401687,16.4105038 C16.6498008,16.4759994 19.5888521,17.5625411 21.3660944,13.2651333 Z" id="Shape"></path>
                        </g>
                        <path d="M19.0731707,5.80487805 C18.9090655,5.85582278 18.7345431,5.92992422 18.6205097,6.03459255 L18.5546732,6.10790007 L17.514414,7.23093405 L16.246227,7.88732737 C16.1371245,7.94376354 15.4971627,7.96083336 15.3516,8.09110633 C14.9381076,8.46108434 16.1828906,8.39942137 16.3111608,8.35813623 L17.4487164,7.99232646 L16.3626216,8.51011037 C16.3626216,8.51011037 15.1062408,8.73036375 15.071378,8.82179964 C15.0365152,8.91323554 15.0266536,9.1438763 15.2101348,9.12726964 C15.3936159,9.11066297 16.6026333,9.08294108 16.6026333,9.08294108 L17.8042893,8.7232182 L17.6525458,8.25743768 C17.6525458,8.25743768 17.9693668,7.86800804 18.2290323,7.29550815 C18.2290323,7.29550815 18.5837718,7.24760689 18.7146116,7.05633248 C18.8073244,6.92089888 18.991639,6.29540317 19.0731707,5.80487805 Z M17.810609,8.7424714 L16.6179119,9.31378031 C16.6179119,9.31378031 14.9810958,9.42790981 14.9374131,9.61098007 C14.8937304,9.79411656 14.9916518,9.88290597 15.1140189,9.92452187 C15.2363166,9.96613782 16.8591042,9.89739548 16.8591042,9.89739548 L18.0618018,9.51392044 L17.810609,8.7424714 Z M18.0790944,9.56711472 L17.2168301,10.057706 L15.6801577,10.3251329 C15.61321,10.3367774 15.5657077,10.3915595 15.5664626,10.4563983 C15.5677217,10.5727773 15.6017511,10.7419535 15.7814127,10.7739098 C16.0608708,10.8235975 17.4670506,10.5754899 17.4670506,10.5754899 L18.3307039,10.3209647 L18.3224396,10.3148777 L18.0790944,9.56711472 Z" id="Shape" fill="#ED4C54" fill-rule="nonzero"></path>
                        <path d="M14.5121951,9.65547358 C15.3625101,9.65547358 16.0517128,10.3446762 16.0517128,11.1949913 C16.0517128,12.0453063 15.3624448,12.734509 14.5121951,12.734509 C13.6618801,12.734509 12.9726774,12.0452409 12.9726774,11.1949913 C12.9726774,10.3448069 13.6618801,9.65547358 14.5121951,9.65547358 Z M14.5121951,8.29268293 C15.3130527,8.29268293 16.0383195,8.61765157 16.5636005,9.14280194 L16.5645152,9.1437166 C17.0895349,9.66893231 17.4146341,10.3944604 17.4146341,11.195122 C17.4146341,11.9959795 17.0896655,12.7212463 16.5645152,13.2465273 L16.5636005,13.247442 C16.0383848,13.7724617 15.3130527,14.097561 14.5121951,14.097561 C13.7115989,14.097561 12.9860708,13.7725923 12.4607897,13.247442 L12.4598751,13.2465273 C11.9348554,12.7213116 11.6097561,11.9959795 11.6097561,11.195122 C11.6097561,10.3945257 11.9347247,9.66899766 12.4598751,9.1437166 L12.4607897,9.14280194 C12.9860054,8.61765157 13.7115989,8.29268293 14.5121951,8.29268293 Z M16.2486278,9.45862388 C15.8044257,9.01481368 15.1905525,8.74015178 14.5122605,8.74015178 C13.8339684,8.74015178 13.2200952,9.01481368 12.775893,9.45862388 C12.3320828,9.9028261 12.057421,10.5167647 12.057421,11.1949913 C12.057421,11.8733486 12.3320828,12.4871565 12.775893,12.9313587 C13.2200952,13.3751689 13.8340338,13.6498308 14.5122605,13.6498308 C15.1906178,13.6498308 15.8044257,13.3751689 16.2486279,12.9313587 C16.6924381,12.4871565 16.9671,11.8732833 16.9671,11.1949913 C16.9670346,10.5167647 16.6924381,9.90289139 16.2486278,9.45862388 Z" id="Shape" fill="#FEFEFE" fill-rule="nonzero"></path>
                        <path d="M10.0672018,15.7560976 C10.0084621,16.1154632 10.1570285,17.0134132 9.95121951,17.2591764 C10.4778509,17.8408423 11.0914028,18.2623778 11.6097561,19.0731707 C11.0524779,18.1539451 10.5013644,17.2078763 10.0672018,15.7560976 Z" id="Shape" fill="#ED4C54" fill-rule="nonzero"></path>
                        <path d="M18.6585705,25.8515329 C19.2659557,25.8515329 19.758291,26.3439359 19.758291,26.9512534 C19.758291,27.5585708 19.2658879,28.0509739 18.6585705,28.0509739 C18.0512531,28.0509739 17.55885,27.5585708 17.55885,26.9512534 C17.55885,26.3439359 18.0511853,25.8515329 18.6585705,25.8515329 Z M18.6585705,24.8780488 C19.230634,24.8780488 19.7487317,25.1101826 20.1239153,25.4852984 C20.5140819,25.8754649 20.7317073,26.3993931 20.7317073,26.9512534 C20.7317073,27.5233169 20.4995735,28.0414147 20.1244577,28.4165982 C19.7342234,28.8068326 19.2104308,29.0243902 18.6585027,29.0243902 C18.0865749,29.0243902 17.5683414,28.7922564 17.1931579,28.4172084 C16.8029235,28.0269741 16.5853659,27.5031814 16.5853659,26.9512534 C16.5853659,26.3793255 16.8174997,25.8610922 17.1925477,25.4859085 C17.582782,25.095742 18.1067103,24.8780488 18.6585705,24.8780488 Z M19.8989001,25.7109238 C19.5816143,25.3939093 19.143177,25.1977074 18.6586383,25.1977074 C18.1741674,25.1977074 17.7356622,25.3939093 17.4183765,25.7109238 C17.101362,26.0282096 16.90516,26.4667825 16.90516,26.9511856 C16.90516,27.4357243 17.101362,27.8741617 17.4183765,28.1914474 C17.7356622,28.5084619 18.1741674,28.7046639 18.6586383,28.7046639 C19.143177,28.7046639 19.5816143,28.5084619 19.8989001,28.1914474 C20.2159146,27.8741617 20.4121165,27.4357243 20.4121165,26.9511856 C20.4120487,26.4667825 20.2159146,26.0282096 19.8989001,25.7109238 Z" id="Shape" fill="#FEFEFE" fill-rule="nonzero"></path>
                        <path d="M25.1002073,6.28539124 C25.3105726,6.30002662 26.2364428,6.02903179 26.8057578,5.49805882 L27.3658537,4.97560976 C26.6295755,6.01632639 25.9880036,6.44501285 24.8780488,6.63414634 C25.0036453,6.4256331 25.1002073,6.28539124 25.1002073,6.28539124 Z" id="Shape" fill="#ED4C54" fill-rule="nonzero"></path>
                    </g>
                </g>
            </g>
        </g>
    </g>
</svg>