<?xml version="1.0" encoding="UTF-8"?>
<svg width="92px" height="92px" viewBox="0 0 92 92" version="1.1" xmlns="http://www.w3.org/2000/svg" xmlns:xlink="http://www.w3.org/1999/xlink">
    <!-- Generator: Sketch 51.2 (57519) - http://www.bohemiancoding.com/sketch -->
    <title>ic_stomach</title>
    <desc>Created with Sketch.</desc>
    <defs></defs>
    <g id="ic_stomach" stroke="none" stroke-width="1" fill="none" fill-rule="evenodd">
        <g id="101-stomach" transform="translate(1.000000, 1.000000)" fill-rule="nonzero">
            <circle id="Oval" fill="#FAD24D" cx="45" cy="45" r="45"></circle>
            <path d="M36.6053906,7.10402344 C36.1258594,11.0077734 35.4401367,21.6232031 41.2057617,29.4721875 C43.3330664,32.3667773 45.5953711,32.5520508 46.4802539,33.6842578 C57.63375,52.070625 37.9492383,58.3468945 36.7463672,54.3884766 C34.5891797,47.2939453 19.4131055,42.5501367 7.94671875,54.5116992 C-3.51931641,66.4732617 4.40789062,78.664043 4.40789062,78.664043 L13.9083398,72.5732227 C13.9083398,72.5732227 8.50324219,63.4473633 16.8563672,59.0588086 C25.2094922,54.6704297 27.3315234,57.7842188 26.4830273,61.4654297 C25.6341797,65.1466406 25.5380273,77.18625 38.3749805,79.0192969 C82.460918,85.3164844 94.5049219,17.1629297 65.3039648,16.977832 C57.279375,16.9275586 51.2889258,24.0853711 50.710957,24.0157617 C47.5082227,23.6285156 44.7495117,11.1585937 46.5857227,7.49478516 C47.4976758,5.67650391 38.7283008,3.84873047 36.6053906,7.10402344 Z" id="Shape" fill="#FF5B62"></path>
            <ellipse id="Oval" fill="#ED4C54" transform="translate(9.030185, 75.448895) rotate(149.508891) translate(-9.030185, -75.448895) " cx="9.03018507" cy="75.4488949" rx="5.66133478" ry="3.32575074"></ellipse>
            <path d="M14.6610352,49.459043 C12.3662109,50.6216602 10.0916016,52.2740039 7.94689453,54.5115234 C-3.51914062,66.4729102 4.40806641,78.6638672 4.40806641,78.6638672 L4.88179688,78.3599414 L4.404375,75.4198242 C4.404375,75.4198242 2.44388672,72.1963477 2.8546875,66.42 C3.24351563,60.9500391 9.54773437,52.8087305 14.6610352,49.459043 Z" id="Shape" fill="#FF878E"></path>
            <path d="M5.00466797,79.1177344 C4.64273437,78.9241992 4.35076172,78.6580664 4.15089844,78.3189844 C3.68033203,77.5198828 3.81181641,76.4692383 4.40402344,75.4201758 L5.00466797,79.1177344 Z" id="Shape" fill="#ED4C54"></path>
            <path d="M44.5647656,57.8489062 C40.7244727,59.6167383 36.6343945,59.5908984 34.5035742,57.4904883 L34.5032227,57.4904883 C34.5032227,57.4904883 30.4168359,55.0979297 29.172832,55.3296094 C29.0580469,55.3510547 28.9070508,55.4211914 28.7281055,55.5307031 C28.8124805,55.6316016 28.895625,55.7353125 28.9766602,55.8439453 C30.3612891,57.7054687 30.5173828,60.0830859 30.0113086,62.2787695 C29.5064648,64.4688281 29.8374609,67.529707 30.660293,69.5947852 C32.1124219,73.2373242 35.1135352,74.8959961 38.8870312,75.4349414 C54.774668,77.7042773 67.2658594,69.2583398 73.7275781,55.0587305 C60.8459766,60.2852344 53.6257617,52.9266797 44.5647656,57.8489062 Z" id="Shape" fill="#FF878E"></path>
            <path d="M27.6980273,70.8087305 C28.6767773,73.4855273 30.5179102,76.0841016 33.790957,77.7346875 C35.0968359,78.3226758 36.6134766,78.7674023 38.3751563,79.0189453 C76.8991992,84.5223047 90.9541406,33.1767773 74.4031055,20.0100586 C78.160957,24.249375 82.5899414,41.7489258 75.4231641,55.7521875 C67.9014844,70.4482031 58.149668,76.6571484 47.4916992,77.7612305 C36.8576367,78.8630273 29.784375,76.428457 27.6980273,70.8087305 Z" id="Shape" fill="#ED4C54"></path>
            <g id="Group" transform="translate(36.562500, 5.976562)" fill="#FF878E">
                <path d="M0.260859375,0.836894531 C-1.04238281,18.9293555 5.91925781,23.3495508 3.23191406,18.9024609 C0.580429688,14.5146094 0.643535156,4.27623047 1.22361328,0.0768164062 C0.849550781,0.281601562 0.521894531,0.532617188 0.260859375,0.836894531 Z" id="Shape"></path>
                <path d="M29.6576367,11.4329883 C41.7564844,11.3030859 41.8297852,27.3489258 41.1936328,34.9191211 C41.1674414,11.5379297 30.9592969,12.325957 29.6576367,11.4329883 Z" id="Shape"></path>
            </g>
            <g id="Group" transform="translate(11.777344, 6.152344)" fill="#ED4C54">
                <path d="M34.0331836,0.110917969 C32.9450977,5.61972656 33.9595312,16.3592578 38.1900586,20.0032031 C38.1900586,20.0032031 38.445293,18.5625 40.1487891,16.9416211 C39.485918,17.5132617 39.0666797,17.8792383 38.9341406,17.8632422 C35.7312305,17.4759961 32.9726953,5.00625 34.8089062,1.34226562 C35.0259961,0.909492187 34.6935937,0.476015625 34.0331836,0.110917969 Z" id="Shape"></path>
                <path d="M14.8746094,54.0929883 L14.8749609,54.0926367 C17.4875977,45.6676172 -3.05912109,51.121582 0.595371094,62.1481641 L0.59625,62.1508008 C0.0518554688,59.1760547 0.479179688,55.3229297 5.07919922,52.9062891 C12.4850391,49.0153711 14.9927344,51.0222656 14.8746094,54.0929883 Z" id="Shape"></path>
            </g>
        </g>
    </g>
</svg>