<?xml version="1.0" encoding="UTF-8"?>
<svg width="80px" height="80px" viewBox="0 0 80 80" version="1.1" xmlns="http://www.w3.org/2000/svg" xmlns:xlink="http://www.w3.org/1999/xlink">
    <title>Sleep Disorder@2x</title>
    <g id="Sleep-Disorder" stroke="none" stroke-width="1" fill="none" fill-rule="evenodd">
        <g id="sleep-disorder" fill-rule="nonzero">
            <circle id="Oval" fill="#FF583E" cx="40" cy="40" r="40"></circle>
            <path d="M67.725625,21.8340625 L67.725625,19.1601562 L65.0515625,19.1601562 C62.7770312,19.1601562 60.8076562,20.4657812 59.8515625,22.3685937 C46.6171875,20.85375 33.3826562,20.85375 20.1482812,22.3685937 C19.1923437,20.4659375 17.2228125,19.1601562 14.9482812,19.1601562 L12.2745312,19.1601562 L12.2745312,21.8340625 C12.2745312,23.5707812 13.0359375,25.1296875 14.2429687,26.1954687 C11.9428125,35.3984375 11.9428125,44.6015625 14.2429687,53.8045312 C13.0359375,54.8701562 12.2745312,56.4290625 12.2745312,58.1659375 L12.2745312,60.8398438 L14.9484375,60.8398438 C17.2229687,60.8398438 19.1923437,59.5342187 20.1484375,57.6314062 C33.3828125,59.14625 46.6173437,59.14625 59.8517187,57.6314062 C60.8076562,59.5340625 62.7771875,60.8398438 65.0515625,60.8398438 L67.725625,60.8398438 L67.725625,58.1659375 C67.725625,56.4292188 66.9642187,54.8703125 65.7571875,53.8045312 C68.0573437,44.6015625 68.0573437,35.3984375 65.7571875,26.1954687 C66.9642187,25.1298438 67.725625,23.5709375 67.725625,21.8340625 L67.725625,21.8340625 Z" id="Path" fill="#FFFFFF"></path>
            <path d="M67.7254688,21.8340625 L67.7254688,19.1601562 L65.0515625,19.1601562 C62.7770313,19.1601562 60.8076563,20.4657812 59.8515625,22.3685937 C53.2192187,21.609375 46.5870312,21.2307812 39.9546875,21.2325 L39.9546875,58.7675 C46.5870312,58.7692188 53.2192187,58.390625 59.8515625,57.6314062 C60.8075,59.5340625 62.7770313,60.8398437 65.0514062,60.8398437 L67.7254688,60.8398437 L67.7254688,58.1659375 C67.7254688,56.4292187 66.9640625,54.8703125 65.7570312,53.8045312 C68.0571875,44.6015625 68.0571875,35.3984375 65.7570312,26.1954687 C66.9642187,25.1298437 67.7254688,23.5709375 67.7254688,21.8340625 L67.7254688,21.8340625 Z" id="Path" fill="#E9EDF5"></path>
            <polygon id="Path" fill="#555A66" points="34.6917187 51.52625 23.0851563 51.52625 21.5270312 47.431875 26.1898438 43.28125 20.7395312 43.28125 20.7395312 38.59375 32.3479687 38.59375 33.9064062 42.688125 29.2432812 46.83875 34.6917187 46.83875"></polygon>
            <polygon id="Path" fill="#333940" points="55.7645312 41.40625 44.1578125 41.40625 42.5996875 37.311875 47.2625 33.16125 41.8123437 33.16125 41.8123437 28.47375 53.4207812 28.47375 54.9790625 32.568125 50.3159375 36.71875 55.7645312 36.71875"></polygon>
            <polygon id="Path" fill="#FFCE00" points="23.0834375 10.776875 36.2357812 24.6304687 31.3320312 26.3828125 37.385625 39.0625 24.1948437 23.750625 29.211875 22.163125"></polygon>
        </g>
    </g>
</svg>