<?xml version="1.0" encoding="UTF-8"?>
<svg width="92px" height="92px" viewBox="0 0 92 92" version="1.1" xmlns="http://www.w3.org/2000/svg" xmlns:xlink="http://www.w3.org/1999/xlink">
    <!-- Generator: Sketch 51.2 (57519) - http://www.bohemiancoding.com/sketch -->
    <title>ic_serotonin</title>
    <desc>Created with Sketch.</desc>
    <defs></defs>
    <g id="Home-Page-+-Search--revamp" stroke="none" stroke-width="1" fill="none" fill-rule="evenodd">
        <g id="Assets-for_Revamp-Homepage" transform="translate(-939.000000, -801.000000)" fill-rule="nonzero">
            <g id="ic_serotonin" transform="translate(939.000000, 801.000000)">
                <circle id="Oval-Copy" fill="#6CCCF6" cx="45.9998203" cy="45.9998203" r="45.9998203"></circle>
                <g id="stress" transform="translate(9.000000, 2.000000)">
                    <path d="M31.5163937,18 C18.561961,18 8.03212267,28.5068106 8.03212267,41.5019715 L8.03212267,44.9953728 C8.03212267,48.7634839 6.53669032,52.3772787 3.87415586,55.0418951 L0.641363253,58.2778812 C-0.728452816,59.6481034 0.241252082,61.9914493 2.17800316,61.9914493 L6.82780108,61.9914493 C7.49310231,61.9914493 8.03212267,62.5308912 8.03212267,63.1967129 L8.03212267,67.1889816 C8.03212267,73.1547693 12.909891,78.0363522 18.871017,78.0363522 C21.1952512,78.0363522 23.0861426,79.9214056 23.0861426,82.254109 L23.0861426,85.719574 C23.0861426,86.4266351 23.6590593,87 24.3655681,87 L44.3684723,87 C45.0856153,87 45.6665077,86.4186534 45.6665077,85.7009496 L45.6665077,76.8137949 C45.6665077,73.3297055 46.8269633,69.899494 49.1305938,67.2874247 C52.7834368,63.1448306 55,57.7058467 55,51.7467104 L55,41.5026366 C55,28.5221093 44.486113,18 31.5163937,18 Z" id="Shape" fill="#E4EAF8"></path>
                    <path d="M4.09267632,58.2857101 L7.30101068,55.0490951 C9.942858,52.3839606 11.4266715,48.7694635 11.4266715,45.0006199 L11.4266715,41.5065396 C11.4266715,29.0969654 20.9514348,18.9566809 33,18.0645327 C32.4288968,18.0226198 31.8525176,18 31.2715222,18 C18.417741,18 7.96971585,28.5088528 7.96971585,41.5065396 L7.96971585,45.0006199 C7.96971585,48.7694635 6.4859025,52.3839606 3.84405501,55.0490951 L0.636380082,58.2857101 C-0.72279299,59.6561986 0.239377636,62 2.16108083,62 L5.6180365,62 C3.69633314,62 2.73416251,59.6561986 4.09267632,58.2857101 Z" id="Shape" fill="#CCD2DB"></path>
                    <path d="M26.7219007,85.7200117 L26.7219007,82.2557317 C26.7219007,79.9231608 24.8329697,78.0387521 22.5111448,78.0387521 C16.5561983,78.0387521 11.6834867,73.1595032 11.6834867,67.1957552 L11.6834867,63.2048515 C11.6834867,62.5392574 11.1450252,62 10.4804136,62 L7,62 C7.66461154,62 8.20307312,62.5392574 8.20307312,63.2048515 L8.20307312,67.1957552 C8.20307312,73.1595032 13.0757849,78.0387521 19.0307312,78.0387521 C21.3525561,78.0387521 23.2414872,79.9231608 23.2414872,82.2557317 L23.2414872,85.7200117 C23.2414872,86.4268311 23.81381,87 24.5195864,87 L28,87 C27.2942236,87 26.7219007,86.4268311 26.7219007,85.7200117 Z" id="Shape" fill="#CCD2DB"></path>
                    <path d="M45.6182303,16.8321687 L39.0017062,16.8321687 C38.7914466,16.8321687 38.6211097,16.661804 38.6211097,16.4523284 L38.6211097,0.380376732 C38.6211097,-0.0120587179 38.0961261,-0.146626883 37.9058277,0.196753976 L26.0481169,21.6050312 C25.907722,21.8582582 26.0913666,22.1684941 26.3814715,22.1684941 L32.9979957,22.1684941 C33.2082554,22.1684941 33.3792577,22.3381959 33.3792577,22.5476717 L33.3792577,38.6196233 C33.3792577,39.0120587 33.903576,39.1466269 34.0938741,38.8032459 L45.9522505,17.3949687 C46.0919799,17.1417419 45.9083354,16.8321687 45.6182303,16.8321687 Z" id="Shape" fill="#1DD1A1"></path>
                    <path d="M65.1381915,59.6431242 L64.4637404,54.1937928 C64.4421318,54.0204049 64.5626163,53.8617451 64.7322114,53.8396532 L77.7288199,52.1593312 C78.0464012,52.1184946 78.1020598,51.6719709 77.8047773,51.5514695 L59.2835625,44.0228233 C59.0642023,43.9337864 58.8324006,44.1178853 58.8618668,44.35621 L59.5363181,49.8062108 C59.5579267,49.9795987 59.4374422,50.137589 59.2678472,50.159681 L46.2705838,51.8406724 C45.9536573,51.881509 45.8979987,52.3273633 46.195281,52.4485341 L64.716496,59.9771803 C64.9352014,60.0662172 65.1676579,59.8821183 65.1381915,59.6431242 Z" id="Shape" fill="#FF6B6B"></path>
                    <path d="M72.0882196,28.2005797 L67.0632733,23.8777786 C66.9037085,23.7401687 66.9191287,23.463626 67.0988065,23.2605191 L80.8522085,7.69605369 C81.1880988,7.31564186 80.9051733,6.84260803 80.4667056,7.05100758 L53.1402501,20.0359503 C52.8177686,20.1894382 52.6917259,20.6095451 52.9123005,20.7987587 L57.9365764,25.1222213 C58.0968114,25.2598311 58.0807208,25.536374 57.9010432,25.7388193 L44.1476412,41.3039463 C43.8117509,41.6843581 44.0953469,42.157392 44.5338145,41.9489924 L71.8595995,28.9640495 C72.1827515,28.8105617 72.3081238,28.3904549 72.0882196,28.2005797 Z" id="Shape" fill="#FECA57"></path>
                    <path d="M29.6648008,21.4408198 L39,5.20288237 L39,0.377485636 C39,-0.0119670643 38.4592562,-0.14551243 38.263245,0.195258526 L26.0495614,21.4408198 C25.9049518,21.6921221 26.0941095,22 26.3929234,22 L30.0081629,22 C29.7093488,22 29.5201912,21.6921221 29.6648008,21.4408198 Z" id="Shape" fill="#15BA8B"></path>
                    <path d="M37,22.3829734 C37,22.1714006 36.8242135,22 36.6080712,22 L33,22 C33.2161424,22 33.391929,22.1714006 33.391929,22.3829734 L33.391929,38.6158155 C33.391929,39.0121794 33.9309167,39.1480948 34.126539,38.8012763 L37,33.7047865 L37,22.3829734 Z" id="Shape" fill="#15BA8B"></path>
                    <path d="M59.6960006,50 L62.7116534,49.6317774 C62.8921188,49.6095629 63.0203259,49.4506954 62.9973323,49.276345 L62.4608135,45.179448 L59.450735,44.0229464 C59.2180114,43.9334152 58.9713521,44.1185361 59.002707,44.358857 L59.7203879,49.8384398 C59.7273556,49.895659 59.7176008,49.9508586 59.6960006,50 Z" id="Shape" fill="#EE5253"></path>
                    <path d="M49.2511414,52.3900836 C49.0723905,52.3209866 49.0236401,52.1407065 49.0821404,52 L46.2689244,52.3442282 C45.9536726,52.3825458 45.8990723,52.8008963 46.1935239,52.9145923 L64.5788788,59.9788124 C64.7959799,60.0617287 65.0267313,59.8896146 64.997481,59.6653635 L64.8284802,58.3751352 L49.2511414,52.3900836 Z" id="Shape" fill="#EE5253"></path>
                    <path d="M61.4376129,25.7388193 C61.6172908,25.536374 61.6333814,25.2598311 61.4731464,25.1222213 L56.4488705,20.7987587 C56.2282958,20.6095451 56.3543385,20.1894382 56.67682,20.0359503 L79.5542371,9.16543552 L80.8522085,7.69605369 C81.1880988,7.31564186 80.9051733,6.84260803 80.4667056,7.05100758 L53.1402501,20.0359503 C52.8177686,20.1894382 52.6917259,20.6095451 52.9123005,20.7987587 L57.9365764,25.1222213 C58.0968114,25.2598311 58.0807208,25.536374 57.9010432,25.7388193 L44.1476412,41.3039463 C43.8117509,41.6843581 44.0953469,42.157392 44.5338145,41.9489924 L48.9828529,39.8345645 L61.4376129,25.7388193 Z" id="Shape" fill="#F4B537"></path>
                </g>
            </g>
        </g>
    </g>
</svg>