<?xml version="1.0" encoding="UTF-8"?>
<svg width="21px" height="23px" viewBox="0 0 21 23" version="1.1" xmlns="http://www.w3.org/2000/svg" xmlns:xlink="http://www.w3.org/1999/xlink">
    <title>ic_veterinary</title>
    <g id="App-Flow-Final" stroke="none" stroke-width="1" fill="none" fill-rule="evenodd">
        <g id="Home-Product-Type" transform="translate(-69.000000, -348.000000)" fill="#FFF" fill-rule="nonzero">
            <g id="Option-1-Copy" transform="translate(16.000000, 328.000000)">
                <g id="ic_veterinary" transform="translate(53.000000, 20.000000)">
                    <path d="M7.24847089,6.61080322 C8.64919231,6.34963538 9.5277646,4.66389415 9.17151101,2.85960522 C8.86298261,1.03144734 7.43840497,-0.226865911 6.03768355,0.034293443 C4.63696214,0.295461277 3.75838985,1.98120251 4.11464343,3.78549144 C4.44701959,5.61364932 5.84774948,6.87196257 7.24847089,6.61080322 L7.24847089,6.61080322 Z" id="Path"></path>
                    <path d="M3.52101465,11.9764409 C4.77932791,11.549174 5.34917253,9.86342427 4.80298487,8.24889983 C4.23314025,6.63454498 2.76119356,5.66109044 1.5028803,6.08835732 C0.220910084,6.53966273 -0.348976936,8.2015435 0.220910084,9.8397249 C0.766928156,11.4542493 2.23887485,12.4275343 3.52101465,11.9763985 L3.52101465,11.9764409 Z" id="Path"></path>
                    <path d="M12.7328173,6.61080322 C14.1335387,6.87197105 15.5581291,5.61364932 15.8904713,3.80936039 C16.2228475,2.00502906 15.3681526,0.319321745 13.9674312,0.0581623905 C12.5667098,-0.203005443 11.1421194,1.05531629 10.8097772,2.85960522 C10.4537187,4.68776309 11.308439,6.34964386 12.7328173,6.61080322 Z" id="Path"></path>
                    <path d="M18.5258066,6.08848451 C17.2674934,5.66121763 15.7955891,6.61080322 15.2257021,8.24902702 C14.6559846,9.86338187 15.2257021,11.5254322 16.4840153,11.9526991 C17.7423286,12.379966 19.2142329,11.4303804 19.7841199,9.79215659 C20.3539645,8.17780174 19.7841199,6.51592097 18.5258066,6.08848451 Z" id="Path"></path>
                    <path d="M17.0538176,14.3981003 L15.1783034,13.3058946 C14.0149147,12.6174684 13.0889861,11.548962 12.6141933,10.2669494 C12.6141933,10.2669494 11.9257671,8.0351816 9.97885803,8.0351816 C8.03194896,8.0351816 7.36717969,10.2669494 7.36717969,10.2669494 C6.86851795,11.5489196 5.96645828,12.617426 4.7793703,13.3058946 L2.92751306,14.3981003 C2.21521788,14.8253672 1.76412445,15.6088877 1.76412445,16.4398916 C1.76412445,17.9593643 2.69005307,22.5652656 9.97877323,22.5652656 C17.2674934,22.5652656 18.193422,17.983106 18.193422,16.4398916 C18.217104,15.5851883 17.7659856,14.8016678 17.0536904,14.3981003 L17.0538176,14.3981003 Z M13.2313943,17.1758862 C13.2313943,17.4133716 13.041439,17.6031531 12.8041274,17.6031531 L11.0710214,17.6031531 L11.0710214,19.3125598 C11.0710214,19.5500452 10.8810661,19.7398266 10.6437545,19.7398266 L9.31425834,19.7398266 C9.07677292,19.7398266 8.88699147,19.5498714 8.88699147,19.3125598 L8.88699147,17.6031531 L7.17758478,17.6031531 C6.94009935,17.6031531 6.7503179,17.4131978 6.7503179,17.1758862 L6.7503179,15.8463901 C6.7503179,15.6089046 6.94027318,15.4191232 7.17758478,15.4191232 L8.88699147,15.4191232 L8.88699147,13.7097165 C8.88699147,13.4722311 9.07694674,13.2824496 9.31425834,13.2824496 L10.6437545,13.2824496 C10.8812399,13.2824496 11.0710214,13.4724049 11.0710214,13.7097165 L11.0710214,15.4191232 L12.8041274,15.4191232 C13.0416128,15.4191232 13.2313943,15.6090784 13.2313943,15.8463901 L13.2313943,17.1758862 Z" id="Shape"></path>
                </g>
            </g>
        </g>
    </g>
</svg>