<?xml version="1.0" encoding="UTF-8"?>
<svg width="32px" height="32px" viewBox="0 0 32 32" version="1.1" xmlns="http://www.w3.org/2000/svg" xmlns:xlink="http://www.w3.org/1999/xlink">
    <title>Group 4</title>
    <g id="Page-1" stroke="none" stroke-width="1" fill="none" fill-rule="evenodd">
        <g id="Home-Page--Medicinal-Product" transform="translate(-323.000000, -487.000000)">
            <g id="Search" transform="translate(16.000000, 483.000000)">
                <g id="Group-4" transform="translate(307.000000, 4.000000)">
                    <rect id="Rectangle-Copy" stroke="#E6930E" fill="#F8A521" x="0.5" y="0.5" width="31" height="31" rx="15.5"></rect>
                    <g id="ic_search" transform="translate(9.000000, 9.000000)" fill="#FFFFFF" fill-rule="nonzero">
                        <path d="M5.92377598,0 C2.65220746,0 0,2.65170739 0,5.92307692 C0,9.19444646 2.65220746,11.8461538 5.92377598,11.8461538 C9.19534449,11.8461538 11.8461538,9.19444646 11.8461538,5.92307692 C11.8461538,2.65170739 9.19394638,0 5.92377598,0 L5.92377598,0 Z M5.92377598,10.5105307 C3.39040754,10.5105307 1.33519142,8.4561553 1.33519142,5.92307692 C1.33519142,3.38999855 3.38900943,1.33562314 5.92377598,1.33562314 C8.45714441,1.33562314 10.5109624,3.38999855 10.5109624,5.92307692 C10.5109624,8.4561553 8.45574631,10.5105307 5.92377598,10.5105307 Z" id="Shape"></path>
                        <path d="M13.7981219,12.8252075 L11.9441541,10.9708394 C11.6749833,10.7020279 11.2402797,10.7020279 10.9711089,10.9708394 C10.7019381,11.2396509 10.7019381,11.6752118 10.9711089,11.9440233 L12.8250767,13.7983914 C13.0942475,14.0672029 13.5289511,14.0672029 13.7981219,13.7983914 C14.0672927,13.5310174 14.0672927,13.094019 13.7981219,12.8252075 Z" id="Path"></path>
                    </g>
                </g>
            </g>
        </g>
    </g>
</svg>